0
SECTION
2
HEADER
9
$INSUNITS
70
4
0
ENDSEC
0
SECTION
2
TABLES
0
TABLE
2
LTYPE
0
LTYPE
72
65
70
64
2
CONTINUOUS
3
______
73
0
40
0
0
ENDTAB
0
TABLE
2
LAYER
0
ENDTAB
0
ENDSEC
0
SECTION
2
ENTITIES
0
LINE
8
0
10
91.25
20
-191.25
11
108.75
21
-191.25
0
LINE
8
0
10
108.75
20
-191.25
11
108.75
21
-174.75
0
LINE
8
0
10
108.75
20
-174.75
11
91.25
21
-174.75
0
LINE
8
0
10
91.25
20
-174.75
11
91.25
21
-191.25
0
LINE
8
0
10
91.25
20
-174.25
11
108.75
21
-174.25
0
LINE
8
0
10
108.75
20
-174.25
11
108.75
21
-157.75
0
LINE
8
0
10
108.75
20
-157.75
11
91.25
21
-157.75
0
LINE
8
0
10
91.25
20
-157.75
11
91.25
21
-174.25
0
LINE
8
0
10
91.25
20
-157.25
11
108.75
21
-157.25
0
LINE
8
0
10
108.75
20
-157.25
11
108.75
21
-140.75
0
LINE
8
0
10
108.75
20
-140.75
11
91.25
21
-140.75
0
LINE
8
0
10
91.25
20
-140.75
11
91.25
21
-157.25
0
LINE
8
0
10
91.25
20
-140.25
11
108.75
21
-140.25
0
LINE
8
0
10
108.75
20
-140.25
11
108.75
21
-123.75
0
LINE
8
0
10
108.75
20
-123.75
11
91.25
21
-123.75
0
LINE
8
0
10
91.25
20
-123.75
11
91.25
21
-140.25
0
LINE
8
0
10
91.25
20
-123.25
11
108.75
21
-123.25
0
LINE
8
0
10
108.75
20
-123.25
11
108.75
21
-106.75
0
LINE
8
0
10
108.75
20
-106.75
11
91.25
21
-106.75
0
LINE
8
0
10
91.25
20
-106.75
11
91.25
21
-123.25
0
LINE
8
0
10
109.25
20
-191.25
11
126.75
21
-191.25
0
LINE
8
0
10
126.75
20
-191.25
11
126.75
21
-174.75
0
LINE
8
0
10
126.75
20
-174.75
11
109.25
21
-174.75
0
LINE
8
0
10
109.25
20
-174.75
11
109.25
21
-191.25
0
LINE
8
0
10
109.25
20
-174.25
11
126.75
21
-174.25
0
LINE
8
0
10
126.75
20
-174.25
11
126.75
21
-157.75
0
LINE
8
0
10
126.75
20
-157.75
11
109.25
21
-157.75
0
LINE
8
0
10
109.25
20
-157.75
11
109.25
21
-174.25
0
LINE
8
0
10
109.25
20
-157.25
11
126.75
21
-157.25
0
LINE
8
0
10
126.75
20
-157.25
11
126.75
21
-140.75
0
LINE
8
0
10
126.75
20
-140.75
11
109.25
21
-140.75
0
LINE
8
0
10
109.25
20
-140.75
11
109.25
21
-157.25
0
LINE
8
0
10
109.25
20
-140.25
11
126.75
21
-140.25
0
LINE
8
0
10
126.75
20
-140.25
11
126.75
21
-123.75
0
LINE
8
0
10
126.75
20
-123.75
11
109.25
21
-123.75
0
LINE
8
0
10
109.25
20
-123.75
11
109.25
21
-140.25
0
LINE
8
0
10
109.25
20
-123.25
11
126.75
21
-123.25
0
LINE
8
0
10
126.75
20
-123.25
11
126.75
21
-106.75
0
LINE
8
0
10
126.75
20
-106.75
11
109.25
21
-106.75
0
LINE
8
0
10
109.25
20
-106.75
11
109.25
21
-123.25
0
LINE
8
0
10
127.25
20
-191.25
11
144.75
21
-191.25
0
LINE
8
0
10
144.75
20
-191.25
11
144.75
21
-174.75
0
LINE
8
0
10
144.75
20
-174.75
11
127.25
21
-174.75
0
LINE
8
0
10
127.25
20
-174.75
11
127.25
21
-191.25
0
LINE
8
0
10
127.25
20
-174.25
11
144.75
21
-174.25
0
LINE
8
0
10
144.75
20
-174.25
11
144.75
21
-157.75
0
LINE
8
0
10
144.75
20
-157.75
11
127.25
21
-157.75
0
LINE
8
0
10
127.25
20
-157.75
11
127.25
21
-174.25
0
LINE
8
0
10
127.25
20
-157.25
11
144.75
21
-157.25
0
LINE
8
0
10
144.75
20
-157.25
11
144.75
21
-140.75
0
LINE
8
0
10
144.75
20
-140.75
11
127.25
21
-140.75
0
LINE
8
0
10
127.25
20
-140.75
11
127.25
21
-157.25
0
LINE
8
0
10
127.25
20
-140.25
11
144.75
21
-140.25
0
LINE
8
0
10
144.75
20
-140.25
11
144.75
21
-123.75
0
LINE
8
0
10
144.75
20
-123.75
11
127.25
21
-123.75
0
LINE
8
0
10
127.25
20
-123.75
11
127.25
21
-140.25
0
LINE
8
0
10
127.25
20
-123.25
11
144.75
21
-123.25
0
LINE
8
0
10
144.75
20
-123.25
11
144.75
21
-106.75
0
LINE
8
0
10
144.75
20
-106.75
11
127.25
21
-106.75
0
LINE
8
0
10
127.25
20
-106.75
11
127.25
21
-123.25
0
LINE
8
0
10
145.25
20
-191.25
11
162.75
21
-191.25
0
LINE
8
0
10
162.75
20
-191.25
11
162.75
21
-174.75
0
LINE
8
0
10
162.75
20
-174.75
11
145.25
21
-174.75
0
LINE
8
0
10
145.25
20
-174.75
11
145.25
21
-191.25
0
LINE
8
0
10
145.25
20
-174.25
11
162.75
21
-174.25
0
LINE
8
0
10
162.75
20
-174.25
11
162.75
21
-157.75
0
LINE
8
0
10
162.75
20
-157.75
11
145.25
21
-157.75
0
LINE
8
0
10
145.25
20
-157.75
11
145.25
21
-174.25
0
LINE
8
0
10
145.25
20
-157.25
11
162.75
21
-157.25
0
LINE
8
0
10
162.75
20
-157.25
11
162.75
21
-140.75
0
LINE
8
0
10
162.75
20
-140.75
11
145.25
21
-140.75
0
LINE
8
0
10
145.25
20
-140.75
11
145.25
21
-157.25
0
LINE
8
0
10
145.25
20
-140.25
11
162.75
21
-140.25
0
LINE
8
0
10
162.75
20
-140.25
11
162.75
21
-123.75
0
LINE
8
0
10
162.75
20
-123.75
11
145.25
21
-123.75
0
LINE
8
0
10
145.25
20
-123.75
11
145.25
21
-140.25
0
LINE
8
0
10
145.25
20
-123.25
11
162.75
21
-123.25
0
LINE
8
0
10
162.75
20
-123.25
11
162.75
21
-106.75
0
LINE
8
0
10
162.75
20
-106.75
11
145.25
21
-106.75
0
LINE
8
0
10
145.25
20
-106.75
11
145.25
21
-123.25
0
LINE
8
0
10
163.25
20
-208.25
11
180.75
21
-208.25
0
LINE
8
0
10
180.75
20
-208.25
11
180.75
21
-191.75
0
LINE
8
0
10
180.75
20
-191.75
11
163.25
21
-191.75
0
LINE
8
0
10
163.25
20
-191.75
11
163.25
21
-208.25
0
LINE
8
0
10
163.25
20
-191.25
11
180.75
21
-191.25
0
LINE
8
0
10
180.75
20
-191.25
11
180.75
21
-174.75
0
LINE
8
0
10
180.75
20
-174.75
11
163.25
21
-174.75
0
LINE
8
0
10
163.25
20
-174.75
11
163.25
21
-191.25
0
LINE
8
0
10
163.25
20
-174.25
11
180.75
21
-174.25
0
LINE
8
0
10
180.75
20
-174.25
11
180.75
21
-157.75
0
LINE
8
0
10
180.75
20
-157.75
11
163.25
21
-157.75
0
LINE
8
0
10
163.25
20
-157.75
11
163.25
21
-174.25
0
LINE
8
0
10
163.25
20
-157.25
11
180.75
21
-157.25
0
LINE
8
0
10
180.75
20
-157.25
11
180.75
21
-140.75
0
LINE
8
0
10
180.75
20
-140.75
11
163.25
21
-140.75
0
LINE
8
0
10
163.25
20
-140.75
11
163.25
21
-157.25
0
LINE
8
0
10
163.25
20
-140.25
11
180.75
21
-140.25
0
LINE
8
0
10
180.75
20
-140.25
11
180.75
21
-123.75
0
LINE
8
0
10
180.75
20
-123.75
11
163.25
21
-123.75
0
LINE
8
0
10
163.25
20
-123.75
11
163.25
21
-140.25
0
LINE
8
0
10
163.25
20
-123.25
11
180.75
21
-123.25
0
LINE
8
0
10
180.75
20
-123.25
11
180.75
21
-106.75
0
LINE
8
0
10
180.75
20
-106.75
11
163.25
21
-106.75
0
LINE
8
0
10
163.25
20
-106.75
11
163.25
21
-123.25
0
LINE
8
0
10
181.25
20
-208.25
11
198.75
21
-208.25
0
LINE
8
0
10
198.75
20
-208.25
11
198.75
21
-191.75
0
LINE
8
0
10
198.75
20
-191.75
11
181.25
21
-191.75
0
LINE
8
0
10
181.25
20
-191.75
11
181.25
21
-208.25
0
LINE
8
0
10
181.25
20
-191.25
11
198.75
21
-191.25
0
LINE
8
0
10
198.75
20
-191.25
11
198.75
21
-174.75
0
LINE
8
0
10
198.75
20
-174.75
11
181.25
21
-174.75
0
LINE
8
0
10
181.25
20
-174.75
11
181.25
21
-191.25
0
LINE
8
0
10
181.25
20
-174.25
11
198.75
21
-174.25
0
LINE
8
0
10
198.75
20
-174.25
11
198.75
21
-157.75
0
LINE
8
0
10
198.75
20
-157.75
11
181.25
21
-157.75
0
LINE
8
0
10
181.25
20
-157.75
11
181.25
21
-174.25
0
LINE
8
0
10
181.25
20
-157.25
11
198.75
21
-157.25
0
LINE
8
0
10
198.75
20
-157.25
11
198.75
21
-140.75
0
LINE
8
0
10
198.75
20
-140.75
11
181.25
21
-140.75
0
LINE
8
0
10
181.25
20
-140.75
11
181.25
21
-157.25
0
LINE
8
0
10
181.25
20
-140.25
11
198.75
21
-140.25
0
LINE
8
0
10
198.75
20
-140.25
11
198.75
21
-123.75
0
LINE
8
0
10
198.75
20
-123.75
11
181.25
21
-123.75
0
LINE
8
0
10
181.25
20
-123.75
11
181.25
21
-140.25
0
LINE
8
0
10
181.25
20
-123.25
11
198.75
21
-123.25
0
LINE
8
0
10
198.75
20
-123.25
11
198.75
21
-106.75
0
LINE
8
0
10
198.75
20
-106.75
11
181.25
21
-106.75
0
LINE
8
0
10
181.25
20
-106.75
11
181.25
21
-123.25
0
LINE
8
0
10
199.25
20
-208.25
11
216.75
21
-208.25
0
LINE
8
0
10
216.75
20
-208.25
11
216.75
21
-191.75
0
LINE
8
0
10
216.75
20
-191.75
11
199.25
21
-191.75
0
LINE
8
0
10
199.25
20
-191.75
11
199.25
21
-208.25
0
LINE
8
0
10
199.25
20
-191.25
11
216.75
21
-191.25
0
LINE
8
0
10
216.75
20
-191.25
11
216.75
21
-174.75
0
LINE
8
0
10
216.75
20
-174.75
11
199.25
21
-174.75
0
LINE
8
0
10
199.25
20
-174.75
11
199.25
21
-191.25
0
LINE
8
0
10
199.25
20
-174.25
11
216.75
21
-174.25
0
LINE
8
0
10
216.75
20
-174.25
11
216.75
21
-157.75
0
LINE
8
0
10
216.75
20
-157.75
11
199.25
21
-157.75
0
LINE
8
0
10
199.25
20
-157.75
11
199.25
21
-174.25
0
LINE
8
0
10
199.25
20
-157.25
11
216.75
21
-157.25
0
LINE
8
0
10
216.75
20
-157.25
11
216.75
21
-140.75
0
LINE
8
0
10
216.75
20
-140.75
11
199.25
21
-140.75
0
LINE
8
0
10
199.25
20
-140.75
11
199.25
21
-157.25
0
LINE
8
0
10
199.25
20
-140.25
11
216.75
21
-140.25
0
LINE
8
0
10
216.75
20
-140.25
11
216.75
21
-123.75
0
LINE
8
0
10
216.75
20
-123.75
11
199.25
21
-123.75
0
LINE
8
0
10
199.25
20
-123.75
11
199.25
21
-140.25
0
LINE
8
0
10
199.25
20
-123.25
11
216.75
21
-123.25
0
LINE
8
0
10
216.75
20
-123.25
11
216.75
21
-106.75
0
LINE
8
0
10
216.75
20
-106.75
11
199.25
21
-106.75
0
LINE
8
0
10
199.25
20
-106.75
11
199.25
21
-123.25
0
LINE
8
0
10
247.25
20
-208.25
11
264.75
21
-208.25
0
LINE
8
0
10
264.75
20
-208.25
11
264.75
21
-191.75
0
LINE
8
0
10
264.75
20
-191.75
11
247.25
21
-191.75
0
LINE
8
0
10
247.25
20
-191.75
11
247.25
21
-208.25
0
LINE
8
0
10
247.25
20
-191.25
11
264.75
21
-191.25
0
LINE
8
0
10
264.75
20
-191.25
11
264.75
21
-174.75
0
LINE
8
0
10
264.75
20
-174.75
11
247.25
21
-174.75
0
LINE
8
0
10
247.25
20
-174.75
11
247.25
21
-191.25
0
LINE
8
0
10
247.25
20
-174.25
11
264.75
21
-174.25
0
LINE
8
0
10
264.75
20
-174.25
11
264.75
21
-157.75
0
LINE
8
0
10
264.75
20
-157.75
11
247.25
21
-157.75
0
LINE
8
0
10
247.25
20
-157.75
11
247.25
21
-174.25
0
LINE
8
0
10
247.25
20
-157.25
11
264.75
21
-157.25
0
LINE
8
0
10
264.75
20
-157.25
11
264.75
21
-140.75
0
LINE
8
0
10
264.75
20
-140.75
11
247.25
21
-140.75
0
LINE
8
0
10
247.25
20
-140.75
11
247.25
21
-157.25
0
LINE
8
0
10
265.25
20
-208.25
11
282.75
21
-208.25
0
LINE
8
0
10
282.75
20
-208.25
11
282.75
21
-191.75
0
LINE
8
0
10
282.75
20
-191.75
11
265.25
21
-191.75
0
LINE
8
0
10
265.25
20
-191.75
11
265.25
21
-208.25
0
LINE
8
0
10
265.25
20
-191.25
11
282.75
21
-191.25
0
LINE
8
0
10
282.75
20
-191.25
11
282.75
21
-174.75
0
LINE
8
0
10
282.75
20
-174.75
11
265.25
21
-174.75
0
LINE
8
0
10
265.25
20
-174.75
11
265.25
21
-191.25
0
LINE
8
0
10
265.25
20
-174.25
11
282.75
21
-174.25
0
LINE
8
0
10
282.75
20
-174.25
11
282.75
21
-157.75
0
LINE
8
0
10
282.75
20
-157.75
11
265.25
21
-157.75
0
LINE
8
0
10
265.25
20
-157.75
11
265.25
21
-174.25
0
LINE
8
0
10
265.25
20
-157.25
11
282.75
21
-157.25
0
LINE
8
0
10
282.75
20
-157.25
11
282.75
21
-140.75
0
LINE
8
0
10
282.75
20
-140.75
11
265.25
21
-140.75
0
LINE
8
0
10
265.25
20
-140.75
11
265.25
21
-157.25
0
LINE
8
0
10
283.25
20
-208.25
11
300.75
21
-208.25
0
LINE
8
0
10
300.75
20
-208.25
11
300.75
21
-191.75
0
LINE
8
0
10
300.75
20
-191.75
11
283.25
21
-191.75
0
LINE
8
0
10
283.25
20
-191.75
11
283.25
21
-208.25
0
LINE
8
0
10
283.25
20
-191.25
11
300.75
21
-191.25
0
LINE
8
0
10
300.75
20
-191.25
11
300.75
21
-174.75
0
LINE
8
0
10
300.75
20
-174.75
11
283.25
21
-174.75
0
LINE
8
0
10
283.25
20
-174.75
11
283.25
21
-191.25
0
LINE
8
0
10
283.25
20
-174.25
11
300.75
21
-174.25
0
LINE
8
0
10
300.75
20
-174.25
11
300.75
21
-157.75
0
LINE
8
0
10
300.75
20
-157.75
11
283.25
21
-157.75
0
LINE
8
0
10
283.25
20
-157.75
11
283.25
21
-174.25
0
LINE
8
0
10
283.25
20
-157.25
11
300.75
21
-157.25
0
LINE
8
0
10
300.75
20
-157.25
11
300.75
21
-140.75
0
LINE
8
0
10
300.75
20
-140.75
11
283.25
21
-140.75
0
LINE
8
0
10
283.25
20
-140.75
11
283.25
21
-157.25
0
LINE
8
0
10
301.25
20
-191.25
11
318.75
21
-191.25
0
LINE
8
0
10
318.75
20
-191.25
11
318.75
21
-174.75
0
LINE
8
0
10
318.75
20
-174.75
11
301.25
21
-174.75
0
LINE
8
0
10
301.25
20
-174.75
11
301.25
21
-191.25
0
LINE
8
0
10
301.25
20
-174.25
11
318.75
21
-174.25
0
LINE
8
0
10
318.75
20
-174.25
11
318.75
21
-157.75
0
LINE
8
0
10
318.75
20
-157.75
11
301.25
21
-157.75
0
LINE
8
0
10
301.25
20
-157.75
11
301.25
21
-174.25
0
LINE
8
0
10
301.25
20
-157.25
11
318.75
21
-157.25
0
LINE
8
0
10
318.75
20
-157.25
11
318.75
21
-140.75
0
LINE
8
0
10
318.75
20
-140.75
11
301.25
21
-140.75
0
LINE
8
0
10
301.25
20
-140.75
11
301.25
21
-157.25
0
LINE
8
0
10
319.25
20
-191.25
11
336.75
21
-191.25
0
LINE
8
0
10
336.75
20
-191.25
11
336.75
21
-174.75
0
LINE
8
0
10
336.75
20
-174.75
11
319.25
21
-174.75
0
LINE
8
0
10
319.25
20
-174.75
11
319.25
21
-191.25
0
LINE
8
0
10
319.25
20
-174.25
11
336.75
21
-174.25
0
LINE
8
0
10
336.75
20
-174.25
11
336.75
21
-157.75
0
LINE
8
0
10
336.75
20
-157.75
11
319.25
21
-157.75
0
LINE
8
0
10
319.25
20
-157.75
11
319.25
21
-174.25
0
LINE
8
0
10
319.25
20
-157.25
11
336.75
21
-157.25
0
LINE
8
0
10
336.75
20
-157.25
11
336.75
21
-140.75
0
LINE
8
0
10
336.75
20
-140.75
11
319.25
21
-140.75
0
LINE
8
0
10
319.25
20
-140.75
11
319.25
21
-157.25
0
ENDSEC
0
EOF