M48
; DRILL file {KiCad 8.0.2} date 2024-06-03T01:18:50-0400
; FORMAT={-:-/ absolute / inch / decimal}
; #@! TF.CreationDate,2024-06-03T01:18:50-04:00
; #@! TF.GenerationSoftware,Kicad,Pcbnew,8.0.2
; #@! TF.FileFunction,Plated,1,2,PTH
FMAT,2
INCH
; #@! TA.AperFunction,Plated,PTH,ViaDrill
T1C0.0118
; #@! TA.AperFunction,Plated,PTH,ComponentDrill
T2C0.0157
; #@! TA.AperFunction,Plated,PTH,ComponentDrill
T3C0.0390
; #@! TA.AperFunction,Plated,PTH,ComponentDrill
T4C0.0430
; #@! TA.AperFunction,Plated,PTH,ComponentDrill
T5C0.0866
%
G90
G05
T1
X3.8741Y-4.1961
X4.5444Y-4.2211
X5.4382Y-4.6397
X6.0707Y-4.665
T2
X3.872Y-7.8346
X3.8911Y-7.7887
X3.8911Y-7.8806
X3.937Y-7.7697
X3.937Y-7.8996
X3.9829Y-7.7887
X3.9829Y-7.8806
X4.002Y-7.8346
X4.187Y-4.8425
X4.206Y-4.7966
X4.206Y-4.8885
X4.252Y-4.7776
X4.252Y-4.9075
X4.2979Y-4.7966
X4.2979Y-4.8885
X4.3169Y-4.8425
X7.8091Y-4.8425
X7.8281Y-4.7966
X7.8281Y-4.8885
X7.874Y-4.7776
X7.874Y-4.9075
X7.9199Y-4.7966
X7.9199Y-4.8885
X7.939Y-4.8425
X8.5965Y-7.874
X8.6155Y-7.8281
X8.6155Y-7.9199
X8.6614Y-7.8091
X8.6614Y-7.939
X8.7074Y-7.8281
X8.7074Y-7.9199
X8.7264Y-7.874
X10.3287Y-6.1811
X10.3478Y-6.1352
X10.3478Y-6.227
X10.3937Y-6.1161
X10.3937Y-6.2461
X10.4396Y-6.1352
X10.4396Y-6.227
X10.4587Y-6.1811
X12.5335Y-6.1811
X12.5525Y-6.1352
X12.5525Y-6.227
X12.5984Y-6.1161
X12.5984Y-6.2461
X12.6444Y-6.1352
X12.6444Y-6.227
X12.6634Y-6.1811
X12.8484Y-7.8346
X12.8675Y-7.7887
X12.8675Y-7.8806
X12.9134Y-7.7697
X12.9134Y-7.8996
X12.9593Y-7.7887
X12.9593Y-7.8806
X12.9783Y-7.8346
T3
X3.787Y-4.7244
X3.787Y-5.3937
X3.787Y-6.063
X3.787Y-6.7323
X3.787Y-7.4016
X4.087Y-4.7244
X4.087Y-5.3937
X4.087Y-6.063
X4.087Y-6.7323
X4.087Y-7.4016
X4.4957Y-4.7244
X4.4957Y-5.3937
X4.4957Y-6.063
X4.4957Y-6.7323
X4.4957Y-7.4016
X4.7957Y-4.7244
X4.7957Y-5.3937
X4.7957Y-6.063
X4.7957Y-6.7323
X4.7957Y-7.4016
X5.2043Y-4.7244
X5.2043Y-5.3937
X5.2043Y-6.063
X5.2043Y-6.7323
X5.2043Y-7.4016
X5.5043Y-4.7244
X5.5043Y-5.3937
X5.5043Y-6.063
X5.5043Y-6.7323
X5.5043Y-7.4016
X5.913Y-4.7244
X5.913Y-5.3937
X5.913Y-6.063
X5.913Y-6.7323
X5.913Y-7.4016
X6.213Y-4.7244
X6.213Y-5.3937
X6.213Y-6.063
X6.213Y-6.7323
X6.213Y-7.4016
X6.6217Y-4.7244
X6.6217Y-5.3937
X6.6217Y-6.063
X6.6217Y-6.7323
X6.6217Y-7.4016
X6.6217Y-8.0709
X6.9217Y-4.7244
X6.9217Y-5.3937
X6.9217Y-6.063
X6.9217Y-6.7323
X6.9217Y-7.4016
X6.9217Y-8.0709
X7.3303Y-4.7244
X7.3303Y-5.3937
X7.3303Y-6.063
X7.3303Y-6.7323
X7.3303Y-7.4016
X7.3303Y-8.0709
X7.6303Y-4.7244
X7.6303Y-5.3937
X7.6303Y-6.063
X7.6303Y-6.7323
X7.6303Y-7.4016
X7.6303Y-8.0709
X8.039Y-4.7244
X8.039Y-5.3937
X8.039Y-6.063
X8.039Y-6.7323
X8.039Y-7.4016
X8.039Y-8.0709
X8.339Y-4.7244
X8.339Y-5.3937
X8.339Y-6.063
X8.339Y-6.7323
X8.339Y-7.4016
X8.339Y-8.0709
X9.9287Y-6.063
X9.9287Y-6.7323
X9.9287Y-7.4016
X9.9287Y-8.0709
X10.2287Y-6.063
X10.2287Y-6.7323
X10.2287Y-7.4016
X10.2287Y-8.0709
X10.6374Y-6.063
X10.6374Y-6.7323
X10.6374Y-7.4016
X10.6374Y-8.0709
X10.9374Y-6.063
X10.9374Y-6.7323
X10.9374Y-7.4016
X10.9374Y-8.0709
X11.3461Y-6.063
X11.3461Y-6.7323
X11.3461Y-7.4016
X11.3461Y-8.0709
X11.6461Y-6.063
X11.6461Y-6.7323
X11.6461Y-7.4016
X11.6461Y-8.0709
X12.0547Y-6.063
X12.0547Y-6.7323
X12.0547Y-7.4016
X12.3547Y-6.063
X12.3547Y-6.7323
X12.3547Y-7.4016
X12.7634Y-6.063
X12.7634Y-6.7323
X12.7634Y-7.4016
X13.0634Y-6.063
X13.0634Y-6.7323
X13.0634Y-7.4016
T4
X8.7551Y-4.2728
X8.7551Y-4.3728
X8.7551Y-4.4728
X8.7551Y-4.5728
X8.7551Y-4.6728
X8.7551Y-4.7728
X8.7551Y-4.8728
X8.7551Y-4.9728
X8.7551Y-5.0728
X8.7551Y-5.1728
X8.7551Y-5.2728
X8.7551Y-5.3728
X9.3551Y-4.2728
X9.3551Y-4.3728
X9.3551Y-4.4728
X9.3551Y-4.5728
X9.3551Y-4.6728
X9.3551Y-4.7728
X9.3551Y-4.8728
X9.3551Y-4.9728
X9.3551Y-5.0728
X9.3551Y-5.1728
X9.3551Y-5.2728
X9.3551Y-5.3728
T5
X3.937Y-7.8346
X4.252Y-4.8425
X7.874Y-4.8425
X8.6614Y-7.874
X10.3937Y-6.1811
X12.5984Y-6.1811
X12.9134Y-7.8346
M30
