%TF.GenerationSoftware,KiCad,Pcbnew,8.0.2*%
%TF.CreationDate,2024-06-03T01:18:46-04:00*%
%TF.ProjectId,unisplitchoc,756e6973-706c-4697-9463-686f632e6b69,v1.0.0*%
%TF.SameCoordinates,Original*%
%TF.FileFunction,Paste,Bot*%
%TF.FilePolarity,Positive*%
%FSLAX46Y46*%
G04 Gerber Fmt 4.6, Leading zero omitted, Abs format (unit mm)*
G04 Created by KiCad (PCBNEW 8.0.2) date 2024-06-03 01:18:46*
%MOMM*%
%LPD*%
G01*
G04 APERTURE LIST*
%ADD10R,2.600000X2.600000*%
%ADD11R,0.900000X1.200000*%
%ADD12R,1.100000X1.800000*%
G04 APERTURE END LIST*
D10*
%TO.C,S45*%
X270725000Y-160050000D03*
X282275000Y-162250000D03*
%TD*%
D11*
%TO.C,D52*%
X308350000Y-171000000D03*
X311650000Y-171000000D03*
%TD*%
%TO.C,D8*%
X116350000Y-154000000D03*
X119650000Y-154000000D03*
%TD*%
%TO.C,D20*%
X152350000Y-120000000D03*
X155650000Y-120000000D03*
%TD*%
%TO.C,D36*%
X206350000Y-154000000D03*
X209650000Y-154000000D03*
%TD*%
D10*
%TO.C,S50*%
X288725000Y-143050000D03*
X300275000Y-145250000D03*
%TD*%
%TO.C,S20*%
X150725000Y-109050000D03*
X162275000Y-111250000D03*
%TD*%
D11*
%TO.C,D16*%
X152350000Y-188000000D03*
X155650000Y-188000000D03*
%TD*%
D10*
%TO.C,S3*%
X96725000Y-143050000D03*
X108275000Y-145250000D03*
%TD*%
%TO.C,S25*%
X168725000Y-126050000D03*
X180275000Y-128250000D03*
%TD*%
D11*
%TO.C,D27*%
X188350000Y-205000000D03*
X191650000Y-205000000D03*
%TD*%
D10*
%TO.C,S55*%
X324725000Y-160050000D03*
X336275000Y-162250000D03*
%TD*%
%TO.C,S42*%
X252725000Y-143050000D03*
X264275000Y-145250000D03*
%TD*%
%TO.C,S11*%
X132725000Y-177050000D03*
X144275000Y-179250000D03*
%TD*%
D11*
%TO.C,D49*%
X290350000Y-171000000D03*
X293650000Y-171000000D03*
%TD*%
%TO.C,D5*%
X98350000Y-120000000D03*
X101650000Y-120000000D03*
%TD*%
%TO.C,D21*%
X170350000Y-205000000D03*
X173650000Y-205000000D03*
%TD*%
%TO.C,D30*%
X188350000Y-154000000D03*
X191650000Y-154000000D03*
%TD*%
%TO.C,D45*%
X272350000Y-171000000D03*
X275650000Y-171000000D03*
%TD*%
%TO.C,D11*%
X134350000Y-188000000D03*
X137650000Y-188000000D03*
%TD*%
%TO.C,D18*%
X152350000Y-154000000D03*
X155650000Y-154000000D03*
%TD*%
D10*
%TO.C,S30*%
X186725000Y-143050000D03*
X198275000Y-145250000D03*
%TD*%
%TO.C,S39*%
X252725000Y-194050000D03*
X264275000Y-196250000D03*
%TD*%
%TO.C,S52*%
X306725000Y-160050000D03*
X318275000Y-162250000D03*
%TD*%
D11*
%TO.C,D14*%
X134350000Y-137000000D03*
X137650000Y-137000000D03*
%TD*%
D10*
%TO.C,S16*%
X150725000Y-177050000D03*
X162275000Y-179250000D03*
%TD*%
D11*
%TO.C,D17*%
X152350000Y-171000000D03*
X155650000Y-171000000D03*
%TD*%
%TO.C,D28*%
X188350000Y-188000000D03*
X191650000Y-188000000D03*
%TD*%
%TO.C,D19*%
X152350000Y-137000000D03*
X155650000Y-137000000D03*
%TD*%
D10*
%TO.C,S23*%
X168725000Y-160050000D03*
X180275000Y-162250000D03*
%TD*%
D11*
%TO.C,D54*%
X326350000Y-188000000D03*
X329650000Y-188000000D03*
%TD*%
D10*
%TO.C,S33*%
X204725000Y-194050000D03*
X216275000Y-196250000D03*
%TD*%
D11*
%TO.C,D39*%
X254350000Y-205000000D03*
X257650000Y-205000000D03*
%TD*%
D10*
%TO.C,S51*%
X306725000Y-177050000D03*
X318275000Y-179250000D03*
%TD*%
%TO.C,S18*%
X150725000Y-143050000D03*
X162275000Y-145250000D03*
%TD*%
%TO.C,S26*%
X168725000Y-109050000D03*
X180275000Y-111250000D03*
%TD*%
%TO.C,S7*%
X114725000Y-160050000D03*
X126275000Y-162250000D03*
%TD*%
D11*
%TO.C,D47*%
X290350000Y-205000000D03*
X293650000Y-205000000D03*
%TD*%
D10*
%TO.C,S10*%
X114725000Y-109050000D03*
X126275000Y-111250000D03*
%TD*%
%TO.C,S37*%
X204725000Y-126050000D03*
X216275000Y-128250000D03*
%TD*%
D11*
%TO.C,D26*%
X170350000Y-120000000D03*
X173650000Y-120000000D03*
%TD*%
D10*
%TO.C,S1*%
X96725000Y-177050000D03*
X108275000Y-179250000D03*
%TD*%
%TO.C,S47*%
X288725000Y-194050000D03*
X300275000Y-196250000D03*
%TD*%
%TO.C,S4*%
X96725000Y-126050000D03*
X108275000Y-128250000D03*
%TD*%
D11*
%TO.C,D38*%
X206350000Y-120000000D03*
X209650000Y-120000000D03*
%TD*%
D10*
%TO.C,S48*%
X288725000Y-177050000D03*
X300275000Y-179250000D03*
%TD*%
D11*
%TO.C,D24*%
X170350000Y-154000000D03*
X173650000Y-154000000D03*
%TD*%
%TO.C,D34*%
X206350000Y-188000000D03*
X209650000Y-188000000D03*
%TD*%
%TO.C,D51*%
X308350000Y-188000000D03*
X311650000Y-188000000D03*
%TD*%
%TO.C,D4*%
X98350000Y-137000000D03*
X101650000Y-137000000D03*
%TD*%
D10*
%TO.C,S29*%
X186725000Y-160050000D03*
X198275000Y-162250000D03*
%TD*%
D11*
%TO.C,D31*%
X188350000Y-137000000D03*
X191650000Y-137000000D03*
%TD*%
%TO.C,D15*%
X134350000Y-120000000D03*
X137650000Y-120000000D03*
%TD*%
%TO.C,D13*%
X134350000Y-154000000D03*
X137650000Y-154000000D03*
%TD*%
%TO.C,D50*%
X290350000Y-154000000D03*
X293650000Y-154000000D03*
%TD*%
D10*
%TO.C,S49*%
X288725000Y-160050000D03*
X300275000Y-162250000D03*
%TD*%
D11*
%TO.C,D33*%
X206350000Y-205000000D03*
X209650000Y-205000000D03*
%TD*%
%TO.C,D40*%
X254350000Y-188000000D03*
X257650000Y-188000000D03*
%TD*%
D10*
%TO.C,S5*%
X96725000Y-109050000D03*
X108275000Y-111250000D03*
%TD*%
D11*
%TO.C,D9*%
X116350000Y-137000000D03*
X119650000Y-137000000D03*
%TD*%
D10*
%TO.C,S53*%
X306725000Y-143050000D03*
X318275000Y-145250000D03*
%TD*%
D11*
%TO.C,D43*%
X272350000Y-205000000D03*
X275650000Y-205000000D03*
%TD*%
%TO.C,D32*%
X188350000Y-120000000D03*
X191650000Y-120000000D03*
%TD*%
%TO.C,D44*%
X272350000Y-188000000D03*
X275650000Y-188000000D03*
%TD*%
D10*
%TO.C,S32*%
X186725000Y-109050000D03*
X198275000Y-111250000D03*
%TD*%
%TO.C,S56*%
X324725000Y-143050000D03*
X336275000Y-145250000D03*
%TD*%
%TO.C,S38*%
X204725000Y-109050000D03*
X216275000Y-111250000D03*
%TD*%
%TO.C,S46*%
X270725000Y-143050000D03*
X282275000Y-145250000D03*
%TD*%
D11*
%TO.C,D42*%
X254350000Y-154000000D03*
X257650000Y-154000000D03*
%TD*%
%TO.C,D7*%
X116350000Y-171000000D03*
X119650000Y-171000000D03*
%TD*%
%TO.C,D25*%
X170350000Y-137000000D03*
X173650000Y-137000000D03*
%TD*%
%TO.C,D3*%
X98350000Y-154000000D03*
X101650000Y-154000000D03*
%TD*%
D10*
%TO.C,S22*%
X168725000Y-177050000D03*
X180275000Y-179250000D03*
%TD*%
%TO.C,S43*%
X270725000Y-194050000D03*
X282275000Y-196250000D03*
%TD*%
%TO.C,S21*%
X168725000Y-194050000D03*
X180275000Y-196250000D03*
%TD*%
%TO.C,S15*%
X132725000Y-109050000D03*
X144275000Y-111250000D03*
%TD*%
D11*
%TO.C,D23*%
X170350000Y-171000000D03*
X173650000Y-171000000D03*
%TD*%
%TO.C,D10*%
X116350000Y-120000000D03*
X119650000Y-120000000D03*
%TD*%
%TO.C,D2*%
X98350000Y-171000000D03*
X101650000Y-171000000D03*
%TD*%
%TO.C,D22*%
X170350000Y-188000000D03*
X173650000Y-188000000D03*
%TD*%
D10*
%TO.C,S31*%
X186725000Y-126050000D03*
X198275000Y-128250000D03*
%TD*%
D11*
%TO.C,D6*%
X116350000Y-188000000D03*
X119650000Y-188000000D03*
%TD*%
D10*
%TO.C,S40*%
X252725000Y-177050000D03*
X264275000Y-179250000D03*
%TD*%
%TO.C,S27*%
X186725000Y-194050000D03*
X198275000Y-196250000D03*
%TD*%
%TO.C,S14*%
X132725000Y-126050000D03*
X144275000Y-128250000D03*
%TD*%
%TO.C,S12*%
X132725000Y-160050000D03*
X144275000Y-162250000D03*
%TD*%
%TO.C,S44*%
X270725000Y-177050000D03*
X282275000Y-179250000D03*
%TD*%
%TO.C,S9*%
X114725000Y-126050000D03*
X126275000Y-128250000D03*
%TD*%
D11*
%TO.C,D29*%
X188350000Y-171000000D03*
X191650000Y-171000000D03*
%TD*%
%TO.C,D41*%
X254350000Y-171000000D03*
X257650000Y-171000000D03*
%TD*%
D10*
%TO.C,S24*%
X168725000Y-143050000D03*
X180275000Y-145250000D03*
%TD*%
%TO.C,S17*%
X150725000Y-160050000D03*
X162275000Y-162250000D03*
%TD*%
%TO.C,S36*%
X204725000Y-143050000D03*
X216275000Y-145250000D03*
%TD*%
D11*
%TO.C,D48*%
X290350000Y-188000000D03*
X293650000Y-188000000D03*
%TD*%
D10*
%TO.C,S13*%
X132725000Y-143050000D03*
X144275000Y-145250000D03*
%TD*%
%TO.C,S34*%
X204725000Y-177050000D03*
X216275000Y-179250000D03*
%TD*%
%TO.C,S54*%
X324725000Y-177050000D03*
X336275000Y-179250000D03*
%TD*%
D11*
%TO.C,D1*%
X98350000Y-188000000D03*
X101650000Y-188000000D03*
%TD*%
D10*
%TO.C,S35*%
X204725000Y-160050000D03*
X216275000Y-162250000D03*
%TD*%
%TO.C,S6*%
X114725000Y-177050000D03*
X126275000Y-179250000D03*
%TD*%
%TO.C,S2*%
X96725000Y-160050000D03*
X108275000Y-162250000D03*
%TD*%
D11*
%TO.C,D55*%
X326350000Y-171000000D03*
X329650000Y-171000000D03*
%TD*%
%TO.C,D46*%
X272350000Y-154000000D03*
X275650000Y-154000000D03*
%TD*%
D10*
%TO.C,S41*%
X252725000Y-160050000D03*
X264275000Y-162250000D03*
%TD*%
D11*
%TO.C,D53*%
X308350000Y-154000000D03*
X311650000Y-154000000D03*
%TD*%
D10*
%TO.C,S28*%
X186725000Y-177050000D03*
X198275000Y-179250000D03*
%TD*%
%TO.C,S19*%
X150725000Y-126050000D03*
X162275000Y-128250000D03*
%TD*%
D11*
%TO.C,D37*%
X206350000Y-137000000D03*
X209650000Y-137000000D03*
%TD*%
D10*
%TO.C,S8*%
X114725000Y-143050000D03*
X126275000Y-145250000D03*
%TD*%
D11*
%TO.C,D12*%
X134350000Y-171000000D03*
X137650000Y-171000000D03*
%TD*%
%TO.C,D35*%
X206350000Y-171000000D03*
X209650000Y-171000000D03*
%TD*%
%TO.C,D56*%
X326350000Y-154000000D03*
X329650000Y-154000000D03*
%TD*%
D12*
%TO.C,B1*%
X228150000Y-147900000D03*
X228150000Y-154100000D03*
X231850000Y-147900000D03*
X231850000Y-154100000D03*
%TD*%
M02*
