%TF.GenerationSoftware,KiCad,Pcbnew,8.0.2*%
%TF.CreationDate,2024-06-03T01:18:46-04:00*%
%TF.ProjectId,unisplitchoc,756e6973-706c-4697-9463-686f632e6b69,v1.0.0*%
%TF.SameCoordinates,Original*%
%TF.FileFunction,Legend,Bot*%
%TF.FilePolarity,Positive*%
%FSLAX46Y46*%
G04 Gerber Fmt 4.6, Leading zero omitted, Abs format (unit mm)*
G04 Created by KiCad (PCBNEW 8.0.2) date 2024-06-03 01:18:46*
%MOMM*%
%LPD*%
G01*
G04 APERTURE LIST*
%ADD10C,0.100000*%
%ADD11C,0.150000*%
%ADD12R,1.752600X1.752600*%
%ADD13C,1.752600*%
G04 APERTURE END LIST*
D10*
%TO.C,D52*%
X309250000Y-171000000D02*
X309650000Y-171000000D01*
X309650000Y-171000000D02*
X309650000Y-170450000D01*
X309650000Y-171000000D02*
X309650000Y-171550000D01*
X309650000Y-171000000D02*
X310250000Y-170600000D01*
X310250000Y-170600000D02*
X310250000Y-171400000D01*
X310250000Y-171000000D02*
X310750000Y-171000000D01*
X310250000Y-171400000D02*
X309650000Y-171000000D01*
%TO.C,D8*%
X117250000Y-154000000D02*
X117650000Y-154000000D01*
X117650000Y-154000000D02*
X117650000Y-153450000D01*
X117650000Y-154000000D02*
X117650000Y-154550000D01*
X117650000Y-154000000D02*
X118250000Y-153600000D01*
X118250000Y-153600000D02*
X118250000Y-154400000D01*
X118250000Y-154000000D02*
X118750000Y-154000000D01*
X118250000Y-154400000D02*
X117650000Y-154000000D01*
%TO.C,D20*%
X153250000Y-120000000D02*
X153650000Y-120000000D01*
X153650000Y-120000000D02*
X153650000Y-119450000D01*
X153650000Y-120000000D02*
X153650000Y-120550000D01*
X153650000Y-120000000D02*
X154250000Y-119600000D01*
X154250000Y-119600000D02*
X154250000Y-120400000D01*
X154250000Y-120000000D02*
X154750000Y-120000000D01*
X154250000Y-120400000D02*
X153650000Y-120000000D01*
%TO.C,D36*%
X207250000Y-154000000D02*
X207650000Y-154000000D01*
X207650000Y-154000000D02*
X207650000Y-153450000D01*
X207650000Y-154000000D02*
X207650000Y-154550000D01*
X207650000Y-154000000D02*
X208250000Y-153600000D01*
X208250000Y-153600000D02*
X208250000Y-154400000D01*
X208250000Y-154000000D02*
X208750000Y-154000000D01*
X208250000Y-154400000D02*
X207650000Y-154000000D01*
%TO.C,D16*%
X153250000Y-188000000D02*
X153650000Y-188000000D01*
X153650000Y-188000000D02*
X153650000Y-187450000D01*
X153650000Y-188000000D02*
X153650000Y-188550000D01*
X153650000Y-188000000D02*
X154250000Y-187600000D01*
X154250000Y-187600000D02*
X154250000Y-188400000D01*
X154250000Y-188000000D02*
X154750000Y-188000000D01*
X154250000Y-188400000D02*
X153650000Y-188000000D01*
%TO.C,D27*%
X189250000Y-205000000D02*
X189650000Y-205000000D01*
X189650000Y-205000000D02*
X189650000Y-204450000D01*
X189650000Y-205000000D02*
X189650000Y-205550000D01*
X189650000Y-205000000D02*
X190250000Y-204600000D01*
X190250000Y-204600000D02*
X190250000Y-205400000D01*
X190250000Y-205000000D02*
X190750000Y-205000000D01*
X190250000Y-205400000D02*
X189650000Y-205000000D01*
%TO.C,D49*%
X291250000Y-171000000D02*
X291650000Y-171000000D01*
X291650000Y-171000000D02*
X291650000Y-170450000D01*
X291650000Y-171000000D02*
X291650000Y-171550000D01*
X291650000Y-171000000D02*
X292250000Y-170600000D01*
X292250000Y-170600000D02*
X292250000Y-171400000D01*
X292250000Y-171000000D02*
X292750000Y-171000000D01*
X292250000Y-171400000D02*
X291650000Y-171000000D01*
%TO.C,D5*%
X99250000Y-120000000D02*
X99650000Y-120000000D01*
X99650000Y-120000000D02*
X99650000Y-119450000D01*
X99650000Y-120000000D02*
X99650000Y-120550000D01*
X99650000Y-120000000D02*
X100250000Y-119600000D01*
X100250000Y-119600000D02*
X100250000Y-120400000D01*
X100250000Y-120000000D02*
X100750000Y-120000000D01*
X100250000Y-120400000D02*
X99650000Y-120000000D01*
%TO.C,D21*%
X171250000Y-205000000D02*
X171650000Y-205000000D01*
X171650000Y-205000000D02*
X171650000Y-204450000D01*
X171650000Y-205000000D02*
X171650000Y-205550000D01*
X171650000Y-205000000D02*
X172250000Y-204600000D01*
X172250000Y-204600000D02*
X172250000Y-205400000D01*
X172250000Y-205000000D02*
X172750000Y-205000000D01*
X172250000Y-205400000D02*
X171650000Y-205000000D01*
%TO.C,D30*%
X189250000Y-154000000D02*
X189650000Y-154000000D01*
X189650000Y-154000000D02*
X189650000Y-153450000D01*
X189650000Y-154000000D02*
X189650000Y-154550000D01*
X189650000Y-154000000D02*
X190250000Y-153600000D01*
X190250000Y-153600000D02*
X190250000Y-154400000D01*
X190250000Y-154000000D02*
X190750000Y-154000000D01*
X190250000Y-154400000D02*
X189650000Y-154000000D01*
%TO.C,D45*%
X273250000Y-171000000D02*
X273650000Y-171000000D01*
X273650000Y-171000000D02*
X273650000Y-170450000D01*
X273650000Y-171000000D02*
X273650000Y-171550000D01*
X273650000Y-171000000D02*
X274250000Y-170600000D01*
X274250000Y-170600000D02*
X274250000Y-171400000D01*
X274250000Y-171000000D02*
X274750000Y-171000000D01*
X274250000Y-171400000D02*
X273650000Y-171000000D01*
%TO.C,D11*%
X135250000Y-188000000D02*
X135650000Y-188000000D01*
X135650000Y-188000000D02*
X135650000Y-187450000D01*
X135650000Y-188000000D02*
X135650000Y-188550000D01*
X135650000Y-188000000D02*
X136250000Y-187600000D01*
X136250000Y-187600000D02*
X136250000Y-188400000D01*
X136250000Y-188000000D02*
X136750000Y-188000000D01*
X136250000Y-188400000D02*
X135650000Y-188000000D01*
%TO.C,D18*%
X153250000Y-154000000D02*
X153650000Y-154000000D01*
X153650000Y-154000000D02*
X153650000Y-153450000D01*
X153650000Y-154000000D02*
X153650000Y-154550000D01*
X153650000Y-154000000D02*
X154250000Y-153600000D01*
X154250000Y-153600000D02*
X154250000Y-154400000D01*
X154250000Y-154000000D02*
X154750000Y-154000000D01*
X154250000Y-154400000D02*
X153650000Y-154000000D01*
%TO.C,D14*%
X135250000Y-137000000D02*
X135650000Y-137000000D01*
X135650000Y-137000000D02*
X135650000Y-136450000D01*
X135650000Y-137000000D02*
X135650000Y-137550000D01*
X135650000Y-137000000D02*
X136250000Y-136600000D01*
X136250000Y-136600000D02*
X136250000Y-137400000D01*
X136250000Y-137000000D02*
X136750000Y-137000000D01*
X136250000Y-137400000D02*
X135650000Y-137000000D01*
%TO.C,D17*%
X153250000Y-171000000D02*
X153650000Y-171000000D01*
X153650000Y-171000000D02*
X153650000Y-170450000D01*
X153650000Y-171000000D02*
X153650000Y-171550000D01*
X153650000Y-171000000D02*
X154250000Y-170600000D01*
X154250000Y-170600000D02*
X154250000Y-171400000D01*
X154250000Y-171000000D02*
X154750000Y-171000000D01*
X154250000Y-171400000D02*
X153650000Y-171000000D01*
%TO.C,D28*%
X189250000Y-188000000D02*
X189650000Y-188000000D01*
X189650000Y-188000000D02*
X189650000Y-187450000D01*
X189650000Y-188000000D02*
X189650000Y-188550000D01*
X189650000Y-188000000D02*
X190250000Y-187600000D01*
X190250000Y-187600000D02*
X190250000Y-188400000D01*
X190250000Y-188000000D02*
X190750000Y-188000000D01*
X190250000Y-188400000D02*
X189650000Y-188000000D01*
%TO.C,D19*%
X153250000Y-137000000D02*
X153650000Y-137000000D01*
X153650000Y-137000000D02*
X153650000Y-136450000D01*
X153650000Y-137000000D02*
X153650000Y-137550000D01*
X153650000Y-137000000D02*
X154250000Y-136600000D01*
X154250000Y-136600000D02*
X154250000Y-137400000D01*
X154250000Y-137000000D02*
X154750000Y-137000000D01*
X154250000Y-137400000D02*
X153650000Y-137000000D01*
%TO.C,D54*%
X327250000Y-188000000D02*
X327650000Y-188000000D01*
X327650000Y-188000000D02*
X327650000Y-187450000D01*
X327650000Y-188000000D02*
X327650000Y-188550000D01*
X327650000Y-188000000D02*
X328250000Y-187600000D01*
X328250000Y-187600000D02*
X328250000Y-188400000D01*
X328250000Y-188000000D02*
X328750000Y-188000000D01*
X328250000Y-188400000D02*
X327650000Y-188000000D01*
%TO.C,D39*%
X255250000Y-205000000D02*
X255650000Y-205000000D01*
X255650000Y-205000000D02*
X255650000Y-204450000D01*
X255650000Y-205000000D02*
X255650000Y-205550000D01*
X255650000Y-205000000D02*
X256250000Y-204600000D01*
X256250000Y-204600000D02*
X256250000Y-205400000D01*
X256250000Y-205000000D02*
X256750000Y-205000000D01*
X256250000Y-205400000D02*
X255650000Y-205000000D01*
%TO.C,D47*%
X291250000Y-205000000D02*
X291650000Y-205000000D01*
X291650000Y-205000000D02*
X291650000Y-204450000D01*
X291650000Y-205000000D02*
X291650000Y-205550000D01*
X291650000Y-205000000D02*
X292250000Y-204600000D01*
X292250000Y-204600000D02*
X292250000Y-205400000D01*
X292250000Y-205000000D02*
X292750000Y-205000000D01*
X292250000Y-205400000D02*
X291650000Y-205000000D01*
%TO.C,D26*%
X171250000Y-120000000D02*
X171650000Y-120000000D01*
X171650000Y-120000000D02*
X171650000Y-119450000D01*
X171650000Y-120000000D02*
X171650000Y-120550000D01*
X171650000Y-120000000D02*
X172250000Y-119600000D01*
X172250000Y-119600000D02*
X172250000Y-120400000D01*
X172250000Y-120000000D02*
X172750000Y-120000000D01*
X172250000Y-120400000D02*
X171650000Y-120000000D01*
%TO.C,D38*%
X207250000Y-120000000D02*
X207650000Y-120000000D01*
X207650000Y-120000000D02*
X207650000Y-119450000D01*
X207650000Y-120000000D02*
X207650000Y-120550000D01*
X207650000Y-120000000D02*
X208250000Y-119600000D01*
X208250000Y-119600000D02*
X208250000Y-120400000D01*
X208250000Y-120000000D02*
X208750000Y-120000000D01*
X208250000Y-120400000D02*
X207650000Y-120000000D01*
%TO.C,D24*%
X171250000Y-154000000D02*
X171650000Y-154000000D01*
X171650000Y-154000000D02*
X171650000Y-153450000D01*
X171650000Y-154000000D02*
X171650000Y-154550000D01*
X171650000Y-154000000D02*
X172250000Y-153600000D01*
X172250000Y-153600000D02*
X172250000Y-154400000D01*
X172250000Y-154000000D02*
X172750000Y-154000000D01*
X172250000Y-154400000D02*
X171650000Y-154000000D01*
%TO.C,D34*%
X207250000Y-188000000D02*
X207650000Y-188000000D01*
X207650000Y-188000000D02*
X207650000Y-187450000D01*
X207650000Y-188000000D02*
X207650000Y-188550000D01*
X207650000Y-188000000D02*
X208250000Y-187600000D01*
X208250000Y-187600000D02*
X208250000Y-188400000D01*
X208250000Y-188000000D02*
X208750000Y-188000000D01*
X208250000Y-188400000D02*
X207650000Y-188000000D01*
%TO.C,D51*%
X309250000Y-188000000D02*
X309650000Y-188000000D01*
X309650000Y-188000000D02*
X309650000Y-187450000D01*
X309650000Y-188000000D02*
X309650000Y-188550000D01*
X309650000Y-188000000D02*
X310250000Y-187600000D01*
X310250000Y-187600000D02*
X310250000Y-188400000D01*
X310250000Y-188000000D02*
X310750000Y-188000000D01*
X310250000Y-188400000D02*
X309650000Y-188000000D01*
%TO.C,D4*%
X99250000Y-137000000D02*
X99650000Y-137000000D01*
X99650000Y-137000000D02*
X99650000Y-136450000D01*
X99650000Y-137000000D02*
X99650000Y-137550000D01*
X99650000Y-137000000D02*
X100250000Y-136600000D01*
X100250000Y-136600000D02*
X100250000Y-137400000D01*
X100250000Y-137000000D02*
X100750000Y-137000000D01*
X100250000Y-137400000D02*
X99650000Y-137000000D01*
%TO.C,D31*%
X189250000Y-137000000D02*
X189650000Y-137000000D01*
X189650000Y-137000000D02*
X189650000Y-136450000D01*
X189650000Y-137000000D02*
X189650000Y-137550000D01*
X189650000Y-137000000D02*
X190250000Y-136600000D01*
X190250000Y-136600000D02*
X190250000Y-137400000D01*
X190250000Y-137000000D02*
X190750000Y-137000000D01*
X190250000Y-137400000D02*
X189650000Y-137000000D01*
%TO.C,D15*%
X135250000Y-120000000D02*
X135650000Y-120000000D01*
X135650000Y-120000000D02*
X135650000Y-119450000D01*
X135650000Y-120000000D02*
X135650000Y-120550000D01*
X135650000Y-120000000D02*
X136250000Y-119600000D01*
X136250000Y-119600000D02*
X136250000Y-120400000D01*
X136250000Y-120000000D02*
X136750000Y-120000000D01*
X136250000Y-120400000D02*
X135650000Y-120000000D01*
%TO.C,D13*%
X135250000Y-154000000D02*
X135650000Y-154000000D01*
X135650000Y-154000000D02*
X135650000Y-153450000D01*
X135650000Y-154000000D02*
X135650000Y-154550000D01*
X135650000Y-154000000D02*
X136250000Y-153600000D01*
X136250000Y-153600000D02*
X136250000Y-154400000D01*
X136250000Y-154000000D02*
X136750000Y-154000000D01*
X136250000Y-154400000D02*
X135650000Y-154000000D01*
%TO.C,D50*%
X291250000Y-154000000D02*
X291650000Y-154000000D01*
X291650000Y-154000000D02*
X291650000Y-153450000D01*
X291650000Y-154000000D02*
X291650000Y-154550000D01*
X291650000Y-154000000D02*
X292250000Y-153600000D01*
X292250000Y-153600000D02*
X292250000Y-154400000D01*
X292250000Y-154000000D02*
X292750000Y-154000000D01*
X292250000Y-154400000D02*
X291650000Y-154000000D01*
%TO.C,D33*%
X207250000Y-205000000D02*
X207650000Y-205000000D01*
X207650000Y-205000000D02*
X207650000Y-204450000D01*
X207650000Y-205000000D02*
X207650000Y-205550000D01*
X207650000Y-205000000D02*
X208250000Y-204600000D01*
X208250000Y-204600000D02*
X208250000Y-205400000D01*
X208250000Y-205000000D02*
X208750000Y-205000000D01*
X208250000Y-205400000D02*
X207650000Y-205000000D01*
%TO.C,D40*%
X255250000Y-188000000D02*
X255650000Y-188000000D01*
X255650000Y-188000000D02*
X255650000Y-187450000D01*
X255650000Y-188000000D02*
X255650000Y-188550000D01*
X255650000Y-188000000D02*
X256250000Y-187600000D01*
X256250000Y-187600000D02*
X256250000Y-188400000D01*
X256250000Y-188000000D02*
X256750000Y-188000000D01*
X256250000Y-188400000D02*
X255650000Y-188000000D01*
%TO.C,D9*%
X117250000Y-137000000D02*
X117650000Y-137000000D01*
X117650000Y-137000000D02*
X117650000Y-136450000D01*
X117650000Y-137000000D02*
X117650000Y-137550000D01*
X117650000Y-137000000D02*
X118250000Y-136600000D01*
X118250000Y-136600000D02*
X118250000Y-137400000D01*
X118250000Y-137000000D02*
X118750000Y-137000000D01*
X118250000Y-137400000D02*
X117650000Y-137000000D01*
%TO.C,D43*%
X273250000Y-205000000D02*
X273650000Y-205000000D01*
X273650000Y-205000000D02*
X273650000Y-204450000D01*
X273650000Y-205000000D02*
X273650000Y-205550000D01*
X273650000Y-205000000D02*
X274250000Y-204600000D01*
X274250000Y-204600000D02*
X274250000Y-205400000D01*
X274250000Y-205000000D02*
X274750000Y-205000000D01*
X274250000Y-205400000D02*
X273650000Y-205000000D01*
%TO.C,D32*%
X189250000Y-120000000D02*
X189650000Y-120000000D01*
X189650000Y-120000000D02*
X189650000Y-119450000D01*
X189650000Y-120000000D02*
X189650000Y-120550000D01*
X189650000Y-120000000D02*
X190250000Y-119600000D01*
X190250000Y-119600000D02*
X190250000Y-120400000D01*
X190250000Y-120000000D02*
X190750000Y-120000000D01*
X190250000Y-120400000D02*
X189650000Y-120000000D01*
%TO.C,D44*%
X273250000Y-188000000D02*
X273650000Y-188000000D01*
X273650000Y-188000000D02*
X273650000Y-187450000D01*
X273650000Y-188000000D02*
X273650000Y-188550000D01*
X273650000Y-188000000D02*
X274250000Y-187600000D01*
X274250000Y-187600000D02*
X274250000Y-188400000D01*
X274250000Y-188000000D02*
X274750000Y-188000000D01*
X274250000Y-188400000D02*
X273650000Y-188000000D01*
%TO.C,D42*%
X255250000Y-154000000D02*
X255650000Y-154000000D01*
X255650000Y-154000000D02*
X255650000Y-153450000D01*
X255650000Y-154000000D02*
X255650000Y-154550000D01*
X255650000Y-154000000D02*
X256250000Y-153600000D01*
X256250000Y-153600000D02*
X256250000Y-154400000D01*
X256250000Y-154000000D02*
X256750000Y-154000000D01*
X256250000Y-154400000D02*
X255650000Y-154000000D01*
%TO.C,D7*%
X117250000Y-171000000D02*
X117650000Y-171000000D01*
X117650000Y-171000000D02*
X117650000Y-170450000D01*
X117650000Y-171000000D02*
X117650000Y-171550000D01*
X117650000Y-171000000D02*
X118250000Y-170600000D01*
X118250000Y-170600000D02*
X118250000Y-171400000D01*
X118250000Y-171000000D02*
X118750000Y-171000000D01*
X118250000Y-171400000D02*
X117650000Y-171000000D01*
%TO.C,D25*%
X171250000Y-137000000D02*
X171650000Y-137000000D01*
X171650000Y-137000000D02*
X171650000Y-136450000D01*
X171650000Y-137000000D02*
X171650000Y-137550000D01*
X171650000Y-137000000D02*
X172250000Y-136600000D01*
X172250000Y-136600000D02*
X172250000Y-137400000D01*
X172250000Y-137000000D02*
X172750000Y-137000000D01*
X172250000Y-137400000D02*
X171650000Y-137000000D01*
%TO.C,D3*%
X99250000Y-154000000D02*
X99650000Y-154000000D01*
X99650000Y-154000000D02*
X99650000Y-153450000D01*
X99650000Y-154000000D02*
X99650000Y-154550000D01*
X99650000Y-154000000D02*
X100250000Y-153600000D01*
X100250000Y-153600000D02*
X100250000Y-154400000D01*
X100250000Y-154000000D02*
X100750000Y-154000000D01*
X100250000Y-154400000D02*
X99650000Y-154000000D01*
%TO.C,D23*%
X171250000Y-171000000D02*
X171650000Y-171000000D01*
X171650000Y-171000000D02*
X171650000Y-170450000D01*
X171650000Y-171000000D02*
X171650000Y-171550000D01*
X171650000Y-171000000D02*
X172250000Y-170600000D01*
X172250000Y-170600000D02*
X172250000Y-171400000D01*
X172250000Y-171000000D02*
X172750000Y-171000000D01*
X172250000Y-171400000D02*
X171650000Y-171000000D01*
%TO.C,D10*%
X117250000Y-120000000D02*
X117650000Y-120000000D01*
X117650000Y-120000000D02*
X117650000Y-119450000D01*
X117650000Y-120000000D02*
X117650000Y-120550000D01*
X117650000Y-120000000D02*
X118250000Y-119600000D01*
X118250000Y-119600000D02*
X118250000Y-120400000D01*
X118250000Y-120000000D02*
X118750000Y-120000000D01*
X118250000Y-120400000D02*
X117650000Y-120000000D01*
%TO.C,D2*%
X99250000Y-171000000D02*
X99650000Y-171000000D01*
X99650000Y-171000000D02*
X99650000Y-170450000D01*
X99650000Y-171000000D02*
X99650000Y-171550000D01*
X99650000Y-171000000D02*
X100250000Y-170600000D01*
X100250000Y-170600000D02*
X100250000Y-171400000D01*
X100250000Y-171000000D02*
X100750000Y-171000000D01*
X100250000Y-171400000D02*
X99650000Y-171000000D01*
%TO.C,D22*%
X171250000Y-188000000D02*
X171650000Y-188000000D01*
X171650000Y-188000000D02*
X171650000Y-187450000D01*
X171650000Y-188000000D02*
X171650000Y-188550000D01*
X171650000Y-188000000D02*
X172250000Y-187600000D01*
X172250000Y-187600000D02*
X172250000Y-188400000D01*
X172250000Y-188000000D02*
X172750000Y-188000000D01*
X172250000Y-188400000D02*
X171650000Y-188000000D01*
%TO.C,D6*%
X117250000Y-188000000D02*
X117650000Y-188000000D01*
X117650000Y-188000000D02*
X117650000Y-187450000D01*
X117650000Y-188000000D02*
X117650000Y-188550000D01*
X117650000Y-188000000D02*
X118250000Y-187600000D01*
X118250000Y-187600000D02*
X118250000Y-188400000D01*
X118250000Y-188000000D02*
X118750000Y-188000000D01*
X118250000Y-188400000D02*
X117650000Y-188000000D01*
%TO.C,D29*%
X189250000Y-171000000D02*
X189650000Y-171000000D01*
X189650000Y-171000000D02*
X189650000Y-170450000D01*
X189650000Y-171000000D02*
X189650000Y-171550000D01*
X189650000Y-171000000D02*
X190250000Y-170600000D01*
X190250000Y-170600000D02*
X190250000Y-171400000D01*
X190250000Y-171000000D02*
X190750000Y-171000000D01*
X190250000Y-171400000D02*
X189650000Y-171000000D01*
%TO.C,D41*%
X255250000Y-171000000D02*
X255650000Y-171000000D01*
X255650000Y-171000000D02*
X255650000Y-170450000D01*
X255650000Y-171000000D02*
X255650000Y-171550000D01*
X255650000Y-171000000D02*
X256250000Y-170600000D01*
X256250000Y-170600000D02*
X256250000Y-171400000D01*
X256250000Y-171000000D02*
X256750000Y-171000000D01*
X256250000Y-171400000D02*
X255650000Y-171000000D01*
%TO.C,D48*%
X291250000Y-188000000D02*
X291650000Y-188000000D01*
X291650000Y-188000000D02*
X291650000Y-187450000D01*
X291650000Y-188000000D02*
X291650000Y-188550000D01*
X291650000Y-188000000D02*
X292250000Y-187600000D01*
X292250000Y-187600000D02*
X292250000Y-188400000D01*
X292250000Y-188000000D02*
X292750000Y-188000000D01*
X292250000Y-188400000D02*
X291650000Y-188000000D01*
%TO.C,D1*%
X99250000Y-188000000D02*
X99650000Y-188000000D01*
X99650000Y-188000000D02*
X99650000Y-187450000D01*
X99650000Y-188000000D02*
X99650000Y-188550000D01*
X99650000Y-188000000D02*
X100250000Y-187600000D01*
X100250000Y-187600000D02*
X100250000Y-188400000D01*
X100250000Y-188000000D02*
X100750000Y-188000000D01*
X100250000Y-188400000D02*
X99650000Y-188000000D01*
%TO.C,D55*%
X327250000Y-171000000D02*
X327650000Y-171000000D01*
X327650000Y-171000000D02*
X327650000Y-170450000D01*
X327650000Y-171000000D02*
X327650000Y-171550000D01*
X327650000Y-171000000D02*
X328250000Y-170600000D01*
X328250000Y-170600000D02*
X328250000Y-171400000D01*
X328250000Y-171000000D02*
X328750000Y-171000000D01*
X328250000Y-171400000D02*
X327650000Y-171000000D01*
%TO.C,D46*%
X273250000Y-154000000D02*
X273650000Y-154000000D01*
X273650000Y-154000000D02*
X273650000Y-153450000D01*
X273650000Y-154000000D02*
X273650000Y-154550000D01*
X273650000Y-154000000D02*
X274250000Y-153600000D01*
X274250000Y-153600000D02*
X274250000Y-154400000D01*
X274250000Y-154000000D02*
X274750000Y-154000000D01*
X274250000Y-154400000D02*
X273650000Y-154000000D01*
%TO.C,D53*%
X309250000Y-154000000D02*
X309650000Y-154000000D01*
X309650000Y-154000000D02*
X309650000Y-153450000D01*
X309650000Y-154000000D02*
X309650000Y-154550000D01*
X309650000Y-154000000D02*
X310250000Y-153600000D01*
X310250000Y-153600000D02*
X310250000Y-154400000D01*
X310250000Y-154000000D02*
X310750000Y-154000000D01*
X310250000Y-154400000D02*
X309650000Y-154000000D01*
%TO.C,D37*%
X207250000Y-137000000D02*
X207650000Y-137000000D01*
X207650000Y-137000000D02*
X207650000Y-136450000D01*
X207650000Y-137000000D02*
X207650000Y-137550000D01*
X207650000Y-137000000D02*
X208250000Y-136600000D01*
X208250000Y-136600000D02*
X208250000Y-137400000D01*
X208250000Y-137000000D02*
X208750000Y-137000000D01*
X208250000Y-137400000D02*
X207650000Y-137000000D01*
%TO.C,D12*%
X135250000Y-171000000D02*
X135650000Y-171000000D01*
X135650000Y-171000000D02*
X135650000Y-170450000D01*
X135650000Y-171000000D02*
X135650000Y-171550000D01*
X135650000Y-171000000D02*
X136250000Y-170600000D01*
X136250000Y-170600000D02*
X136250000Y-171400000D01*
X136250000Y-171000000D02*
X136750000Y-171000000D01*
X136250000Y-171400000D02*
X135650000Y-171000000D01*
%TO.C,D35*%
X207250000Y-171000000D02*
X207650000Y-171000000D01*
X207650000Y-171000000D02*
X207650000Y-170450000D01*
X207650000Y-171000000D02*
X207650000Y-171550000D01*
X207650000Y-171000000D02*
X208250000Y-170600000D01*
X208250000Y-170600000D02*
X208250000Y-171400000D01*
X208250000Y-171000000D02*
X208750000Y-171000000D01*
X208250000Y-171400000D02*
X207650000Y-171000000D01*
%TO.C,D56*%
X327250000Y-154000000D02*
X327650000Y-154000000D01*
X327650000Y-154000000D02*
X327650000Y-153450000D01*
X327650000Y-154000000D02*
X327650000Y-154550000D01*
X327650000Y-154000000D02*
X328250000Y-153600000D01*
X328250000Y-153600000D02*
X328250000Y-154400000D01*
X328250000Y-154000000D02*
X328750000Y-154000000D01*
X328250000Y-154400000D02*
X327650000Y-154000000D01*
D11*
%TO.C,B1*%
X227250000Y-149750000D02*
X228750000Y-148250000D01*
X227250000Y-152250000D02*
X227250000Y-149750000D01*
X227250000Y-152250000D02*
X228750000Y-153750000D01*
X231250000Y-148250000D02*
X228750000Y-148250000D01*
X231250000Y-153750000D02*
X228750000Y-153750000D01*
X232750000Y-149750000D02*
X231250000Y-148250000D01*
X232750000Y-152250000D02*
X231250000Y-153750000D01*
X232750000Y-152250000D02*
X232750000Y-149750000D01*
%TD*%
D12*
%TO.C,MCU1*%
X237620000Y-108530000D03*
D13*
X237620000Y-111070000D03*
X237620000Y-113610000D03*
X237620000Y-116150000D03*
X237620000Y-118690000D03*
X237620000Y-121230000D03*
X237620000Y-123770000D03*
X237620000Y-126310000D03*
X237620000Y-128850000D03*
X237620000Y-131390000D03*
X237620000Y-133930000D03*
X237620000Y-136470000D03*
X222380000Y-108530000D03*
X222380000Y-111070000D03*
X222380000Y-113610000D03*
X222380000Y-116150000D03*
X222380000Y-118690000D03*
X222380000Y-121230000D03*
X222380000Y-123770000D03*
X222380000Y-126310000D03*
X222380000Y-128850000D03*
X222380000Y-131390000D03*
X222380000Y-133930000D03*
X222380000Y-136470000D03*
%TD*%
M02*
