%TF.GenerationSoftware,KiCad,Pcbnew,8.0.2*%
%TF.CreationDate,2024-06-03T01:18:46-04:00*%
%TF.ProjectId,unisplitchoc,756e6973-706c-4697-9463-686f632e6b69,v1.0.0*%
%TF.SameCoordinates,Original*%
%TF.FileFunction,Copper,L1,Top*%
%TF.FilePolarity,Positive*%
%FSLAX46Y46*%
G04 Gerber Fmt 4.6, Leading zero omitted, Abs format (unit mm)*
G04 Created by KiCad (PCBNEW 8.0.2) date 2024-06-03 01:18:46*
%MOMM*%
%LPD*%
G01*
G04 APERTURE LIST*
%TA.AperFunction,ComponentPad*%
%ADD10R,1.778000X1.778000*%
%TD*%
%TA.AperFunction,SMDPad,CuDef*%
%ADD11R,0.900000X1.200000*%
%TD*%
%TA.AperFunction,ComponentPad*%
%ADD12C,1.905000*%
%TD*%
%TA.AperFunction,ComponentPad*%
%ADD13C,0.700000*%
%TD*%
%TA.AperFunction,ComponentPad*%
%ADD14C,4.400000*%
%TD*%
%TA.AperFunction,ComponentPad*%
%ADD15R,1.752600X1.752600*%
%TD*%
%TA.AperFunction,ComponentPad*%
%ADD16C,1.752600*%
%TD*%
%TA.AperFunction,ViaPad*%
%ADD17C,0.600000*%
%TD*%
%TA.AperFunction,Conductor*%
%ADD18C,0.200000*%
%TD*%
G04 APERTURE END LIST*
D10*
%TO.P,D52,1*%
%TO.N,P7*%
X306190000Y-171000000D03*
D11*
X308350000Y-171000000D03*
%TO.P,D52,2*%
%TO.N,rring_home*%
X311650000Y-171000000D03*
D12*
X313810000Y-171000000D03*
%TD*%
D10*
%TO.P,D8,1*%
%TO.N,P6*%
X114190000Y-154000000D03*
D11*
X116350000Y-154000000D03*
%TO.P,D8,2*%
%TO.N,louter_top*%
X119650000Y-154000000D03*
D12*
X121810000Y-154000000D03*
%TD*%
D10*
%TO.P,D20,1*%
%TO.N,P4*%
X150190000Y-120000000D03*
D11*
X152350000Y-120000000D03*
%TO.P,D20,2*%
%TO.N,lring_function*%
X155650000Y-120000000D03*
D12*
X157810000Y-120000000D03*
%TD*%
D10*
%TO.P,D36,1*%
%TO.N,P6*%
X204190000Y-154000000D03*
D11*
X206350000Y-154000000D03*
%TO.P,D36,2*%
%TO.N,linner_top*%
X209650000Y-154000000D03*
D12*
X211810000Y-154000000D03*
%TD*%
D10*
%TO.P,D16,1*%
%TO.N,P8*%
X150190000Y-188000000D03*
D11*
X152350000Y-188000000D03*
%TO.P,D16,2*%
%TO.N,lring_bottom*%
X155650000Y-188000000D03*
D12*
X157810000Y-188000000D03*
%TD*%
D10*
%TO.P,D27,1*%
%TO.N,P9*%
X186190000Y-205000000D03*
D11*
X188350000Y-205000000D03*
%TO.P,D27,2*%
%TO.N,lindex_mod*%
X191650000Y-205000000D03*
D12*
X193810000Y-205000000D03*
%TD*%
D10*
%TO.P,D49,1*%
%TO.N,P7*%
X288190000Y-171000000D03*
D11*
X290350000Y-171000000D03*
%TO.P,D49,2*%
%TO.N,rmiddle_home*%
X293650000Y-171000000D03*
D12*
X295810000Y-171000000D03*
%TD*%
D10*
%TO.P,D5,1*%
%TO.N,P4*%
X96190000Y-120000000D03*
D11*
X98350000Y-120000000D03*
%TO.P,D5,2*%
%TO.N,lmacro_function*%
X101650000Y-120000000D03*
D12*
X103810000Y-120000000D03*
%TD*%
D10*
%TO.P,D21,1*%
%TO.N,P9*%
X168190000Y-205000000D03*
D11*
X170350000Y-205000000D03*
%TO.P,D21,2*%
%TO.N,lmiddle_mod*%
X173650000Y-205000000D03*
D12*
X175810000Y-205000000D03*
%TD*%
D10*
%TO.P,D30,1*%
%TO.N,P6*%
X186190000Y-154000000D03*
D11*
X188350000Y-154000000D03*
%TO.P,D30,2*%
%TO.N,lindex_top*%
X191650000Y-154000000D03*
D12*
X193810000Y-154000000D03*
%TD*%
D10*
%TO.P,D45,1*%
%TO.N,P7*%
X270190000Y-171000000D03*
D11*
X272350000Y-171000000D03*
%TO.P,D45,2*%
%TO.N,rindex_home*%
X275650000Y-171000000D03*
D12*
X277810000Y-171000000D03*
%TD*%
D10*
%TO.P,D11,1*%
%TO.N,P8*%
X132190000Y-188000000D03*
D11*
X134350000Y-188000000D03*
%TO.P,D11,2*%
%TO.N,lpinky_bottom*%
X137650000Y-188000000D03*
D12*
X139810000Y-188000000D03*
%TD*%
D10*
%TO.P,D18,1*%
%TO.N,P6*%
X150190000Y-154000000D03*
D11*
X152350000Y-154000000D03*
%TO.P,D18,2*%
%TO.N,lring_top*%
X155650000Y-154000000D03*
D12*
X157810000Y-154000000D03*
%TD*%
D10*
%TO.P,D14,1*%
%TO.N,P5*%
X132190000Y-137000000D03*
D11*
X134350000Y-137000000D03*
%TO.P,D14,2*%
%TO.N,lpinky_num*%
X137650000Y-137000000D03*
D12*
X139810000Y-137000000D03*
%TD*%
D10*
%TO.P,D17,1*%
%TO.N,P7*%
X150190000Y-171000000D03*
D11*
X152350000Y-171000000D03*
%TO.P,D17,2*%
%TO.N,lring_home*%
X155650000Y-171000000D03*
D12*
X157810000Y-171000000D03*
%TD*%
D10*
%TO.P,D28,1*%
%TO.N,P8*%
X186190000Y-188000000D03*
D11*
X188350000Y-188000000D03*
%TO.P,D28,2*%
%TO.N,lindex_bottom*%
X191650000Y-188000000D03*
D12*
X193810000Y-188000000D03*
%TD*%
D10*
%TO.P,D19,1*%
%TO.N,P5*%
X150190000Y-137000000D03*
D11*
X152350000Y-137000000D03*
%TO.P,D19,2*%
%TO.N,lring_num*%
X155650000Y-137000000D03*
D12*
X157810000Y-137000000D03*
%TD*%
D10*
%TO.P,D54,1*%
%TO.N,P8*%
X324190000Y-188000000D03*
D11*
X326350000Y-188000000D03*
%TO.P,D54,2*%
%TO.N,rpinky_bottom*%
X329650000Y-188000000D03*
D12*
X331810000Y-188000000D03*
%TD*%
D10*
%TO.P,D39,1*%
%TO.N,P9*%
X252190000Y-205000000D03*
D11*
X254350000Y-205000000D03*
%TO.P,D39,2*%
%TO.N,rinner_mod*%
X257650000Y-205000000D03*
D12*
X259810000Y-205000000D03*
%TD*%
D10*
%TO.P,D47,1*%
%TO.N,P9*%
X288190000Y-205000000D03*
D11*
X290350000Y-205000000D03*
%TO.P,D47,2*%
%TO.N,rmiddle_mod*%
X293650000Y-205000000D03*
D12*
X295810000Y-205000000D03*
%TD*%
D10*
%TO.P,D26,1*%
%TO.N,P4*%
X168190000Y-120000000D03*
D11*
X170350000Y-120000000D03*
%TO.P,D26,2*%
%TO.N,lmiddle_function*%
X173650000Y-120000000D03*
D12*
X175810000Y-120000000D03*
%TD*%
D13*
%TO.P,_2,1*%
%TO.N,N/C*%
X198350000Y-123000000D03*
X198833274Y-121833274D03*
X198833274Y-124166726D03*
X200000000Y-121350000D03*
D14*
X200000000Y-123000000D03*
D13*
X200000000Y-124650000D03*
X201166726Y-121833274D03*
X201166726Y-124166726D03*
X201650000Y-123000000D03*
%TD*%
%TO.P,_3,1*%
%TO.N,N/C*%
X262350000Y-157000000D03*
X262833274Y-155833274D03*
X262833274Y-158166726D03*
X264000000Y-155350000D03*
D14*
X264000000Y-157000000D03*
D13*
X264000000Y-158650000D03*
X265166726Y-155833274D03*
X265166726Y-158166726D03*
X265650000Y-157000000D03*
%TD*%
D10*
%TO.P,D38,1*%
%TO.N,P4*%
X204190000Y-120000000D03*
D11*
X206350000Y-120000000D03*
%TO.P,D38,2*%
%TO.N,linner_function*%
X209650000Y-120000000D03*
D12*
X211810000Y-120000000D03*
%TD*%
D10*
%TO.P,D24,1*%
%TO.N,P6*%
X168190000Y-154000000D03*
D11*
X170350000Y-154000000D03*
%TO.P,D24,2*%
%TO.N,lmiddle_top*%
X173650000Y-154000000D03*
D12*
X175810000Y-154000000D03*
%TD*%
D10*
%TO.P,D34,1*%
%TO.N,P8*%
X204190000Y-188000000D03*
D11*
X206350000Y-188000000D03*
%TO.P,D34,2*%
%TO.N,linner_bottom*%
X209650000Y-188000000D03*
D12*
X211810000Y-188000000D03*
%TD*%
D10*
%TO.P,D51,1*%
%TO.N,P8*%
X306190000Y-188000000D03*
D11*
X308350000Y-188000000D03*
%TO.P,D51,2*%
%TO.N,rring_bottom*%
X311650000Y-188000000D03*
D12*
X313810000Y-188000000D03*
%TD*%
D10*
%TO.P,D4,1*%
%TO.N,P5*%
X96190000Y-137000000D03*
D11*
X98350000Y-137000000D03*
%TO.P,D4,2*%
%TO.N,lmacro_num*%
X101650000Y-137000000D03*
D12*
X103810000Y-137000000D03*
%TD*%
D10*
%TO.P,D31,1*%
%TO.N,P5*%
X186190000Y-137000000D03*
D11*
X188350000Y-137000000D03*
%TO.P,D31,2*%
%TO.N,lindex_num*%
X191650000Y-137000000D03*
D12*
X193810000Y-137000000D03*
%TD*%
D10*
%TO.P,D15,1*%
%TO.N,P4*%
X132190000Y-120000000D03*
D11*
X134350000Y-120000000D03*
%TO.P,D15,2*%
%TO.N,lpinky_function*%
X137650000Y-120000000D03*
D12*
X139810000Y-120000000D03*
%TD*%
D10*
%TO.P,D13,1*%
%TO.N,P6*%
X132190000Y-154000000D03*
D11*
X134350000Y-154000000D03*
%TO.P,D13,2*%
%TO.N,lpinky_top*%
X137650000Y-154000000D03*
D12*
X139810000Y-154000000D03*
%TD*%
D10*
%TO.P,D50,1*%
%TO.N,P6*%
X288190000Y-154000000D03*
D11*
X290350000Y-154000000D03*
%TO.P,D50,2*%
%TO.N,rmiddle_top*%
X293650000Y-154000000D03*
D12*
X295810000Y-154000000D03*
%TD*%
D10*
%TO.P,D33,1*%
%TO.N,P9*%
X204190000Y-205000000D03*
D11*
X206350000Y-205000000D03*
%TO.P,D33,2*%
%TO.N,linner_mod*%
X209650000Y-205000000D03*
D12*
X211810000Y-205000000D03*
%TD*%
D10*
%TO.P,D40,1*%
%TO.N,P8*%
X252190000Y-188000000D03*
D11*
X254350000Y-188000000D03*
%TO.P,D40,2*%
%TO.N,rinner_bottom*%
X257650000Y-188000000D03*
D12*
X259810000Y-188000000D03*
%TD*%
D10*
%TO.P,D9,1*%
%TO.N,P5*%
X114190000Y-137000000D03*
D11*
X116350000Y-137000000D03*
%TO.P,D9,2*%
%TO.N,louter_num*%
X119650000Y-137000000D03*
D12*
X121810000Y-137000000D03*
%TD*%
D13*
%TO.P,_4,1*%
%TO.N,N/C*%
X318350000Y-157000000D03*
X318833274Y-155833274D03*
X318833274Y-158166726D03*
X320000000Y-155350000D03*
D14*
X320000000Y-157000000D03*
D13*
X320000000Y-158650000D03*
X321166726Y-155833274D03*
X321166726Y-158166726D03*
X321650000Y-157000000D03*
%TD*%
D10*
%TO.P,D43,1*%
%TO.N,P9*%
X270190000Y-205000000D03*
D11*
X272350000Y-205000000D03*
%TO.P,D43,2*%
%TO.N,rindex_mod*%
X275650000Y-205000000D03*
D12*
X277810000Y-205000000D03*
%TD*%
D10*
%TO.P,D32,1*%
%TO.N,P4*%
X186190000Y-120000000D03*
D11*
X188350000Y-120000000D03*
%TO.P,D32,2*%
%TO.N,lindex_function*%
X191650000Y-120000000D03*
D12*
X193810000Y-120000000D03*
%TD*%
D10*
%TO.P,D44,1*%
%TO.N,P8*%
X270190000Y-188000000D03*
D11*
X272350000Y-188000000D03*
%TO.P,D44,2*%
%TO.N,rindex_bottom*%
X275650000Y-188000000D03*
D12*
X277810000Y-188000000D03*
%TD*%
D10*
%TO.P,D42,1*%
%TO.N,P6*%
X252190000Y-154000000D03*
D11*
X254350000Y-154000000D03*
%TO.P,D42,2*%
%TO.N,rinner_top*%
X257650000Y-154000000D03*
D12*
X259810000Y-154000000D03*
%TD*%
D10*
%TO.P,D7,1*%
%TO.N,P7*%
X114190000Y-171000000D03*
D11*
X116350000Y-171000000D03*
%TO.P,D7,2*%
%TO.N,louter_home*%
X119650000Y-171000000D03*
D12*
X121810000Y-171000000D03*
%TD*%
D10*
%TO.P,D25,1*%
%TO.N,P5*%
X168190000Y-137000000D03*
D11*
X170350000Y-137000000D03*
%TO.P,D25,2*%
%TO.N,lmiddle_num*%
X173650000Y-137000000D03*
D12*
X175810000Y-137000000D03*
%TD*%
D10*
%TO.P,D3,1*%
%TO.N,P6*%
X96190000Y-154000000D03*
D11*
X98350000Y-154000000D03*
%TO.P,D3,2*%
%TO.N,lmacro_top*%
X101650000Y-154000000D03*
D12*
X103810000Y-154000000D03*
%TD*%
D13*
%TO.P,_7,1*%
%TO.N,N/C*%
X326350000Y-199000000D03*
X326833274Y-197833274D03*
X326833274Y-200166726D03*
X328000000Y-197350000D03*
D14*
X328000000Y-199000000D03*
D13*
X328000000Y-200650000D03*
X329166726Y-197833274D03*
X329166726Y-200166726D03*
X329650000Y-199000000D03*
%TD*%
%TO.P,_5,1*%
%TO.N,N/C*%
X98350000Y-199000000D03*
X98833274Y-197833274D03*
X98833274Y-200166726D03*
X100000000Y-197350000D03*
D14*
X100000000Y-199000000D03*
D13*
X100000000Y-200650000D03*
X101166726Y-197833274D03*
X101166726Y-200166726D03*
X101650000Y-199000000D03*
%TD*%
D15*
%TO.P,MCU1,1*%
%TO.N,RAW*%
X237620000Y-108530000D03*
D16*
%TO.P,MCU1,2*%
%TO.N,GND*%
X237620000Y-111070000D03*
%TO.P,MCU1,3*%
%TO.N,RST*%
X237620000Y-113610000D03*
%TO.P,MCU1,4*%
%TO.N,VCC*%
X237620000Y-116150000D03*
%TO.P,MCU1,5*%
%TO.N,P21*%
X237620000Y-118690000D03*
%TO.P,MCU1,6*%
%TO.N,P20*%
X237620000Y-121230000D03*
%TO.P,MCU1,7*%
%TO.N,P19*%
X237620000Y-123770000D03*
%TO.P,MCU1,8*%
%TO.N,P18*%
X237620000Y-126310000D03*
%TO.P,MCU1,9*%
%TO.N,P15*%
X237620000Y-128850000D03*
%TO.P,MCU1,10*%
%TO.N,P14*%
X237620000Y-131390000D03*
%TO.P,MCU1,11*%
%TO.N,P16*%
X237620000Y-133930000D03*
%TO.P,MCU1,12*%
%TO.N,P10*%
X237620000Y-136470000D03*
%TO.P,MCU1,13*%
%TO.N,P1*%
X222380000Y-108530000D03*
%TO.P,MCU1,14*%
%TO.N,P0*%
X222380000Y-111070000D03*
%TO.P,MCU1,15*%
%TO.N,GND*%
X222380000Y-113610000D03*
%TO.P,MCU1,16*%
X222380000Y-116150000D03*
%TO.P,MCU1,17*%
%TO.N,P2*%
X222380000Y-118690000D03*
%TO.P,MCU1,18*%
%TO.N,P3*%
X222380000Y-121230000D03*
%TO.P,MCU1,19*%
%TO.N,P4*%
X222380000Y-123770000D03*
%TO.P,MCU1,20*%
%TO.N,P5*%
X222380000Y-126310000D03*
%TO.P,MCU1,21*%
%TO.N,P6*%
X222380000Y-128850000D03*
%TO.P,MCU1,22*%
%TO.N,P7*%
X222380000Y-131390000D03*
%TO.P,MCU1,23*%
%TO.N,P8*%
X222380000Y-133930000D03*
%TO.P,MCU1,24*%
%TO.N,P9*%
X222380000Y-136470000D03*
%TD*%
D10*
%TO.P,D23,1*%
%TO.N,P7*%
X168190000Y-171000000D03*
D11*
X170350000Y-171000000D03*
%TO.P,D23,2*%
%TO.N,lmiddle_home*%
X173650000Y-171000000D03*
D12*
X175810000Y-171000000D03*
%TD*%
D10*
%TO.P,D10,1*%
%TO.N,P4*%
X114190000Y-120000000D03*
D11*
X116350000Y-120000000D03*
%TO.P,D10,2*%
%TO.N,louter_function*%
X119650000Y-120000000D03*
D12*
X121810000Y-120000000D03*
%TD*%
D10*
%TO.P,D2,1*%
%TO.N,P7*%
X96190000Y-171000000D03*
D11*
X98350000Y-171000000D03*
%TO.P,D2,2*%
%TO.N,lmacro_home*%
X101650000Y-171000000D03*
D12*
X103810000Y-171000000D03*
%TD*%
D10*
%TO.P,D22,1*%
%TO.N,P8*%
X168190000Y-188000000D03*
D11*
X170350000Y-188000000D03*
%TO.P,D22,2*%
%TO.N,lmiddle_bottom*%
X173650000Y-188000000D03*
D12*
X175810000Y-188000000D03*
%TD*%
D10*
%TO.P,D6,1*%
%TO.N,P8*%
X114190000Y-188000000D03*
D11*
X116350000Y-188000000D03*
%TO.P,D6,2*%
%TO.N,louter_bottom*%
X119650000Y-188000000D03*
D12*
X121810000Y-188000000D03*
%TD*%
D10*
%TO.P,D29,1*%
%TO.N,P7*%
X186190000Y-171000000D03*
D11*
X188350000Y-171000000D03*
%TO.P,D29,2*%
%TO.N,lindex_home*%
X191650000Y-171000000D03*
D12*
X193810000Y-171000000D03*
%TD*%
D10*
%TO.P,D41,1*%
%TO.N,P7*%
X252190000Y-171000000D03*
D11*
X254350000Y-171000000D03*
%TO.P,D41,2*%
%TO.N,rinner_home*%
X257650000Y-171000000D03*
D12*
X259810000Y-171000000D03*
%TD*%
D10*
%TO.P,D48,1*%
%TO.N,P8*%
X288190000Y-188000000D03*
D11*
X290350000Y-188000000D03*
%TO.P,D48,2*%
%TO.N,rmiddle_bottom*%
X293650000Y-188000000D03*
D12*
X295810000Y-188000000D03*
%TD*%
D13*
%TO.P,_6,1*%
%TO.N,N/C*%
X218350000Y-200000000D03*
X218833274Y-198833274D03*
X218833274Y-201166726D03*
X220000000Y-198350000D03*
D14*
X220000000Y-200000000D03*
D13*
X220000000Y-201650000D03*
X221166726Y-198833274D03*
X221166726Y-201166726D03*
X221650000Y-200000000D03*
%TD*%
D10*
%TO.P,D1,1*%
%TO.N,P8*%
X96190000Y-188000000D03*
D11*
X98350000Y-188000000D03*
%TO.P,D1,2*%
%TO.N,lmacro_bottom*%
X101650000Y-188000000D03*
D12*
X103810000Y-188000000D03*
%TD*%
D13*
%TO.P,_1,1*%
%TO.N,N/C*%
X106350000Y-123000000D03*
X106833274Y-121833274D03*
X106833274Y-124166726D03*
X108000000Y-121350000D03*
D14*
X108000000Y-123000000D03*
D13*
X108000000Y-124650000D03*
X109166726Y-121833274D03*
X109166726Y-124166726D03*
X109650000Y-123000000D03*
%TD*%
D10*
%TO.P,D55,1*%
%TO.N,P7*%
X324190000Y-171000000D03*
D11*
X326350000Y-171000000D03*
%TO.P,D55,2*%
%TO.N,rpinky_home*%
X329650000Y-171000000D03*
D12*
X331810000Y-171000000D03*
%TD*%
D10*
%TO.P,D46,1*%
%TO.N,P6*%
X270190000Y-154000000D03*
D11*
X272350000Y-154000000D03*
%TO.P,D46,2*%
%TO.N,rindex_top*%
X275650000Y-154000000D03*
D12*
X277810000Y-154000000D03*
%TD*%
D10*
%TO.P,D53,1*%
%TO.N,P6*%
X306190000Y-154000000D03*
D11*
X308350000Y-154000000D03*
%TO.P,D53,2*%
%TO.N,rring_top*%
X311650000Y-154000000D03*
D12*
X313810000Y-154000000D03*
%TD*%
D10*
%TO.P,D37,1*%
%TO.N,P5*%
X204190000Y-137000000D03*
D11*
X206350000Y-137000000D03*
%TO.P,D37,2*%
%TO.N,linner_num*%
X209650000Y-137000000D03*
D12*
X211810000Y-137000000D03*
%TD*%
D10*
%TO.P,D12,1*%
%TO.N,P7*%
X132190000Y-171000000D03*
D11*
X134350000Y-171000000D03*
%TO.P,D12,2*%
%TO.N,lpinky_home*%
X137650000Y-171000000D03*
D12*
X139810000Y-171000000D03*
%TD*%
D10*
%TO.P,D35,1*%
%TO.N,P7*%
X204190000Y-171000000D03*
D11*
X206350000Y-171000000D03*
%TO.P,D35,2*%
%TO.N,linner_home*%
X209650000Y-171000000D03*
D12*
X211810000Y-171000000D03*
%TD*%
D10*
%TO.P,D56,1*%
%TO.N,P6*%
X324190000Y-154000000D03*
D11*
X326350000Y-154000000D03*
%TO.P,D56,2*%
%TO.N,rpinky_top*%
X329650000Y-154000000D03*
D12*
X331810000Y-154000000D03*
%TD*%
D17*
%TO.N,P1*%
X98401100Y-106580000D03*
%TO.N,P0*%
X115427000Y-107215000D03*
%TO.N,P2*%
X138130000Y-117847500D03*
%TO.N,P3*%
X154194700Y-118490100D03*
%TD*%
D18*
%TO.N,P1*%
X220430000Y-106580000D02*
X98401100Y-106580000D01*
X222380000Y-108530000D02*
X220430000Y-106580000D01*
%TO.N,lmacro_bottom*%
X103810000Y-188000000D02*
X101650000Y-188000000D01*
%TO.N,lmacro_home*%
X103810000Y-171000000D02*
X101650000Y-171000000D01*
%TO.N,lmacro_top*%
X103810000Y-154000000D02*
X101650000Y-154000000D01*
%TO.N,lmacro_num*%
X103810000Y-137000000D02*
X101650000Y-137000000D01*
%TO.N,lmacro_function*%
X103810000Y-120000000D02*
X101650000Y-120000000D01*
%TO.N,P0*%
X218308300Y-106998300D02*
X115643700Y-106998300D01*
X115643700Y-106998300D02*
X115427000Y-107215000D01*
X222380000Y-111070000D02*
X218308300Y-106998300D01*
%TO.N,louter_bottom*%
X121810000Y-188000000D02*
X119650000Y-188000000D01*
%TO.N,louter_home*%
X121810000Y-171000000D02*
X119650000Y-171000000D01*
%TO.N,louter_top*%
X121810000Y-154000000D02*
X119650000Y-154000000D01*
%TO.N,louter_num*%
X121810000Y-137000000D02*
X119650000Y-137000000D01*
%TO.N,louter_function*%
X121810000Y-120000000D02*
X119650000Y-120000000D01*
%TO.N,P2*%
X222380000Y-118690000D02*
X221537500Y-117847500D01*
X221537500Y-117847500D02*
X138130000Y-117847500D01*
%TO.N,lpinky_bottom*%
X139810000Y-188000000D02*
X137650000Y-188000000D01*
%TO.N,lpinky_home*%
X139810000Y-171000000D02*
X137650000Y-171000000D01*
%TO.N,lpinky_top*%
X139810000Y-154000000D02*
X137650000Y-154000000D01*
%TO.N,lpinky_num*%
X139810000Y-137000000D02*
X137650000Y-137000000D01*
%TO.N,lpinky_function*%
X139810000Y-120000000D02*
X137650000Y-120000000D01*
%TO.N,P3*%
X154366400Y-118318400D02*
X219468400Y-118318400D01*
X219468400Y-118318400D02*
X222380000Y-121230000D01*
X154194700Y-118490100D02*
X154366400Y-118318400D01*
%TO.N,lring_bottom*%
X157810000Y-188000000D02*
X155650000Y-188000000D01*
%TO.N,lring_home*%
X157810000Y-171000000D02*
X155650000Y-171000000D01*
%TO.N,lring_top*%
X157810000Y-154000000D02*
X155650000Y-154000000D01*
%TO.N,lring_num*%
X157810000Y-137000000D02*
X155650000Y-137000000D01*
%TO.N,lring_function*%
X157810000Y-120000000D02*
X155650000Y-120000000D01*
%TO.N,lmiddle_mod*%
X175810000Y-205000000D02*
X173650000Y-205000000D01*
%TO.N,lmiddle_bottom*%
X175810000Y-188000000D02*
X173650000Y-188000000D01*
%TO.N,lmiddle_home*%
X175810000Y-171000000D02*
X173650000Y-171000000D01*
%TO.N,lmiddle_top*%
X175810000Y-154000000D02*
X173650000Y-154000000D01*
%TO.N,lmiddle_num*%
X175810000Y-137000000D02*
X173650000Y-137000000D01*
%TO.N,lmiddle_function*%
X175810000Y-120000000D02*
X173650000Y-120000000D01*
%TO.N,lindex_mod*%
X193810000Y-205000000D02*
X191650000Y-205000000D01*
%TO.N,lindex_bottom*%
X193810000Y-188000000D02*
X191650000Y-188000000D01*
%TO.N,lindex_home*%
X193810000Y-171000000D02*
X191650000Y-171000000D01*
%TO.N,lindex_top*%
X193810000Y-154000000D02*
X191650000Y-154000000D01*
%TO.N,lindex_num*%
X193810000Y-137000000D02*
X191650000Y-137000000D01*
%TO.N,lindex_function*%
X193810000Y-120000000D02*
X191650000Y-120000000D01*
%TO.N,linner_mod*%
X211810000Y-205000000D02*
X209650000Y-205000000D01*
%TO.N,linner_bottom*%
X211810000Y-188000000D02*
X209650000Y-188000000D01*
%TO.N,linner_home*%
X211810000Y-171000000D02*
X209650000Y-171000000D01*
%TO.N,linner_top*%
X211810000Y-154000000D02*
X209650000Y-154000000D01*
%TO.N,linner_num*%
X211810000Y-137000000D02*
X209650000Y-137000000D01*
%TO.N,linner_function*%
X211810000Y-120000000D02*
X209650000Y-120000000D01*
%TO.N,rinner_mod*%
X259810000Y-205000000D02*
X257650000Y-205000000D01*
%TO.N,rinner_bottom*%
X259810000Y-188000000D02*
X257650000Y-188000000D01*
%TO.N,rinner_home*%
X259810000Y-171000000D02*
X257650000Y-171000000D01*
%TO.N,rinner_top*%
X259810000Y-154000000D02*
X257650000Y-154000000D01*
%TO.N,rindex_mod*%
X277810000Y-205000000D02*
X275650000Y-205000000D01*
%TO.N,rindex_bottom*%
X277810000Y-188000000D02*
X275650000Y-188000000D01*
%TO.N,rindex_home*%
X277810000Y-171000000D02*
X275650000Y-171000000D01*
%TO.N,rindex_top*%
X277810000Y-154000000D02*
X275650000Y-154000000D01*
%TO.N,rmiddle_mod*%
X295810000Y-205000000D02*
X293650000Y-205000000D01*
%TO.N,rmiddle_bottom*%
X295810000Y-188000000D02*
X293650000Y-188000000D01*
%TO.N,rmiddle_home*%
X295810000Y-171000000D02*
X293650000Y-171000000D01*
%TO.N,rmiddle_top*%
X295810000Y-154000000D02*
X293650000Y-154000000D01*
%TO.N,rring_bottom*%
X313810000Y-188000000D02*
X311650000Y-188000000D01*
%TO.N,rring_home*%
X313810000Y-171000000D02*
X311650000Y-171000000D01*
%TO.N,rring_top*%
X313810000Y-154000000D02*
X311650000Y-154000000D01*
%TO.N,rpinky_bottom*%
X331810000Y-188000000D02*
X329650000Y-188000000D01*
%TO.N,rpinky_home*%
X331810000Y-171000000D02*
X329650000Y-171000000D01*
%TO.N,rpinky_top*%
X331810000Y-154000000D02*
X329650000Y-154000000D01*
%TO.N,P8*%
X166999300Y-188000000D02*
X165728500Y-186729200D01*
X290350000Y-188000000D02*
X291101700Y-188000000D01*
X308350000Y-188000000D02*
X309101700Y-188000000D01*
X165728500Y-186729200D02*
X154372500Y-186729200D01*
X150190000Y-188000000D02*
X148999300Y-188000000D01*
X96190000Y-188000000D02*
X98350000Y-188000000D01*
X303730200Y-189269100D02*
X304999300Y-188000000D01*
X270190000Y-188000000D02*
X268999300Y-188000000D01*
X147743000Y-186743700D02*
X148999300Y-188000000D01*
X324190000Y-188000000D02*
X322999300Y-188000000D01*
X99101700Y-188000000D02*
X100358000Y-186743700D01*
X288190000Y-188000000D02*
X286999300Y-188000000D01*
X326350000Y-188000000D02*
X324190000Y-188000000D01*
X206350000Y-188000000D02*
X207101700Y-188000000D01*
X207101700Y-188000000D02*
X208358000Y-186743700D01*
X152350000Y-188000000D02*
X153101700Y-188000000D01*
X306190000Y-188000000D02*
X304999300Y-188000000D01*
X171101700Y-188000000D02*
X172358000Y-186743700D01*
X208358000Y-186743700D02*
X249743000Y-186743700D01*
X186190000Y-188000000D02*
X184999300Y-188000000D01*
X129743000Y-186743700D02*
X130999300Y-188000000D01*
X321743000Y-186743700D02*
X322999300Y-188000000D01*
X306190000Y-188000000D02*
X308350000Y-188000000D01*
X114190000Y-188000000D02*
X112999300Y-188000000D01*
X255101700Y-188000000D02*
X256358000Y-186743700D01*
X135101700Y-188000000D02*
X136358000Y-186743700D01*
X201728500Y-186729200D02*
X190372500Y-186729200D01*
X98350000Y-188000000D02*
X99101700Y-188000000D01*
X152350000Y-188000000D02*
X150190000Y-188000000D01*
X256358000Y-186743700D02*
X267743000Y-186743700D01*
X285743000Y-186743700D02*
X286999300Y-188000000D01*
X202999300Y-188000000D02*
X201728500Y-186729200D01*
X170350000Y-188000000D02*
X168190000Y-188000000D01*
X190372500Y-186729200D02*
X189101700Y-188000000D01*
X291101700Y-188000000D02*
X292370800Y-189269100D01*
X310358000Y-186743700D02*
X321743000Y-186743700D01*
X111743000Y-186743700D02*
X112999300Y-188000000D01*
X132190000Y-188000000D02*
X130999300Y-188000000D01*
X136358000Y-186743700D02*
X147743000Y-186743700D01*
X270190000Y-188000000D02*
X272350000Y-188000000D01*
X204190000Y-188000000D02*
X206350000Y-188000000D01*
X100358000Y-186743700D02*
X111743000Y-186743700D01*
X114190000Y-188000000D02*
X116350000Y-188000000D01*
X116350000Y-188000000D02*
X117101700Y-188000000D01*
X183743000Y-186743700D02*
X184999300Y-188000000D01*
X292370800Y-189269100D02*
X303730200Y-189269100D01*
X170350000Y-188000000D02*
X171101700Y-188000000D01*
X188350000Y-188000000D02*
X189101700Y-188000000D01*
X204190000Y-188000000D02*
X202999300Y-188000000D01*
X288190000Y-188000000D02*
X290350000Y-188000000D01*
X188350000Y-188000000D02*
X186190000Y-188000000D01*
X134350000Y-188000000D02*
X135101700Y-188000000D01*
X267743000Y-186743700D02*
X268999300Y-188000000D01*
X309101700Y-188000000D02*
X310358000Y-186743700D01*
X254350000Y-188000000D02*
X255101700Y-188000000D01*
X249743000Y-186743700D02*
X250999300Y-188000000D01*
X132190000Y-188000000D02*
X134350000Y-188000000D01*
X118358000Y-186743700D02*
X129743000Y-186743700D01*
X117101700Y-188000000D02*
X118358000Y-186743700D01*
X154372500Y-186729200D02*
X153101700Y-188000000D01*
X272350000Y-188000000D02*
X273101700Y-188000000D01*
X273101700Y-188000000D02*
X274358000Y-186743700D01*
X252190000Y-188000000D02*
X254350000Y-188000000D01*
X274358000Y-186743700D02*
X285743000Y-186743700D01*
X168190000Y-188000000D02*
X166999300Y-188000000D01*
X172358000Y-186743700D02*
X183743000Y-186743700D01*
X252190000Y-188000000D02*
X250999300Y-188000000D01*
%TO.N,P7*%
X114190000Y-171000000D02*
X112999300Y-171000000D01*
X274358000Y-169743700D02*
X285743000Y-169743700D01*
X255101700Y-171000000D02*
X256358000Y-169743700D01*
X114190000Y-171000000D02*
X116350000Y-171000000D01*
X273101700Y-171000000D02*
X274358000Y-169743700D01*
X184999300Y-171000000D02*
X183675500Y-172323800D01*
X204190000Y-171000000D02*
X206350000Y-171000000D01*
X306190000Y-171000000D02*
X308350000Y-171000000D01*
X252190000Y-171000000D02*
X250999300Y-171000000D01*
X166999300Y-171000000D02*
X165728500Y-169729200D01*
X170350000Y-171000000D02*
X168190000Y-171000000D01*
X134350000Y-171000000D02*
X132190000Y-171000000D01*
X309101700Y-171000000D02*
X310358000Y-169743700D01*
X136358000Y-169743700D02*
X147743000Y-169743700D01*
X100358000Y-169743700D02*
X111743000Y-169743700D01*
X270190000Y-171000000D02*
X268999300Y-171000000D01*
X204190000Y-171000000D02*
X202999300Y-171000000D01*
X303743000Y-169743700D02*
X304999300Y-171000000D01*
X134350000Y-171000000D02*
X135101700Y-171000000D01*
X186190000Y-171000000D02*
X184999300Y-171000000D01*
X202999300Y-171000000D02*
X201675500Y-172323800D01*
X285743000Y-169743700D02*
X286999300Y-171000000D01*
X98350000Y-171000000D02*
X99101700Y-171000000D01*
X308350000Y-171000000D02*
X309101700Y-171000000D01*
X170350000Y-171000000D02*
X171101700Y-171000000D01*
X207101700Y-171000000D02*
X208358000Y-169743700D01*
X150190000Y-171000000D02*
X148999300Y-171000000D01*
X306190000Y-171000000D02*
X304999300Y-171000000D01*
X117101700Y-171000000D02*
X118355900Y-172254200D01*
X208358000Y-169743700D02*
X249743000Y-169743700D01*
X165728500Y-169729200D02*
X154372500Y-169729200D01*
X96190000Y-171000000D02*
X98350000Y-171000000D01*
X288190000Y-171000000D02*
X290350000Y-171000000D01*
X310358000Y-169743700D02*
X321743000Y-169743700D01*
X267743000Y-169743700D02*
X268999300Y-171000000D01*
X99101700Y-171000000D02*
X100358000Y-169743700D01*
X111743000Y-169743700D02*
X112999300Y-171000000D01*
X152350000Y-171000000D02*
X153101700Y-171000000D01*
X188350000Y-171000000D02*
X189101700Y-171000000D01*
X147743000Y-169743700D02*
X148999300Y-171000000D01*
X252190000Y-171000000D02*
X254350000Y-171000000D01*
X183675500Y-172323800D02*
X172425500Y-172323800D01*
X129745100Y-172254200D02*
X130999300Y-171000000D01*
X324190000Y-171000000D02*
X322999300Y-171000000D01*
X292358000Y-169743700D02*
X303743000Y-169743700D01*
X168190000Y-171000000D02*
X166999300Y-171000000D01*
X116350000Y-171000000D02*
X117101700Y-171000000D01*
X172425500Y-172323800D02*
X171101700Y-171000000D01*
X154372500Y-169729200D02*
X153101700Y-171000000D01*
X249743000Y-169743700D02*
X250999300Y-171000000D01*
X326350000Y-171000000D02*
X324190000Y-171000000D01*
X132190000Y-171000000D02*
X130999300Y-171000000D01*
X288190000Y-171000000D02*
X286999300Y-171000000D01*
X152350000Y-171000000D02*
X150190000Y-171000000D01*
X290350000Y-171000000D02*
X291101700Y-171000000D01*
X272350000Y-171000000D02*
X273101700Y-171000000D01*
X190425500Y-172323800D02*
X189101700Y-171000000D01*
X321743000Y-169743700D02*
X322999300Y-171000000D01*
X135101700Y-171000000D02*
X136358000Y-169743700D01*
X206350000Y-171000000D02*
X207101700Y-171000000D01*
X118355900Y-172254200D02*
X129745100Y-172254200D01*
X291101700Y-171000000D02*
X292358000Y-169743700D01*
X256358000Y-169743700D02*
X267743000Y-169743700D01*
X254350000Y-171000000D02*
X255101700Y-171000000D01*
X201675500Y-172323800D02*
X190425500Y-172323800D01*
X188350000Y-171000000D02*
X186190000Y-171000000D01*
X270190000Y-171000000D02*
X272350000Y-171000000D01*
%TO.N,P6*%
X223574100Y-130044100D02*
X223574100Y-152743700D01*
X100358000Y-152743700D02*
X111743000Y-152743700D01*
X188350000Y-154000000D02*
X189101700Y-154000000D01*
X130999300Y-154000000D02*
X129728500Y-152729200D01*
X99101700Y-154000000D02*
X100358000Y-152743700D01*
X98350000Y-154000000D02*
X99101700Y-154000000D01*
X201728500Y-152729200D02*
X190372500Y-152729200D01*
X170350000Y-154000000D02*
X171101700Y-154000000D01*
X208358000Y-152743700D02*
X223574100Y-152743700D01*
X290350000Y-154000000D02*
X291101700Y-154000000D01*
X129728500Y-152729200D02*
X118372500Y-152729200D01*
X326350000Y-154000000D02*
X324190000Y-154000000D01*
X132190000Y-154000000D02*
X130999300Y-154000000D01*
X254350000Y-154000000D02*
X255101700Y-154000000D01*
X288190000Y-154000000D02*
X290350000Y-154000000D01*
X136369600Y-152732100D02*
X135101700Y-154000000D01*
X204190000Y-154000000D02*
X202999300Y-154000000D01*
X166999300Y-154000000D02*
X165731400Y-152732100D01*
X134350000Y-154000000D02*
X132190000Y-154000000D01*
X206350000Y-154000000D02*
X207101700Y-154000000D01*
X306190000Y-154000000D02*
X308350000Y-154000000D01*
X306190000Y-154000000D02*
X304999300Y-154000000D01*
X223574100Y-152743700D02*
X249743000Y-152743700D01*
X324190000Y-154000000D02*
X322999300Y-154000000D01*
X310383900Y-152717800D02*
X321717100Y-152717800D01*
X267691800Y-152692500D02*
X268999300Y-154000000D01*
X134350000Y-154000000D02*
X135101700Y-154000000D01*
X171101700Y-154000000D02*
X172358000Y-152743700D01*
X252190000Y-154000000D02*
X250999300Y-154000000D01*
X147731400Y-152732100D02*
X136369600Y-152732100D01*
X291101700Y-154000000D02*
X292358000Y-152743700D01*
X186190000Y-154000000D02*
X184999300Y-154000000D01*
X150190000Y-154000000D02*
X148999300Y-154000000D01*
X222380000Y-128850000D02*
X223574100Y-130044100D01*
X288190000Y-154000000D02*
X286999300Y-154000000D01*
X118372500Y-152729200D02*
X117101700Y-154000000D01*
X255101700Y-154000000D02*
X256409200Y-152692500D01*
X256409200Y-152692500D02*
X267691800Y-152692500D01*
X270190000Y-154000000D02*
X268999300Y-154000000D01*
X285743000Y-152743700D02*
X286999300Y-154000000D01*
X207101700Y-154000000D02*
X208358000Y-152743700D01*
X206350000Y-154000000D02*
X204190000Y-154000000D01*
X190372500Y-152729200D02*
X189101700Y-154000000D01*
X168190000Y-154000000D02*
X166999300Y-154000000D01*
X172358000Y-152743700D02*
X183743000Y-152743700D01*
X148999300Y-154000000D02*
X147731400Y-152732100D01*
X202999300Y-154000000D02*
X201728500Y-152729200D01*
X321717100Y-152717800D02*
X322999300Y-154000000D01*
X272350000Y-154000000D02*
X270190000Y-154000000D01*
X274358000Y-152743700D02*
X285743000Y-152743700D01*
X249743000Y-152743700D02*
X250999300Y-154000000D01*
X170350000Y-154000000D02*
X168190000Y-154000000D01*
X183743000Y-152743700D02*
X184999300Y-154000000D01*
X154369600Y-152732100D02*
X153101700Y-154000000D01*
X273101700Y-154000000D02*
X274358000Y-152743700D01*
X254350000Y-154000000D02*
X252190000Y-154000000D01*
X152350000Y-154000000D02*
X150190000Y-154000000D01*
X116350000Y-154000000D02*
X114190000Y-154000000D01*
X116350000Y-154000000D02*
X117101700Y-154000000D01*
X308350000Y-154000000D02*
X309101700Y-154000000D01*
X309101700Y-154000000D02*
X310383900Y-152717800D01*
X96190000Y-154000000D02*
X98350000Y-154000000D01*
X303743000Y-152743700D02*
X304999300Y-154000000D01*
X165731400Y-152732100D02*
X154369600Y-152732100D01*
X114190000Y-154000000D02*
X112999300Y-154000000D01*
X111743000Y-152743700D02*
X112999300Y-154000000D01*
X152350000Y-154000000D02*
X153101700Y-154000000D01*
X188350000Y-154000000D02*
X186190000Y-154000000D01*
X292358000Y-152743700D02*
X303743000Y-152743700D01*
X272350000Y-154000000D02*
X273101700Y-154000000D01*
%TO.N,P5*%
X171101700Y-137000000D02*
X172358000Y-135743700D01*
X202999300Y-137000000D02*
X201728500Y-135729200D01*
X188350000Y-137000000D02*
X186190000Y-137000000D01*
X170350000Y-137000000D02*
X171101700Y-137000000D01*
X165675500Y-138323800D02*
X154425500Y-138323800D01*
X117101700Y-137000000D02*
X118358000Y-135743700D01*
X98350000Y-137000000D02*
X99101700Y-137000000D01*
X129743000Y-135743700D02*
X130999300Y-137000000D01*
X206350000Y-137000000D02*
X207101700Y-137000000D01*
X136372500Y-135729200D02*
X135101700Y-137000000D01*
X96190000Y-137000000D02*
X98350000Y-137000000D01*
X116350000Y-137000000D02*
X114190000Y-137000000D01*
X213436300Y-135253700D02*
X208848000Y-135253700D01*
X186190000Y-137000000D02*
X184999300Y-137000000D01*
X206350000Y-137000000D02*
X204190000Y-137000000D01*
X152350000Y-137000000D02*
X153101700Y-137000000D01*
X190372500Y-135729200D02*
X189101700Y-137000000D01*
X201728500Y-135729200D02*
X190372500Y-135729200D01*
X183743000Y-135743700D02*
X184999300Y-137000000D01*
X148999300Y-137000000D02*
X147728500Y-135729200D01*
X188350000Y-137000000D02*
X189101700Y-137000000D01*
X222380000Y-126310000D02*
X213436300Y-135253700D01*
X204190000Y-137000000D02*
X202999300Y-137000000D01*
X116350000Y-137000000D02*
X117101700Y-137000000D01*
X166999300Y-137000000D02*
X165675500Y-138323800D01*
X208848000Y-135253700D02*
X207101700Y-137000000D01*
X147728500Y-135729200D02*
X136372500Y-135729200D01*
X134350000Y-137000000D02*
X132190000Y-137000000D01*
X118358000Y-135743700D02*
X129743000Y-135743700D01*
X114190000Y-137000000D02*
X112999300Y-137000000D01*
X100358000Y-135743700D02*
X111743000Y-135743700D01*
X99101700Y-137000000D02*
X100358000Y-135743700D01*
X170350000Y-137000000D02*
X168190000Y-137000000D01*
X132190000Y-137000000D02*
X130999300Y-137000000D01*
X168190000Y-137000000D02*
X166999300Y-137000000D01*
X150190000Y-137000000D02*
X148999300Y-137000000D01*
X134350000Y-137000000D02*
X135101700Y-137000000D01*
X154425500Y-138323800D02*
X153101700Y-137000000D01*
X152350000Y-137000000D02*
X150190000Y-137000000D01*
X111743000Y-135743700D02*
X112999300Y-137000000D01*
X172358000Y-135743700D02*
X183743000Y-135743700D01*
%TO.N,P4*%
X111728500Y-118729200D02*
X100372500Y-118729200D01*
X129743000Y-118743700D02*
X130999300Y-120000000D01*
X222380000Y-123770000D02*
X210871700Y-123770000D01*
X136357300Y-118744400D02*
X135101700Y-120000000D01*
X201742300Y-118743000D02*
X202999300Y-120000000D01*
X206350000Y-120000000D02*
X207101700Y-120000000D01*
X114190000Y-120000000D02*
X112999300Y-120000000D01*
X152725900Y-120000000D02*
X153101700Y-120000000D01*
X190358700Y-118743000D02*
X201742300Y-118743000D01*
X152350000Y-120000000D02*
X150190000Y-120000000D01*
X172355900Y-118745800D02*
X171101700Y-120000000D01*
X132190000Y-120000000D02*
X134350000Y-120000000D01*
X210871700Y-123770000D02*
X207101700Y-120000000D01*
X188350000Y-120000000D02*
X189101700Y-120000000D01*
X153101700Y-120000000D02*
X153535700Y-120000000D01*
X186190000Y-120000000D02*
X184999300Y-120000000D01*
X206350000Y-120000000D02*
X204190000Y-120000000D01*
X98350000Y-120000000D02*
X99101700Y-120000000D01*
X100372500Y-118729200D02*
X99101700Y-120000000D01*
X183745100Y-118745800D02*
X172355900Y-118745800D01*
X132190000Y-120000000D02*
X130999300Y-120000000D01*
X152725900Y-120000000D02*
X152350000Y-120000000D01*
X189101700Y-120000000D02*
X190358700Y-118743000D01*
X134350000Y-120000000D02*
X135101700Y-120000000D01*
X116350000Y-120000000D02*
X117101700Y-120000000D01*
X116350000Y-120000000D02*
X114190000Y-120000000D01*
X184999300Y-120000000D02*
X183745100Y-118745800D01*
X98350000Y-120000000D02*
X96190000Y-120000000D01*
X170350000Y-120000000D02*
X168190000Y-120000000D01*
X118358000Y-118743700D02*
X129743000Y-118743700D01*
X150190000Y-120000000D02*
X148999300Y-120000000D01*
X153535700Y-120000000D02*
X154815600Y-118720100D01*
X168190000Y-120000000D02*
X166999300Y-120000000D01*
X188350000Y-120000000D02*
X186190000Y-120000000D01*
X148999300Y-120000000D02*
X147743700Y-118744400D01*
X165719400Y-118720100D02*
X166999300Y-120000000D01*
X112999300Y-120000000D02*
X111728500Y-118729200D01*
X154815600Y-118720100D02*
X165719400Y-118720100D01*
X117101700Y-120000000D02*
X118358000Y-118743700D01*
X147743700Y-118744400D02*
X136357300Y-118744400D01*
X170350000Y-120000000D02*
X171101700Y-120000000D01*
X204190000Y-120000000D02*
X202999300Y-120000000D01*
%TO.N,P9*%
X188350000Y-205000000D02*
X186190000Y-205000000D01*
X190372500Y-203729200D02*
X189101700Y-205000000D01*
X268999300Y-205000000D02*
X267728500Y-203729200D01*
X272350000Y-205000000D02*
X270190000Y-205000000D01*
X256372500Y-203729200D02*
X255101700Y-205000000D01*
X168190000Y-205000000D02*
X170350000Y-205000000D01*
X172358000Y-203743700D02*
X183743000Y-203743700D01*
X206350000Y-205000000D02*
X204190000Y-205000000D01*
X272350000Y-205000000D02*
X273101700Y-205000000D01*
X183743000Y-203743700D02*
X184999300Y-205000000D01*
X188350000Y-205000000D02*
X189101700Y-205000000D01*
X288190000Y-205000000D02*
X286999300Y-205000000D01*
X171101700Y-205000000D02*
X172358000Y-203743700D01*
X204190000Y-205000000D02*
X202999300Y-205000000D01*
X267728500Y-203729200D02*
X256372500Y-203729200D01*
X270190000Y-205000000D02*
X268999300Y-205000000D01*
X274358000Y-203743700D02*
X285743000Y-203743700D01*
X273101700Y-205000000D02*
X274358000Y-203743700D01*
X201728500Y-203729200D02*
X190372500Y-203729200D01*
X290350000Y-205000000D02*
X288190000Y-205000000D01*
X170350000Y-205000000D02*
X171101700Y-205000000D01*
X202999300Y-205000000D02*
X201728500Y-203729200D01*
X186190000Y-205000000D02*
X184999300Y-205000000D01*
X254725900Y-205000000D02*
X254350000Y-205000000D01*
X285743000Y-203743700D02*
X286999300Y-205000000D01*
X254350000Y-205000000D02*
X252190000Y-205000000D01*
X254725900Y-205000000D02*
X255101700Y-205000000D01*
%TO.N,GND*%
X224920000Y-111070000D02*
X237620000Y-111070000D01*
X222380000Y-113610000D02*
X224920000Y-111070000D01*
%TD*%
M02*
