%TF.GenerationSoftware,KiCad,Pcbnew,8.0.2*%
%TF.CreationDate,2024-06-03T01:18:46-04:00*%
%TF.ProjectId,unisplitchoc,756e6973-706c-4697-9463-686f632e6b69,v1.0.0*%
%TF.SameCoordinates,Original*%
%TF.FileFunction,Legend,Top*%
%TF.FilePolarity,Positive*%
%FSLAX46Y46*%
G04 Gerber Fmt 4.6, Leading zero omitted, Abs format (unit mm)*
G04 Created by KiCad (PCBNEW 8.0.2) date 2024-06-03 01:18:46*
%MOMM*%
%LPD*%
G01*
G04 APERTURE LIST*
%ADD10C,0.150000*%
%ADD11C,0.100000*%
%ADD12R,1.752600X1.752600*%
%ADD13C,1.752600*%
G04 APERTURE END LIST*
D10*
X224228571Y-136832295D02*
X224228571Y-136032295D01*
X224228571Y-136032295D02*
X224533333Y-136032295D01*
X224533333Y-136032295D02*
X224609523Y-136070390D01*
X224609523Y-136070390D02*
X224647618Y-136108485D01*
X224647618Y-136108485D02*
X224685714Y-136184676D01*
X224685714Y-136184676D02*
X224685714Y-136298961D01*
X224685714Y-136298961D02*
X224647618Y-136375152D01*
X224647618Y-136375152D02*
X224609523Y-136413247D01*
X224609523Y-136413247D02*
X224533333Y-136451342D01*
X224533333Y-136451342D02*
X224228571Y-136451342D01*
X225180952Y-136032295D02*
X225257142Y-136032295D01*
X225257142Y-136032295D02*
X225333333Y-136070390D01*
X225333333Y-136070390D02*
X225371428Y-136108485D01*
X225371428Y-136108485D02*
X225409523Y-136184676D01*
X225409523Y-136184676D02*
X225447618Y-136337057D01*
X225447618Y-136337057D02*
X225447618Y-136527533D01*
X225447618Y-136527533D02*
X225409523Y-136679914D01*
X225409523Y-136679914D02*
X225371428Y-136756104D01*
X225371428Y-136756104D02*
X225333333Y-136794200D01*
X225333333Y-136794200D02*
X225257142Y-136832295D01*
X225257142Y-136832295D02*
X225180952Y-136832295D01*
X225180952Y-136832295D02*
X225104761Y-136794200D01*
X225104761Y-136794200D02*
X225066666Y-136756104D01*
X225066666Y-136756104D02*
X225028571Y-136679914D01*
X225028571Y-136679914D02*
X224990475Y-136527533D01*
X224990475Y-136527533D02*
X224990475Y-136337057D01*
X224990475Y-136337057D02*
X225028571Y-136184676D01*
X225028571Y-136184676D02*
X225066666Y-136108485D01*
X225066666Y-136108485D02*
X225104761Y-136070390D01*
X225104761Y-136070390D02*
X225180952Y-136032295D01*
X225828571Y-136832295D02*
X225980952Y-136832295D01*
X225980952Y-136832295D02*
X226057142Y-136794200D01*
X226057142Y-136794200D02*
X226095238Y-136756104D01*
X226095238Y-136756104D02*
X226171428Y-136641819D01*
X226171428Y-136641819D02*
X226209523Y-136489438D01*
X226209523Y-136489438D02*
X226209523Y-136184676D01*
X226209523Y-136184676D02*
X226171428Y-136108485D01*
X226171428Y-136108485D02*
X226133333Y-136070390D01*
X226133333Y-136070390D02*
X226057142Y-136032295D01*
X226057142Y-136032295D02*
X225904761Y-136032295D01*
X225904761Y-136032295D02*
X225828571Y-136070390D01*
X225828571Y-136070390D02*
X225790476Y-136108485D01*
X225790476Y-136108485D02*
X225752380Y-136184676D01*
X225752380Y-136184676D02*
X225752380Y-136375152D01*
X225752380Y-136375152D02*
X225790476Y-136451342D01*
X225790476Y-136451342D02*
X225828571Y-136489438D01*
X225828571Y-136489438D02*
X225904761Y-136527533D01*
X225904761Y-136527533D02*
X226057142Y-136527533D01*
X226057142Y-136527533D02*
X226133333Y-136489438D01*
X226133333Y-136489438D02*
X226171428Y-136451342D01*
X226171428Y-136451342D02*
X226209523Y-136375152D01*
X234361905Y-113972295D02*
X234095238Y-113591342D01*
X233904762Y-113972295D02*
X233904762Y-113172295D01*
X233904762Y-113172295D02*
X234209524Y-113172295D01*
X234209524Y-113172295D02*
X234285714Y-113210390D01*
X234285714Y-113210390D02*
X234323809Y-113248485D01*
X234323809Y-113248485D02*
X234361905Y-113324676D01*
X234361905Y-113324676D02*
X234361905Y-113438961D01*
X234361905Y-113438961D02*
X234323809Y-113515152D01*
X234323809Y-113515152D02*
X234285714Y-113553247D01*
X234285714Y-113553247D02*
X234209524Y-113591342D01*
X234209524Y-113591342D02*
X233904762Y-113591342D01*
X234666666Y-113934200D02*
X234780952Y-113972295D01*
X234780952Y-113972295D02*
X234971428Y-113972295D01*
X234971428Y-113972295D02*
X235047619Y-113934200D01*
X235047619Y-113934200D02*
X235085714Y-113896104D01*
X235085714Y-113896104D02*
X235123809Y-113819914D01*
X235123809Y-113819914D02*
X235123809Y-113743723D01*
X235123809Y-113743723D02*
X235085714Y-113667533D01*
X235085714Y-113667533D02*
X235047619Y-113629438D01*
X235047619Y-113629438D02*
X234971428Y-113591342D01*
X234971428Y-113591342D02*
X234819047Y-113553247D01*
X234819047Y-113553247D02*
X234742857Y-113515152D01*
X234742857Y-113515152D02*
X234704762Y-113477057D01*
X234704762Y-113477057D02*
X234666666Y-113400866D01*
X234666666Y-113400866D02*
X234666666Y-113324676D01*
X234666666Y-113324676D02*
X234704762Y-113248485D01*
X234704762Y-113248485D02*
X234742857Y-113210390D01*
X234742857Y-113210390D02*
X234819047Y-113172295D01*
X234819047Y-113172295D02*
X235009524Y-113172295D01*
X235009524Y-113172295D02*
X235123809Y-113210390D01*
X235352381Y-113172295D02*
X235809524Y-113172295D01*
X235580952Y-113972295D02*
X235580952Y-113172295D01*
X224228571Y-129212295D02*
X224228571Y-128412295D01*
X224228571Y-128412295D02*
X224533333Y-128412295D01*
X224533333Y-128412295D02*
X224609523Y-128450390D01*
X224609523Y-128450390D02*
X224647618Y-128488485D01*
X224647618Y-128488485D02*
X224685714Y-128564676D01*
X224685714Y-128564676D02*
X224685714Y-128678961D01*
X224685714Y-128678961D02*
X224647618Y-128755152D01*
X224647618Y-128755152D02*
X224609523Y-128793247D01*
X224609523Y-128793247D02*
X224533333Y-128831342D01*
X224533333Y-128831342D02*
X224228571Y-128831342D01*
X225180952Y-128412295D02*
X225257142Y-128412295D01*
X225257142Y-128412295D02*
X225333333Y-128450390D01*
X225333333Y-128450390D02*
X225371428Y-128488485D01*
X225371428Y-128488485D02*
X225409523Y-128564676D01*
X225409523Y-128564676D02*
X225447618Y-128717057D01*
X225447618Y-128717057D02*
X225447618Y-128907533D01*
X225447618Y-128907533D02*
X225409523Y-129059914D01*
X225409523Y-129059914D02*
X225371428Y-129136104D01*
X225371428Y-129136104D02*
X225333333Y-129174200D01*
X225333333Y-129174200D02*
X225257142Y-129212295D01*
X225257142Y-129212295D02*
X225180952Y-129212295D01*
X225180952Y-129212295D02*
X225104761Y-129174200D01*
X225104761Y-129174200D02*
X225066666Y-129136104D01*
X225066666Y-129136104D02*
X225028571Y-129059914D01*
X225028571Y-129059914D02*
X224990475Y-128907533D01*
X224990475Y-128907533D02*
X224990475Y-128717057D01*
X224990475Y-128717057D02*
X225028571Y-128564676D01*
X225028571Y-128564676D02*
X225066666Y-128488485D01*
X225066666Y-128488485D02*
X225104761Y-128450390D01*
X225104761Y-128450390D02*
X225180952Y-128412295D01*
X226133333Y-128412295D02*
X225980952Y-128412295D01*
X225980952Y-128412295D02*
X225904761Y-128450390D01*
X225904761Y-128450390D02*
X225866666Y-128488485D01*
X225866666Y-128488485D02*
X225790476Y-128602771D01*
X225790476Y-128602771D02*
X225752380Y-128755152D01*
X225752380Y-128755152D02*
X225752380Y-129059914D01*
X225752380Y-129059914D02*
X225790476Y-129136104D01*
X225790476Y-129136104D02*
X225828571Y-129174200D01*
X225828571Y-129174200D02*
X225904761Y-129212295D01*
X225904761Y-129212295D02*
X226057142Y-129212295D01*
X226057142Y-129212295D02*
X226133333Y-129174200D01*
X226133333Y-129174200D02*
X226171428Y-129136104D01*
X226171428Y-129136104D02*
X226209523Y-129059914D01*
X226209523Y-129059914D02*
X226209523Y-128869438D01*
X226209523Y-128869438D02*
X226171428Y-128793247D01*
X226171428Y-128793247D02*
X226133333Y-128755152D01*
X226133333Y-128755152D02*
X226057142Y-128717057D01*
X226057142Y-128717057D02*
X225904761Y-128717057D01*
X225904761Y-128717057D02*
X225828571Y-128755152D01*
X225828571Y-128755152D02*
X225790476Y-128793247D01*
X225790476Y-128793247D02*
X225752380Y-128869438D01*
X233828571Y-124132295D02*
X233828571Y-123332295D01*
X233828571Y-123332295D02*
X234133333Y-123332295D01*
X234133333Y-123332295D02*
X234209523Y-123370390D01*
X234209523Y-123370390D02*
X234247618Y-123408485D01*
X234247618Y-123408485D02*
X234285714Y-123484676D01*
X234285714Y-123484676D02*
X234285714Y-123598961D01*
X234285714Y-123598961D02*
X234247618Y-123675152D01*
X234247618Y-123675152D02*
X234209523Y-123713247D01*
X234209523Y-123713247D02*
X234133333Y-123751342D01*
X234133333Y-123751342D02*
X233828571Y-123751342D01*
X235047618Y-124132295D02*
X234590475Y-124132295D01*
X234819047Y-124132295D02*
X234819047Y-123332295D01*
X234819047Y-123332295D02*
X234742856Y-123446580D01*
X234742856Y-123446580D02*
X234666666Y-123522771D01*
X234666666Y-123522771D02*
X234590475Y-123560866D01*
X235428571Y-124132295D02*
X235580952Y-124132295D01*
X235580952Y-124132295D02*
X235657142Y-124094200D01*
X235657142Y-124094200D02*
X235695238Y-124056104D01*
X235695238Y-124056104D02*
X235771428Y-123941819D01*
X235771428Y-123941819D02*
X235809523Y-123789438D01*
X235809523Y-123789438D02*
X235809523Y-123484676D01*
X235809523Y-123484676D02*
X235771428Y-123408485D01*
X235771428Y-123408485D02*
X235733333Y-123370390D01*
X235733333Y-123370390D02*
X235657142Y-123332295D01*
X235657142Y-123332295D02*
X235504761Y-123332295D01*
X235504761Y-123332295D02*
X235428571Y-123370390D01*
X235428571Y-123370390D02*
X235390476Y-123408485D01*
X235390476Y-123408485D02*
X235352380Y-123484676D01*
X235352380Y-123484676D02*
X235352380Y-123675152D01*
X235352380Y-123675152D02*
X235390476Y-123751342D01*
X235390476Y-123751342D02*
X235428571Y-123789438D01*
X235428571Y-123789438D02*
X235504761Y-123827533D01*
X235504761Y-123827533D02*
X235657142Y-123827533D01*
X235657142Y-123827533D02*
X235733333Y-123789438D01*
X235733333Y-123789438D02*
X235771428Y-123751342D01*
X235771428Y-123751342D02*
X235809523Y-123675152D01*
X233828571Y-126672295D02*
X233828571Y-125872295D01*
X233828571Y-125872295D02*
X234133333Y-125872295D01*
X234133333Y-125872295D02*
X234209523Y-125910390D01*
X234209523Y-125910390D02*
X234247618Y-125948485D01*
X234247618Y-125948485D02*
X234285714Y-126024676D01*
X234285714Y-126024676D02*
X234285714Y-126138961D01*
X234285714Y-126138961D02*
X234247618Y-126215152D01*
X234247618Y-126215152D02*
X234209523Y-126253247D01*
X234209523Y-126253247D02*
X234133333Y-126291342D01*
X234133333Y-126291342D02*
X233828571Y-126291342D01*
X235047618Y-126672295D02*
X234590475Y-126672295D01*
X234819047Y-126672295D02*
X234819047Y-125872295D01*
X234819047Y-125872295D02*
X234742856Y-125986580D01*
X234742856Y-125986580D02*
X234666666Y-126062771D01*
X234666666Y-126062771D02*
X234590475Y-126100866D01*
X235504761Y-126215152D02*
X235428571Y-126177057D01*
X235428571Y-126177057D02*
X235390476Y-126138961D01*
X235390476Y-126138961D02*
X235352380Y-126062771D01*
X235352380Y-126062771D02*
X235352380Y-126024676D01*
X235352380Y-126024676D02*
X235390476Y-125948485D01*
X235390476Y-125948485D02*
X235428571Y-125910390D01*
X235428571Y-125910390D02*
X235504761Y-125872295D01*
X235504761Y-125872295D02*
X235657142Y-125872295D01*
X235657142Y-125872295D02*
X235733333Y-125910390D01*
X235733333Y-125910390D02*
X235771428Y-125948485D01*
X235771428Y-125948485D02*
X235809523Y-126024676D01*
X235809523Y-126024676D02*
X235809523Y-126062771D01*
X235809523Y-126062771D02*
X235771428Y-126138961D01*
X235771428Y-126138961D02*
X235733333Y-126177057D01*
X235733333Y-126177057D02*
X235657142Y-126215152D01*
X235657142Y-126215152D02*
X235504761Y-126215152D01*
X235504761Y-126215152D02*
X235428571Y-126253247D01*
X235428571Y-126253247D02*
X235390476Y-126291342D01*
X235390476Y-126291342D02*
X235352380Y-126367533D01*
X235352380Y-126367533D02*
X235352380Y-126519914D01*
X235352380Y-126519914D02*
X235390476Y-126596104D01*
X235390476Y-126596104D02*
X235428571Y-126634200D01*
X235428571Y-126634200D02*
X235504761Y-126672295D01*
X235504761Y-126672295D02*
X235657142Y-126672295D01*
X235657142Y-126672295D02*
X235733333Y-126634200D01*
X235733333Y-126634200D02*
X235771428Y-126596104D01*
X235771428Y-126596104D02*
X235809523Y-126519914D01*
X235809523Y-126519914D02*
X235809523Y-126367533D01*
X235809523Y-126367533D02*
X235771428Y-126291342D01*
X235771428Y-126291342D02*
X235733333Y-126253247D01*
X235733333Y-126253247D02*
X235657142Y-126215152D01*
X224590476Y-115750390D02*
X224514286Y-115712295D01*
X224514286Y-115712295D02*
X224400000Y-115712295D01*
X224400000Y-115712295D02*
X224285714Y-115750390D01*
X224285714Y-115750390D02*
X224209524Y-115826580D01*
X224209524Y-115826580D02*
X224171429Y-115902771D01*
X224171429Y-115902771D02*
X224133333Y-116055152D01*
X224133333Y-116055152D02*
X224133333Y-116169438D01*
X224133333Y-116169438D02*
X224171429Y-116321819D01*
X224171429Y-116321819D02*
X224209524Y-116398009D01*
X224209524Y-116398009D02*
X224285714Y-116474200D01*
X224285714Y-116474200D02*
X224400000Y-116512295D01*
X224400000Y-116512295D02*
X224476191Y-116512295D01*
X224476191Y-116512295D02*
X224590476Y-116474200D01*
X224590476Y-116474200D02*
X224628572Y-116436104D01*
X224628572Y-116436104D02*
X224628572Y-116169438D01*
X224628572Y-116169438D02*
X224476191Y-116169438D01*
X224971429Y-116512295D02*
X224971429Y-115712295D01*
X224971429Y-115712295D02*
X225428572Y-116512295D01*
X225428572Y-116512295D02*
X225428572Y-115712295D01*
X225809524Y-116512295D02*
X225809524Y-115712295D01*
X225809524Y-115712295D02*
X226000000Y-115712295D01*
X226000000Y-115712295D02*
X226114286Y-115750390D01*
X226114286Y-115750390D02*
X226190476Y-115826580D01*
X226190476Y-115826580D02*
X226228571Y-115902771D01*
X226228571Y-115902771D02*
X226266667Y-116055152D01*
X226266667Y-116055152D02*
X226266667Y-116169438D01*
X226266667Y-116169438D02*
X226228571Y-116321819D01*
X226228571Y-116321819D02*
X226190476Y-116398009D01*
X226190476Y-116398009D02*
X226114286Y-116474200D01*
X226114286Y-116474200D02*
X226000000Y-116512295D01*
X226000000Y-116512295D02*
X225809524Y-116512295D01*
X233828571Y-134292295D02*
X233828571Y-133492295D01*
X233828571Y-133492295D02*
X234133333Y-133492295D01*
X234133333Y-133492295D02*
X234209523Y-133530390D01*
X234209523Y-133530390D02*
X234247618Y-133568485D01*
X234247618Y-133568485D02*
X234285714Y-133644676D01*
X234285714Y-133644676D02*
X234285714Y-133758961D01*
X234285714Y-133758961D02*
X234247618Y-133835152D01*
X234247618Y-133835152D02*
X234209523Y-133873247D01*
X234209523Y-133873247D02*
X234133333Y-133911342D01*
X234133333Y-133911342D02*
X233828571Y-133911342D01*
X235047618Y-134292295D02*
X234590475Y-134292295D01*
X234819047Y-134292295D02*
X234819047Y-133492295D01*
X234819047Y-133492295D02*
X234742856Y-133606580D01*
X234742856Y-133606580D02*
X234666666Y-133682771D01*
X234666666Y-133682771D02*
X234590475Y-133720866D01*
X235733333Y-133492295D02*
X235580952Y-133492295D01*
X235580952Y-133492295D02*
X235504761Y-133530390D01*
X235504761Y-133530390D02*
X235466666Y-133568485D01*
X235466666Y-133568485D02*
X235390476Y-133682771D01*
X235390476Y-133682771D02*
X235352380Y-133835152D01*
X235352380Y-133835152D02*
X235352380Y-134139914D01*
X235352380Y-134139914D02*
X235390476Y-134216104D01*
X235390476Y-134216104D02*
X235428571Y-134254200D01*
X235428571Y-134254200D02*
X235504761Y-134292295D01*
X235504761Y-134292295D02*
X235657142Y-134292295D01*
X235657142Y-134292295D02*
X235733333Y-134254200D01*
X235733333Y-134254200D02*
X235771428Y-134216104D01*
X235771428Y-134216104D02*
X235809523Y-134139914D01*
X235809523Y-134139914D02*
X235809523Y-133949438D01*
X235809523Y-133949438D02*
X235771428Y-133873247D01*
X235771428Y-133873247D02*
X235733333Y-133835152D01*
X235733333Y-133835152D02*
X235657142Y-133797057D01*
X235657142Y-133797057D02*
X235504761Y-133797057D01*
X235504761Y-133797057D02*
X235428571Y-133835152D01*
X235428571Y-133835152D02*
X235390476Y-133873247D01*
X235390476Y-133873247D02*
X235352380Y-133949438D01*
X224228571Y-121592295D02*
X224228571Y-120792295D01*
X224228571Y-120792295D02*
X224533333Y-120792295D01*
X224533333Y-120792295D02*
X224609523Y-120830390D01*
X224609523Y-120830390D02*
X224647618Y-120868485D01*
X224647618Y-120868485D02*
X224685714Y-120944676D01*
X224685714Y-120944676D02*
X224685714Y-121058961D01*
X224685714Y-121058961D02*
X224647618Y-121135152D01*
X224647618Y-121135152D02*
X224609523Y-121173247D01*
X224609523Y-121173247D02*
X224533333Y-121211342D01*
X224533333Y-121211342D02*
X224228571Y-121211342D01*
X225180952Y-120792295D02*
X225257142Y-120792295D01*
X225257142Y-120792295D02*
X225333333Y-120830390D01*
X225333333Y-120830390D02*
X225371428Y-120868485D01*
X225371428Y-120868485D02*
X225409523Y-120944676D01*
X225409523Y-120944676D02*
X225447618Y-121097057D01*
X225447618Y-121097057D02*
X225447618Y-121287533D01*
X225447618Y-121287533D02*
X225409523Y-121439914D01*
X225409523Y-121439914D02*
X225371428Y-121516104D01*
X225371428Y-121516104D02*
X225333333Y-121554200D01*
X225333333Y-121554200D02*
X225257142Y-121592295D01*
X225257142Y-121592295D02*
X225180952Y-121592295D01*
X225180952Y-121592295D02*
X225104761Y-121554200D01*
X225104761Y-121554200D02*
X225066666Y-121516104D01*
X225066666Y-121516104D02*
X225028571Y-121439914D01*
X225028571Y-121439914D02*
X224990475Y-121287533D01*
X224990475Y-121287533D02*
X224990475Y-121097057D01*
X224990475Y-121097057D02*
X225028571Y-120944676D01*
X225028571Y-120944676D02*
X225066666Y-120868485D01*
X225066666Y-120868485D02*
X225104761Y-120830390D01*
X225104761Y-120830390D02*
X225180952Y-120792295D01*
X225714285Y-120792295D02*
X226209523Y-120792295D01*
X226209523Y-120792295D02*
X225942857Y-121097057D01*
X225942857Y-121097057D02*
X226057142Y-121097057D01*
X226057142Y-121097057D02*
X226133333Y-121135152D01*
X226133333Y-121135152D02*
X226171428Y-121173247D01*
X226171428Y-121173247D02*
X226209523Y-121249438D01*
X226209523Y-121249438D02*
X226209523Y-121439914D01*
X226209523Y-121439914D02*
X226171428Y-121516104D01*
X226171428Y-121516104D02*
X226133333Y-121554200D01*
X226133333Y-121554200D02*
X226057142Y-121592295D01*
X226057142Y-121592295D02*
X225828571Y-121592295D01*
X225828571Y-121592295D02*
X225752380Y-121554200D01*
X225752380Y-121554200D02*
X225714285Y-121516104D01*
X224590476Y-113210390D02*
X224514286Y-113172295D01*
X224514286Y-113172295D02*
X224400000Y-113172295D01*
X224400000Y-113172295D02*
X224285714Y-113210390D01*
X224285714Y-113210390D02*
X224209524Y-113286580D01*
X224209524Y-113286580D02*
X224171429Y-113362771D01*
X224171429Y-113362771D02*
X224133333Y-113515152D01*
X224133333Y-113515152D02*
X224133333Y-113629438D01*
X224133333Y-113629438D02*
X224171429Y-113781819D01*
X224171429Y-113781819D02*
X224209524Y-113858009D01*
X224209524Y-113858009D02*
X224285714Y-113934200D01*
X224285714Y-113934200D02*
X224400000Y-113972295D01*
X224400000Y-113972295D02*
X224476191Y-113972295D01*
X224476191Y-113972295D02*
X224590476Y-113934200D01*
X224590476Y-113934200D02*
X224628572Y-113896104D01*
X224628572Y-113896104D02*
X224628572Y-113629438D01*
X224628572Y-113629438D02*
X224476191Y-113629438D01*
X224971429Y-113972295D02*
X224971429Y-113172295D01*
X224971429Y-113172295D02*
X225428572Y-113972295D01*
X225428572Y-113972295D02*
X225428572Y-113172295D01*
X225809524Y-113972295D02*
X225809524Y-113172295D01*
X225809524Y-113172295D02*
X226000000Y-113172295D01*
X226000000Y-113172295D02*
X226114286Y-113210390D01*
X226114286Y-113210390D02*
X226190476Y-113286580D01*
X226190476Y-113286580D02*
X226228571Y-113362771D01*
X226228571Y-113362771D02*
X226266667Y-113515152D01*
X226266667Y-113515152D02*
X226266667Y-113629438D01*
X226266667Y-113629438D02*
X226228571Y-113781819D01*
X226228571Y-113781819D02*
X226190476Y-113858009D01*
X226190476Y-113858009D02*
X226114286Y-113934200D01*
X226114286Y-113934200D02*
X226000000Y-113972295D01*
X226000000Y-113972295D02*
X225809524Y-113972295D01*
X234190476Y-110670390D02*
X234114286Y-110632295D01*
X234114286Y-110632295D02*
X234000000Y-110632295D01*
X234000000Y-110632295D02*
X233885714Y-110670390D01*
X233885714Y-110670390D02*
X233809524Y-110746580D01*
X233809524Y-110746580D02*
X233771429Y-110822771D01*
X233771429Y-110822771D02*
X233733333Y-110975152D01*
X233733333Y-110975152D02*
X233733333Y-111089438D01*
X233733333Y-111089438D02*
X233771429Y-111241819D01*
X233771429Y-111241819D02*
X233809524Y-111318009D01*
X233809524Y-111318009D02*
X233885714Y-111394200D01*
X233885714Y-111394200D02*
X234000000Y-111432295D01*
X234000000Y-111432295D02*
X234076191Y-111432295D01*
X234076191Y-111432295D02*
X234190476Y-111394200D01*
X234190476Y-111394200D02*
X234228572Y-111356104D01*
X234228572Y-111356104D02*
X234228572Y-111089438D01*
X234228572Y-111089438D02*
X234076191Y-111089438D01*
X234571429Y-111432295D02*
X234571429Y-110632295D01*
X234571429Y-110632295D02*
X235028572Y-111432295D01*
X235028572Y-111432295D02*
X235028572Y-110632295D01*
X235409524Y-111432295D02*
X235409524Y-110632295D01*
X235409524Y-110632295D02*
X235600000Y-110632295D01*
X235600000Y-110632295D02*
X235714286Y-110670390D01*
X235714286Y-110670390D02*
X235790476Y-110746580D01*
X235790476Y-110746580D02*
X235828571Y-110822771D01*
X235828571Y-110822771D02*
X235866667Y-110975152D01*
X235866667Y-110975152D02*
X235866667Y-111089438D01*
X235866667Y-111089438D02*
X235828571Y-111241819D01*
X235828571Y-111241819D02*
X235790476Y-111318009D01*
X235790476Y-111318009D02*
X235714286Y-111394200D01*
X235714286Y-111394200D02*
X235600000Y-111432295D01*
X235600000Y-111432295D02*
X235409524Y-111432295D01*
X233828571Y-119052295D02*
X233828571Y-118252295D01*
X233828571Y-118252295D02*
X234133333Y-118252295D01*
X234133333Y-118252295D02*
X234209523Y-118290390D01*
X234209523Y-118290390D02*
X234247618Y-118328485D01*
X234247618Y-118328485D02*
X234285714Y-118404676D01*
X234285714Y-118404676D02*
X234285714Y-118518961D01*
X234285714Y-118518961D02*
X234247618Y-118595152D01*
X234247618Y-118595152D02*
X234209523Y-118633247D01*
X234209523Y-118633247D02*
X234133333Y-118671342D01*
X234133333Y-118671342D02*
X233828571Y-118671342D01*
X234590475Y-118328485D02*
X234628571Y-118290390D01*
X234628571Y-118290390D02*
X234704761Y-118252295D01*
X234704761Y-118252295D02*
X234895237Y-118252295D01*
X234895237Y-118252295D02*
X234971428Y-118290390D01*
X234971428Y-118290390D02*
X235009523Y-118328485D01*
X235009523Y-118328485D02*
X235047618Y-118404676D01*
X235047618Y-118404676D02*
X235047618Y-118480866D01*
X235047618Y-118480866D02*
X235009523Y-118595152D01*
X235009523Y-118595152D02*
X234552380Y-119052295D01*
X234552380Y-119052295D02*
X235047618Y-119052295D01*
X235809523Y-119052295D02*
X235352380Y-119052295D01*
X235580952Y-119052295D02*
X235580952Y-118252295D01*
X235580952Y-118252295D02*
X235504761Y-118366580D01*
X235504761Y-118366580D02*
X235428571Y-118442771D01*
X235428571Y-118442771D02*
X235352380Y-118480866D01*
X224228571Y-108892295D02*
X224228571Y-108092295D01*
X224228571Y-108092295D02*
X224533333Y-108092295D01*
X224533333Y-108092295D02*
X224609523Y-108130390D01*
X224609523Y-108130390D02*
X224647618Y-108168485D01*
X224647618Y-108168485D02*
X224685714Y-108244676D01*
X224685714Y-108244676D02*
X224685714Y-108358961D01*
X224685714Y-108358961D02*
X224647618Y-108435152D01*
X224647618Y-108435152D02*
X224609523Y-108473247D01*
X224609523Y-108473247D02*
X224533333Y-108511342D01*
X224533333Y-108511342D02*
X224228571Y-108511342D01*
X225180952Y-108092295D02*
X225257142Y-108092295D01*
X225257142Y-108092295D02*
X225333333Y-108130390D01*
X225333333Y-108130390D02*
X225371428Y-108168485D01*
X225371428Y-108168485D02*
X225409523Y-108244676D01*
X225409523Y-108244676D02*
X225447618Y-108397057D01*
X225447618Y-108397057D02*
X225447618Y-108587533D01*
X225447618Y-108587533D02*
X225409523Y-108739914D01*
X225409523Y-108739914D02*
X225371428Y-108816104D01*
X225371428Y-108816104D02*
X225333333Y-108854200D01*
X225333333Y-108854200D02*
X225257142Y-108892295D01*
X225257142Y-108892295D02*
X225180952Y-108892295D01*
X225180952Y-108892295D02*
X225104761Y-108854200D01*
X225104761Y-108854200D02*
X225066666Y-108816104D01*
X225066666Y-108816104D02*
X225028571Y-108739914D01*
X225028571Y-108739914D02*
X224990475Y-108587533D01*
X224990475Y-108587533D02*
X224990475Y-108397057D01*
X224990475Y-108397057D02*
X225028571Y-108244676D01*
X225028571Y-108244676D02*
X225066666Y-108168485D01*
X225066666Y-108168485D02*
X225104761Y-108130390D01*
X225104761Y-108130390D02*
X225180952Y-108092295D01*
X226209523Y-108892295D02*
X225752380Y-108892295D01*
X225980952Y-108892295D02*
X225980952Y-108092295D01*
X225980952Y-108092295D02*
X225904761Y-108206580D01*
X225904761Y-108206580D02*
X225828571Y-108282771D01*
X225828571Y-108282771D02*
X225752380Y-108320866D01*
X224228571Y-111432295D02*
X224228571Y-110632295D01*
X224228571Y-110632295D02*
X224533333Y-110632295D01*
X224533333Y-110632295D02*
X224609523Y-110670390D01*
X224609523Y-110670390D02*
X224647618Y-110708485D01*
X224647618Y-110708485D02*
X224685714Y-110784676D01*
X224685714Y-110784676D02*
X224685714Y-110898961D01*
X224685714Y-110898961D02*
X224647618Y-110975152D01*
X224647618Y-110975152D02*
X224609523Y-111013247D01*
X224609523Y-111013247D02*
X224533333Y-111051342D01*
X224533333Y-111051342D02*
X224228571Y-111051342D01*
X225180952Y-110632295D02*
X225257142Y-110632295D01*
X225257142Y-110632295D02*
X225333333Y-110670390D01*
X225333333Y-110670390D02*
X225371428Y-110708485D01*
X225371428Y-110708485D02*
X225409523Y-110784676D01*
X225409523Y-110784676D02*
X225447618Y-110937057D01*
X225447618Y-110937057D02*
X225447618Y-111127533D01*
X225447618Y-111127533D02*
X225409523Y-111279914D01*
X225409523Y-111279914D02*
X225371428Y-111356104D01*
X225371428Y-111356104D02*
X225333333Y-111394200D01*
X225333333Y-111394200D02*
X225257142Y-111432295D01*
X225257142Y-111432295D02*
X225180952Y-111432295D01*
X225180952Y-111432295D02*
X225104761Y-111394200D01*
X225104761Y-111394200D02*
X225066666Y-111356104D01*
X225066666Y-111356104D02*
X225028571Y-111279914D01*
X225028571Y-111279914D02*
X224990475Y-111127533D01*
X224990475Y-111127533D02*
X224990475Y-110937057D01*
X224990475Y-110937057D02*
X225028571Y-110784676D01*
X225028571Y-110784676D02*
X225066666Y-110708485D01*
X225066666Y-110708485D02*
X225104761Y-110670390D01*
X225104761Y-110670390D02*
X225180952Y-110632295D01*
X225942857Y-110632295D02*
X226019047Y-110632295D01*
X226019047Y-110632295D02*
X226095238Y-110670390D01*
X226095238Y-110670390D02*
X226133333Y-110708485D01*
X226133333Y-110708485D02*
X226171428Y-110784676D01*
X226171428Y-110784676D02*
X226209523Y-110937057D01*
X226209523Y-110937057D02*
X226209523Y-111127533D01*
X226209523Y-111127533D02*
X226171428Y-111279914D01*
X226171428Y-111279914D02*
X226133333Y-111356104D01*
X226133333Y-111356104D02*
X226095238Y-111394200D01*
X226095238Y-111394200D02*
X226019047Y-111432295D01*
X226019047Y-111432295D02*
X225942857Y-111432295D01*
X225942857Y-111432295D02*
X225866666Y-111394200D01*
X225866666Y-111394200D02*
X225828571Y-111356104D01*
X225828571Y-111356104D02*
X225790476Y-111279914D01*
X225790476Y-111279914D02*
X225752380Y-111127533D01*
X225752380Y-111127533D02*
X225752380Y-110937057D01*
X225752380Y-110937057D02*
X225790476Y-110784676D01*
X225790476Y-110784676D02*
X225828571Y-110708485D01*
X225828571Y-110708485D02*
X225866666Y-110670390D01*
X225866666Y-110670390D02*
X225942857Y-110632295D01*
X233828571Y-121592295D02*
X233828571Y-120792295D01*
X233828571Y-120792295D02*
X234133333Y-120792295D01*
X234133333Y-120792295D02*
X234209523Y-120830390D01*
X234209523Y-120830390D02*
X234247618Y-120868485D01*
X234247618Y-120868485D02*
X234285714Y-120944676D01*
X234285714Y-120944676D02*
X234285714Y-121058961D01*
X234285714Y-121058961D02*
X234247618Y-121135152D01*
X234247618Y-121135152D02*
X234209523Y-121173247D01*
X234209523Y-121173247D02*
X234133333Y-121211342D01*
X234133333Y-121211342D02*
X233828571Y-121211342D01*
X234590475Y-120868485D02*
X234628571Y-120830390D01*
X234628571Y-120830390D02*
X234704761Y-120792295D01*
X234704761Y-120792295D02*
X234895237Y-120792295D01*
X234895237Y-120792295D02*
X234971428Y-120830390D01*
X234971428Y-120830390D02*
X235009523Y-120868485D01*
X235009523Y-120868485D02*
X235047618Y-120944676D01*
X235047618Y-120944676D02*
X235047618Y-121020866D01*
X235047618Y-121020866D02*
X235009523Y-121135152D01*
X235009523Y-121135152D02*
X234552380Y-121592295D01*
X234552380Y-121592295D02*
X235047618Y-121592295D01*
X235542857Y-120792295D02*
X235619047Y-120792295D01*
X235619047Y-120792295D02*
X235695238Y-120830390D01*
X235695238Y-120830390D02*
X235733333Y-120868485D01*
X235733333Y-120868485D02*
X235771428Y-120944676D01*
X235771428Y-120944676D02*
X235809523Y-121097057D01*
X235809523Y-121097057D02*
X235809523Y-121287533D01*
X235809523Y-121287533D02*
X235771428Y-121439914D01*
X235771428Y-121439914D02*
X235733333Y-121516104D01*
X235733333Y-121516104D02*
X235695238Y-121554200D01*
X235695238Y-121554200D02*
X235619047Y-121592295D01*
X235619047Y-121592295D02*
X235542857Y-121592295D01*
X235542857Y-121592295D02*
X235466666Y-121554200D01*
X235466666Y-121554200D02*
X235428571Y-121516104D01*
X235428571Y-121516104D02*
X235390476Y-121439914D01*
X235390476Y-121439914D02*
X235352380Y-121287533D01*
X235352380Y-121287533D02*
X235352380Y-121097057D01*
X235352380Y-121097057D02*
X235390476Y-120944676D01*
X235390476Y-120944676D02*
X235428571Y-120868485D01*
X235428571Y-120868485D02*
X235466666Y-120830390D01*
X235466666Y-120830390D02*
X235542857Y-120792295D01*
X224228571Y-124132295D02*
X224228571Y-123332295D01*
X224228571Y-123332295D02*
X224533333Y-123332295D01*
X224533333Y-123332295D02*
X224609523Y-123370390D01*
X224609523Y-123370390D02*
X224647618Y-123408485D01*
X224647618Y-123408485D02*
X224685714Y-123484676D01*
X224685714Y-123484676D02*
X224685714Y-123598961D01*
X224685714Y-123598961D02*
X224647618Y-123675152D01*
X224647618Y-123675152D02*
X224609523Y-123713247D01*
X224609523Y-123713247D02*
X224533333Y-123751342D01*
X224533333Y-123751342D02*
X224228571Y-123751342D01*
X225180952Y-123332295D02*
X225257142Y-123332295D01*
X225257142Y-123332295D02*
X225333333Y-123370390D01*
X225333333Y-123370390D02*
X225371428Y-123408485D01*
X225371428Y-123408485D02*
X225409523Y-123484676D01*
X225409523Y-123484676D02*
X225447618Y-123637057D01*
X225447618Y-123637057D02*
X225447618Y-123827533D01*
X225447618Y-123827533D02*
X225409523Y-123979914D01*
X225409523Y-123979914D02*
X225371428Y-124056104D01*
X225371428Y-124056104D02*
X225333333Y-124094200D01*
X225333333Y-124094200D02*
X225257142Y-124132295D01*
X225257142Y-124132295D02*
X225180952Y-124132295D01*
X225180952Y-124132295D02*
X225104761Y-124094200D01*
X225104761Y-124094200D02*
X225066666Y-124056104D01*
X225066666Y-124056104D02*
X225028571Y-123979914D01*
X225028571Y-123979914D02*
X224990475Y-123827533D01*
X224990475Y-123827533D02*
X224990475Y-123637057D01*
X224990475Y-123637057D02*
X225028571Y-123484676D01*
X225028571Y-123484676D02*
X225066666Y-123408485D01*
X225066666Y-123408485D02*
X225104761Y-123370390D01*
X225104761Y-123370390D02*
X225180952Y-123332295D01*
X226133333Y-123598961D02*
X226133333Y-124132295D01*
X225942857Y-123294200D02*
X225752380Y-123865628D01*
X225752380Y-123865628D02*
X226247619Y-123865628D01*
X233828571Y-136832295D02*
X233828571Y-136032295D01*
X233828571Y-136032295D02*
X234133333Y-136032295D01*
X234133333Y-136032295D02*
X234209523Y-136070390D01*
X234209523Y-136070390D02*
X234247618Y-136108485D01*
X234247618Y-136108485D02*
X234285714Y-136184676D01*
X234285714Y-136184676D02*
X234285714Y-136298961D01*
X234285714Y-136298961D02*
X234247618Y-136375152D01*
X234247618Y-136375152D02*
X234209523Y-136413247D01*
X234209523Y-136413247D02*
X234133333Y-136451342D01*
X234133333Y-136451342D02*
X233828571Y-136451342D01*
X235047618Y-136832295D02*
X234590475Y-136832295D01*
X234819047Y-136832295D02*
X234819047Y-136032295D01*
X234819047Y-136032295D02*
X234742856Y-136146580D01*
X234742856Y-136146580D02*
X234666666Y-136222771D01*
X234666666Y-136222771D02*
X234590475Y-136260866D01*
X235542857Y-136032295D02*
X235619047Y-136032295D01*
X235619047Y-136032295D02*
X235695238Y-136070390D01*
X235695238Y-136070390D02*
X235733333Y-136108485D01*
X235733333Y-136108485D02*
X235771428Y-136184676D01*
X235771428Y-136184676D02*
X235809523Y-136337057D01*
X235809523Y-136337057D02*
X235809523Y-136527533D01*
X235809523Y-136527533D02*
X235771428Y-136679914D01*
X235771428Y-136679914D02*
X235733333Y-136756104D01*
X235733333Y-136756104D02*
X235695238Y-136794200D01*
X235695238Y-136794200D02*
X235619047Y-136832295D01*
X235619047Y-136832295D02*
X235542857Y-136832295D01*
X235542857Y-136832295D02*
X235466666Y-136794200D01*
X235466666Y-136794200D02*
X235428571Y-136756104D01*
X235428571Y-136756104D02*
X235390476Y-136679914D01*
X235390476Y-136679914D02*
X235352380Y-136527533D01*
X235352380Y-136527533D02*
X235352380Y-136337057D01*
X235352380Y-136337057D02*
X235390476Y-136184676D01*
X235390476Y-136184676D02*
X235428571Y-136108485D01*
X235428571Y-136108485D02*
X235466666Y-136070390D01*
X235466666Y-136070390D02*
X235542857Y-136032295D01*
X233828571Y-131752295D02*
X233828571Y-130952295D01*
X233828571Y-130952295D02*
X234133333Y-130952295D01*
X234133333Y-130952295D02*
X234209523Y-130990390D01*
X234209523Y-130990390D02*
X234247618Y-131028485D01*
X234247618Y-131028485D02*
X234285714Y-131104676D01*
X234285714Y-131104676D02*
X234285714Y-131218961D01*
X234285714Y-131218961D02*
X234247618Y-131295152D01*
X234247618Y-131295152D02*
X234209523Y-131333247D01*
X234209523Y-131333247D02*
X234133333Y-131371342D01*
X234133333Y-131371342D02*
X233828571Y-131371342D01*
X235047618Y-131752295D02*
X234590475Y-131752295D01*
X234819047Y-131752295D02*
X234819047Y-130952295D01*
X234819047Y-130952295D02*
X234742856Y-131066580D01*
X234742856Y-131066580D02*
X234666666Y-131142771D01*
X234666666Y-131142771D02*
X234590475Y-131180866D01*
X235733333Y-131218961D02*
X235733333Y-131752295D01*
X235542857Y-130914200D02*
X235352380Y-131485628D01*
X235352380Y-131485628D02*
X235847619Y-131485628D01*
X224228571Y-126672295D02*
X224228571Y-125872295D01*
X224228571Y-125872295D02*
X224533333Y-125872295D01*
X224533333Y-125872295D02*
X224609523Y-125910390D01*
X224609523Y-125910390D02*
X224647618Y-125948485D01*
X224647618Y-125948485D02*
X224685714Y-126024676D01*
X224685714Y-126024676D02*
X224685714Y-126138961D01*
X224685714Y-126138961D02*
X224647618Y-126215152D01*
X224647618Y-126215152D02*
X224609523Y-126253247D01*
X224609523Y-126253247D02*
X224533333Y-126291342D01*
X224533333Y-126291342D02*
X224228571Y-126291342D01*
X225180952Y-125872295D02*
X225257142Y-125872295D01*
X225257142Y-125872295D02*
X225333333Y-125910390D01*
X225333333Y-125910390D02*
X225371428Y-125948485D01*
X225371428Y-125948485D02*
X225409523Y-126024676D01*
X225409523Y-126024676D02*
X225447618Y-126177057D01*
X225447618Y-126177057D02*
X225447618Y-126367533D01*
X225447618Y-126367533D02*
X225409523Y-126519914D01*
X225409523Y-126519914D02*
X225371428Y-126596104D01*
X225371428Y-126596104D02*
X225333333Y-126634200D01*
X225333333Y-126634200D02*
X225257142Y-126672295D01*
X225257142Y-126672295D02*
X225180952Y-126672295D01*
X225180952Y-126672295D02*
X225104761Y-126634200D01*
X225104761Y-126634200D02*
X225066666Y-126596104D01*
X225066666Y-126596104D02*
X225028571Y-126519914D01*
X225028571Y-126519914D02*
X224990475Y-126367533D01*
X224990475Y-126367533D02*
X224990475Y-126177057D01*
X224990475Y-126177057D02*
X225028571Y-126024676D01*
X225028571Y-126024676D02*
X225066666Y-125948485D01*
X225066666Y-125948485D02*
X225104761Y-125910390D01*
X225104761Y-125910390D02*
X225180952Y-125872295D01*
X226171428Y-125872295D02*
X225790476Y-125872295D01*
X225790476Y-125872295D02*
X225752380Y-126253247D01*
X225752380Y-126253247D02*
X225790476Y-126215152D01*
X225790476Y-126215152D02*
X225866666Y-126177057D01*
X225866666Y-126177057D02*
X226057142Y-126177057D01*
X226057142Y-126177057D02*
X226133333Y-126215152D01*
X226133333Y-126215152D02*
X226171428Y-126253247D01*
X226171428Y-126253247D02*
X226209523Y-126329438D01*
X226209523Y-126329438D02*
X226209523Y-126519914D01*
X226209523Y-126519914D02*
X226171428Y-126596104D01*
X226171428Y-126596104D02*
X226133333Y-126634200D01*
X226133333Y-126634200D02*
X226057142Y-126672295D01*
X226057142Y-126672295D02*
X225866666Y-126672295D01*
X225866666Y-126672295D02*
X225790476Y-126634200D01*
X225790476Y-126634200D02*
X225752380Y-126596104D01*
X234247619Y-108892295D02*
X233980952Y-108511342D01*
X233790476Y-108892295D02*
X233790476Y-108092295D01*
X233790476Y-108092295D02*
X234095238Y-108092295D01*
X234095238Y-108092295D02*
X234171428Y-108130390D01*
X234171428Y-108130390D02*
X234209523Y-108168485D01*
X234209523Y-108168485D02*
X234247619Y-108244676D01*
X234247619Y-108244676D02*
X234247619Y-108358961D01*
X234247619Y-108358961D02*
X234209523Y-108435152D01*
X234209523Y-108435152D02*
X234171428Y-108473247D01*
X234171428Y-108473247D02*
X234095238Y-108511342D01*
X234095238Y-108511342D02*
X233790476Y-108511342D01*
X234552380Y-108663723D02*
X234933333Y-108663723D01*
X234476190Y-108892295D02*
X234742857Y-108092295D01*
X234742857Y-108092295D02*
X235009523Y-108892295D01*
X235199999Y-108092295D02*
X235390475Y-108892295D01*
X235390475Y-108892295D02*
X235542856Y-108320866D01*
X235542856Y-108320866D02*
X235695237Y-108892295D01*
X235695237Y-108892295D02*
X235885714Y-108092295D01*
X224228571Y-134292295D02*
X224228571Y-133492295D01*
X224228571Y-133492295D02*
X224533333Y-133492295D01*
X224533333Y-133492295D02*
X224609523Y-133530390D01*
X224609523Y-133530390D02*
X224647618Y-133568485D01*
X224647618Y-133568485D02*
X224685714Y-133644676D01*
X224685714Y-133644676D02*
X224685714Y-133758961D01*
X224685714Y-133758961D02*
X224647618Y-133835152D01*
X224647618Y-133835152D02*
X224609523Y-133873247D01*
X224609523Y-133873247D02*
X224533333Y-133911342D01*
X224533333Y-133911342D02*
X224228571Y-133911342D01*
X225180952Y-133492295D02*
X225257142Y-133492295D01*
X225257142Y-133492295D02*
X225333333Y-133530390D01*
X225333333Y-133530390D02*
X225371428Y-133568485D01*
X225371428Y-133568485D02*
X225409523Y-133644676D01*
X225409523Y-133644676D02*
X225447618Y-133797057D01*
X225447618Y-133797057D02*
X225447618Y-133987533D01*
X225447618Y-133987533D02*
X225409523Y-134139914D01*
X225409523Y-134139914D02*
X225371428Y-134216104D01*
X225371428Y-134216104D02*
X225333333Y-134254200D01*
X225333333Y-134254200D02*
X225257142Y-134292295D01*
X225257142Y-134292295D02*
X225180952Y-134292295D01*
X225180952Y-134292295D02*
X225104761Y-134254200D01*
X225104761Y-134254200D02*
X225066666Y-134216104D01*
X225066666Y-134216104D02*
X225028571Y-134139914D01*
X225028571Y-134139914D02*
X224990475Y-133987533D01*
X224990475Y-133987533D02*
X224990475Y-133797057D01*
X224990475Y-133797057D02*
X225028571Y-133644676D01*
X225028571Y-133644676D02*
X225066666Y-133568485D01*
X225066666Y-133568485D02*
X225104761Y-133530390D01*
X225104761Y-133530390D02*
X225180952Y-133492295D01*
X225904761Y-133835152D02*
X225828571Y-133797057D01*
X225828571Y-133797057D02*
X225790476Y-133758961D01*
X225790476Y-133758961D02*
X225752380Y-133682771D01*
X225752380Y-133682771D02*
X225752380Y-133644676D01*
X225752380Y-133644676D02*
X225790476Y-133568485D01*
X225790476Y-133568485D02*
X225828571Y-133530390D01*
X225828571Y-133530390D02*
X225904761Y-133492295D01*
X225904761Y-133492295D02*
X226057142Y-133492295D01*
X226057142Y-133492295D02*
X226133333Y-133530390D01*
X226133333Y-133530390D02*
X226171428Y-133568485D01*
X226171428Y-133568485D02*
X226209523Y-133644676D01*
X226209523Y-133644676D02*
X226209523Y-133682771D01*
X226209523Y-133682771D02*
X226171428Y-133758961D01*
X226171428Y-133758961D02*
X226133333Y-133797057D01*
X226133333Y-133797057D02*
X226057142Y-133835152D01*
X226057142Y-133835152D02*
X225904761Y-133835152D01*
X225904761Y-133835152D02*
X225828571Y-133873247D01*
X225828571Y-133873247D02*
X225790476Y-133911342D01*
X225790476Y-133911342D02*
X225752380Y-133987533D01*
X225752380Y-133987533D02*
X225752380Y-134139914D01*
X225752380Y-134139914D02*
X225790476Y-134216104D01*
X225790476Y-134216104D02*
X225828571Y-134254200D01*
X225828571Y-134254200D02*
X225904761Y-134292295D01*
X225904761Y-134292295D02*
X226057142Y-134292295D01*
X226057142Y-134292295D02*
X226133333Y-134254200D01*
X226133333Y-134254200D02*
X226171428Y-134216104D01*
X226171428Y-134216104D02*
X226209523Y-134139914D01*
X226209523Y-134139914D02*
X226209523Y-133987533D01*
X226209523Y-133987533D02*
X226171428Y-133911342D01*
X226171428Y-133911342D02*
X226133333Y-133873247D01*
X226133333Y-133873247D02*
X226057142Y-133835152D01*
X233733333Y-115712295D02*
X234000000Y-116512295D01*
X234000000Y-116512295D02*
X234266666Y-115712295D01*
X234990476Y-116436104D02*
X234952380Y-116474200D01*
X234952380Y-116474200D02*
X234838095Y-116512295D01*
X234838095Y-116512295D02*
X234761904Y-116512295D01*
X234761904Y-116512295D02*
X234647618Y-116474200D01*
X234647618Y-116474200D02*
X234571428Y-116398009D01*
X234571428Y-116398009D02*
X234533333Y-116321819D01*
X234533333Y-116321819D02*
X234495237Y-116169438D01*
X234495237Y-116169438D02*
X234495237Y-116055152D01*
X234495237Y-116055152D02*
X234533333Y-115902771D01*
X234533333Y-115902771D02*
X234571428Y-115826580D01*
X234571428Y-115826580D02*
X234647618Y-115750390D01*
X234647618Y-115750390D02*
X234761904Y-115712295D01*
X234761904Y-115712295D02*
X234838095Y-115712295D01*
X234838095Y-115712295D02*
X234952380Y-115750390D01*
X234952380Y-115750390D02*
X234990476Y-115788485D01*
X235790476Y-116436104D02*
X235752380Y-116474200D01*
X235752380Y-116474200D02*
X235638095Y-116512295D01*
X235638095Y-116512295D02*
X235561904Y-116512295D01*
X235561904Y-116512295D02*
X235447618Y-116474200D01*
X235447618Y-116474200D02*
X235371428Y-116398009D01*
X235371428Y-116398009D02*
X235333333Y-116321819D01*
X235333333Y-116321819D02*
X235295237Y-116169438D01*
X235295237Y-116169438D02*
X235295237Y-116055152D01*
X235295237Y-116055152D02*
X235333333Y-115902771D01*
X235333333Y-115902771D02*
X235371428Y-115826580D01*
X235371428Y-115826580D02*
X235447618Y-115750390D01*
X235447618Y-115750390D02*
X235561904Y-115712295D01*
X235561904Y-115712295D02*
X235638095Y-115712295D01*
X235638095Y-115712295D02*
X235752380Y-115750390D01*
X235752380Y-115750390D02*
X235790476Y-115788485D01*
X233828571Y-129212295D02*
X233828571Y-128412295D01*
X233828571Y-128412295D02*
X234133333Y-128412295D01*
X234133333Y-128412295D02*
X234209523Y-128450390D01*
X234209523Y-128450390D02*
X234247618Y-128488485D01*
X234247618Y-128488485D02*
X234285714Y-128564676D01*
X234285714Y-128564676D02*
X234285714Y-128678961D01*
X234285714Y-128678961D02*
X234247618Y-128755152D01*
X234247618Y-128755152D02*
X234209523Y-128793247D01*
X234209523Y-128793247D02*
X234133333Y-128831342D01*
X234133333Y-128831342D02*
X233828571Y-128831342D01*
X235047618Y-129212295D02*
X234590475Y-129212295D01*
X234819047Y-129212295D02*
X234819047Y-128412295D01*
X234819047Y-128412295D02*
X234742856Y-128526580D01*
X234742856Y-128526580D02*
X234666666Y-128602771D01*
X234666666Y-128602771D02*
X234590475Y-128640866D01*
X235771428Y-128412295D02*
X235390476Y-128412295D01*
X235390476Y-128412295D02*
X235352380Y-128793247D01*
X235352380Y-128793247D02*
X235390476Y-128755152D01*
X235390476Y-128755152D02*
X235466666Y-128717057D01*
X235466666Y-128717057D02*
X235657142Y-128717057D01*
X235657142Y-128717057D02*
X235733333Y-128755152D01*
X235733333Y-128755152D02*
X235771428Y-128793247D01*
X235771428Y-128793247D02*
X235809523Y-128869438D01*
X235809523Y-128869438D02*
X235809523Y-129059914D01*
X235809523Y-129059914D02*
X235771428Y-129136104D01*
X235771428Y-129136104D02*
X235733333Y-129174200D01*
X235733333Y-129174200D02*
X235657142Y-129212295D01*
X235657142Y-129212295D02*
X235466666Y-129212295D01*
X235466666Y-129212295D02*
X235390476Y-129174200D01*
X235390476Y-129174200D02*
X235352380Y-129136104D01*
X224228571Y-119052295D02*
X224228571Y-118252295D01*
X224228571Y-118252295D02*
X224533333Y-118252295D01*
X224533333Y-118252295D02*
X224609523Y-118290390D01*
X224609523Y-118290390D02*
X224647618Y-118328485D01*
X224647618Y-118328485D02*
X224685714Y-118404676D01*
X224685714Y-118404676D02*
X224685714Y-118518961D01*
X224685714Y-118518961D02*
X224647618Y-118595152D01*
X224647618Y-118595152D02*
X224609523Y-118633247D01*
X224609523Y-118633247D02*
X224533333Y-118671342D01*
X224533333Y-118671342D02*
X224228571Y-118671342D01*
X225180952Y-118252295D02*
X225257142Y-118252295D01*
X225257142Y-118252295D02*
X225333333Y-118290390D01*
X225333333Y-118290390D02*
X225371428Y-118328485D01*
X225371428Y-118328485D02*
X225409523Y-118404676D01*
X225409523Y-118404676D02*
X225447618Y-118557057D01*
X225447618Y-118557057D02*
X225447618Y-118747533D01*
X225447618Y-118747533D02*
X225409523Y-118899914D01*
X225409523Y-118899914D02*
X225371428Y-118976104D01*
X225371428Y-118976104D02*
X225333333Y-119014200D01*
X225333333Y-119014200D02*
X225257142Y-119052295D01*
X225257142Y-119052295D02*
X225180952Y-119052295D01*
X225180952Y-119052295D02*
X225104761Y-119014200D01*
X225104761Y-119014200D02*
X225066666Y-118976104D01*
X225066666Y-118976104D02*
X225028571Y-118899914D01*
X225028571Y-118899914D02*
X224990475Y-118747533D01*
X224990475Y-118747533D02*
X224990475Y-118557057D01*
X224990475Y-118557057D02*
X225028571Y-118404676D01*
X225028571Y-118404676D02*
X225066666Y-118328485D01*
X225066666Y-118328485D02*
X225104761Y-118290390D01*
X225104761Y-118290390D02*
X225180952Y-118252295D01*
X225752380Y-118328485D02*
X225790476Y-118290390D01*
X225790476Y-118290390D02*
X225866666Y-118252295D01*
X225866666Y-118252295D02*
X226057142Y-118252295D01*
X226057142Y-118252295D02*
X226133333Y-118290390D01*
X226133333Y-118290390D02*
X226171428Y-118328485D01*
X226171428Y-118328485D02*
X226209523Y-118404676D01*
X226209523Y-118404676D02*
X226209523Y-118480866D01*
X226209523Y-118480866D02*
X226171428Y-118595152D01*
X226171428Y-118595152D02*
X225714285Y-119052295D01*
X225714285Y-119052295D02*
X226209523Y-119052295D01*
X224228571Y-131752295D02*
X224228571Y-130952295D01*
X224228571Y-130952295D02*
X224533333Y-130952295D01*
X224533333Y-130952295D02*
X224609523Y-130990390D01*
X224609523Y-130990390D02*
X224647618Y-131028485D01*
X224647618Y-131028485D02*
X224685714Y-131104676D01*
X224685714Y-131104676D02*
X224685714Y-131218961D01*
X224685714Y-131218961D02*
X224647618Y-131295152D01*
X224647618Y-131295152D02*
X224609523Y-131333247D01*
X224609523Y-131333247D02*
X224533333Y-131371342D01*
X224533333Y-131371342D02*
X224228571Y-131371342D01*
X225180952Y-130952295D02*
X225257142Y-130952295D01*
X225257142Y-130952295D02*
X225333333Y-130990390D01*
X225333333Y-130990390D02*
X225371428Y-131028485D01*
X225371428Y-131028485D02*
X225409523Y-131104676D01*
X225409523Y-131104676D02*
X225447618Y-131257057D01*
X225447618Y-131257057D02*
X225447618Y-131447533D01*
X225447618Y-131447533D02*
X225409523Y-131599914D01*
X225409523Y-131599914D02*
X225371428Y-131676104D01*
X225371428Y-131676104D02*
X225333333Y-131714200D01*
X225333333Y-131714200D02*
X225257142Y-131752295D01*
X225257142Y-131752295D02*
X225180952Y-131752295D01*
X225180952Y-131752295D02*
X225104761Y-131714200D01*
X225104761Y-131714200D02*
X225066666Y-131676104D01*
X225066666Y-131676104D02*
X225028571Y-131599914D01*
X225028571Y-131599914D02*
X224990475Y-131447533D01*
X224990475Y-131447533D02*
X224990475Y-131257057D01*
X224990475Y-131257057D02*
X225028571Y-131104676D01*
X225028571Y-131104676D02*
X225066666Y-131028485D01*
X225066666Y-131028485D02*
X225104761Y-130990390D01*
X225104761Y-130990390D02*
X225180952Y-130952295D01*
X225714285Y-130952295D02*
X226247619Y-130952295D01*
X226247619Y-130952295D02*
X225904761Y-131752295D01*
D11*
%TO.C,D52*%
X309250000Y-171000000D02*
X309650000Y-171000000D01*
X309650000Y-171000000D02*
X309650000Y-170450000D01*
X309650000Y-171000000D02*
X309650000Y-171550000D01*
X309650000Y-171000000D02*
X310250000Y-170600000D01*
X310250000Y-170600000D02*
X310250000Y-171400000D01*
X310250000Y-171000000D02*
X310750000Y-171000000D01*
X310250000Y-171400000D02*
X309650000Y-171000000D01*
%TO.C,D8*%
X117250000Y-154000000D02*
X117650000Y-154000000D01*
X117650000Y-154000000D02*
X117650000Y-153450000D01*
X117650000Y-154000000D02*
X117650000Y-154550000D01*
X117650000Y-154000000D02*
X118250000Y-153600000D01*
X118250000Y-153600000D02*
X118250000Y-154400000D01*
X118250000Y-154000000D02*
X118750000Y-154000000D01*
X118250000Y-154400000D02*
X117650000Y-154000000D01*
%TO.C,D20*%
X153250000Y-120000000D02*
X153650000Y-120000000D01*
X153650000Y-120000000D02*
X153650000Y-119450000D01*
X153650000Y-120000000D02*
X153650000Y-120550000D01*
X153650000Y-120000000D02*
X154250000Y-119600000D01*
X154250000Y-119600000D02*
X154250000Y-120400000D01*
X154250000Y-120000000D02*
X154750000Y-120000000D01*
X154250000Y-120400000D02*
X153650000Y-120000000D01*
%TO.C,D36*%
X207250000Y-154000000D02*
X207650000Y-154000000D01*
X207650000Y-154000000D02*
X207650000Y-153450000D01*
X207650000Y-154000000D02*
X207650000Y-154550000D01*
X207650000Y-154000000D02*
X208250000Y-153600000D01*
X208250000Y-153600000D02*
X208250000Y-154400000D01*
X208250000Y-154000000D02*
X208750000Y-154000000D01*
X208250000Y-154400000D02*
X207650000Y-154000000D01*
%TO.C,D16*%
X153250000Y-188000000D02*
X153650000Y-188000000D01*
X153650000Y-188000000D02*
X153650000Y-187450000D01*
X153650000Y-188000000D02*
X153650000Y-188550000D01*
X153650000Y-188000000D02*
X154250000Y-187600000D01*
X154250000Y-187600000D02*
X154250000Y-188400000D01*
X154250000Y-188000000D02*
X154750000Y-188000000D01*
X154250000Y-188400000D02*
X153650000Y-188000000D01*
%TO.C,D27*%
X189250000Y-205000000D02*
X189650000Y-205000000D01*
X189650000Y-205000000D02*
X189650000Y-204450000D01*
X189650000Y-205000000D02*
X189650000Y-205550000D01*
X189650000Y-205000000D02*
X190250000Y-204600000D01*
X190250000Y-204600000D02*
X190250000Y-205400000D01*
X190250000Y-205000000D02*
X190750000Y-205000000D01*
X190250000Y-205400000D02*
X189650000Y-205000000D01*
%TO.C,D49*%
X291250000Y-171000000D02*
X291650000Y-171000000D01*
X291650000Y-171000000D02*
X291650000Y-170450000D01*
X291650000Y-171000000D02*
X291650000Y-171550000D01*
X291650000Y-171000000D02*
X292250000Y-170600000D01*
X292250000Y-170600000D02*
X292250000Y-171400000D01*
X292250000Y-171000000D02*
X292750000Y-171000000D01*
X292250000Y-171400000D02*
X291650000Y-171000000D01*
%TO.C,D5*%
X99250000Y-120000000D02*
X99650000Y-120000000D01*
X99650000Y-120000000D02*
X99650000Y-119450000D01*
X99650000Y-120000000D02*
X99650000Y-120550000D01*
X99650000Y-120000000D02*
X100250000Y-119600000D01*
X100250000Y-119600000D02*
X100250000Y-120400000D01*
X100250000Y-120000000D02*
X100750000Y-120000000D01*
X100250000Y-120400000D02*
X99650000Y-120000000D01*
%TO.C,D21*%
X171250000Y-205000000D02*
X171650000Y-205000000D01*
X171650000Y-205000000D02*
X171650000Y-204450000D01*
X171650000Y-205000000D02*
X171650000Y-205550000D01*
X171650000Y-205000000D02*
X172250000Y-204600000D01*
X172250000Y-204600000D02*
X172250000Y-205400000D01*
X172250000Y-205000000D02*
X172750000Y-205000000D01*
X172250000Y-205400000D02*
X171650000Y-205000000D01*
%TO.C,D30*%
X189250000Y-154000000D02*
X189650000Y-154000000D01*
X189650000Y-154000000D02*
X189650000Y-153450000D01*
X189650000Y-154000000D02*
X189650000Y-154550000D01*
X189650000Y-154000000D02*
X190250000Y-153600000D01*
X190250000Y-153600000D02*
X190250000Y-154400000D01*
X190250000Y-154000000D02*
X190750000Y-154000000D01*
X190250000Y-154400000D02*
X189650000Y-154000000D01*
%TO.C,D45*%
X273250000Y-171000000D02*
X273650000Y-171000000D01*
X273650000Y-171000000D02*
X273650000Y-170450000D01*
X273650000Y-171000000D02*
X273650000Y-171550000D01*
X273650000Y-171000000D02*
X274250000Y-170600000D01*
X274250000Y-170600000D02*
X274250000Y-171400000D01*
X274250000Y-171000000D02*
X274750000Y-171000000D01*
X274250000Y-171400000D02*
X273650000Y-171000000D01*
%TO.C,D11*%
X135250000Y-188000000D02*
X135650000Y-188000000D01*
X135650000Y-188000000D02*
X135650000Y-187450000D01*
X135650000Y-188000000D02*
X135650000Y-188550000D01*
X135650000Y-188000000D02*
X136250000Y-187600000D01*
X136250000Y-187600000D02*
X136250000Y-188400000D01*
X136250000Y-188000000D02*
X136750000Y-188000000D01*
X136250000Y-188400000D02*
X135650000Y-188000000D01*
%TO.C,D18*%
X153250000Y-154000000D02*
X153650000Y-154000000D01*
X153650000Y-154000000D02*
X153650000Y-153450000D01*
X153650000Y-154000000D02*
X153650000Y-154550000D01*
X153650000Y-154000000D02*
X154250000Y-153600000D01*
X154250000Y-153600000D02*
X154250000Y-154400000D01*
X154250000Y-154000000D02*
X154750000Y-154000000D01*
X154250000Y-154400000D02*
X153650000Y-154000000D01*
%TO.C,D14*%
X135250000Y-137000000D02*
X135650000Y-137000000D01*
X135650000Y-137000000D02*
X135650000Y-136450000D01*
X135650000Y-137000000D02*
X135650000Y-137550000D01*
X135650000Y-137000000D02*
X136250000Y-136600000D01*
X136250000Y-136600000D02*
X136250000Y-137400000D01*
X136250000Y-137000000D02*
X136750000Y-137000000D01*
X136250000Y-137400000D02*
X135650000Y-137000000D01*
%TO.C,D17*%
X153250000Y-171000000D02*
X153650000Y-171000000D01*
X153650000Y-171000000D02*
X153650000Y-170450000D01*
X153650000Y-171000000D02*
X153650000Y-171550000D01*
X153650000Y-171000000D02*
X154250000Y-170600000D01*
X154250000Y-170600000D02*
X154250000Y-171400000D01*
X154250000Y-171000000D02*
X154750000Y-171000000D01*
X154250000Y-171400000D02*
X153650000Y-171000000D01*
%TO.C,D28*%
X189250000Y-188000000D02*
X189650000Y-188000000D01*
X189650000Y-188000000D02*
X189650000Y-187450000D01*
X189650000Y-188000000D02*
X189650000Y-188550000D01*
X189650000Y-188000000D02*
X190250000Y-187600000D01*
X190250000Y-187600000D02*
X190250000Y-188400000D01*
X190250000Y-188000000D02*
X190750000Y-188000000D01*
X190250000Y-188400000D02*
X189650000Y-188000000D01*
%TO.C,D19*%
X153250000Y-137000000D02*
X153650000Y-137000000D01*
X153650000Y-137000000D02*
X153650000Y-136450000D01*
X153650000Y-137000000D02*
X153650000Y-137550000D01*
X153650000Y-137000000D02*
X154250000Y-136600000D01*
X154250000Y-136600000D02*
X154250000Y-137400000D01*
X154250000Y-137000000D02*
X154750000Y-137000000D01*
X154250000Y-137400000D02*
X153650000Y-137000000D01*
%TO.C,D54*%
X327250000Y-188000000D02*
X327650000Y-188000000D01*
X327650000Y-188000000D02*
X327650000Y-187450000D01*
X327650000Y-188000000D02*
X327650000Y-188550000D01*
X327650000Y-188000000D02*
X328250000Y-187600000D01*
X328250000Y-187600000D02*
X328250000Y-188400000D01*
X328250000Y-188000000D02*
X328750000Y-188000000D01*
X328250000Y-188400000D02*
X327650000Y-188000000D01*
%TO.C,D39*%
X255250000Y-205000000D02*
X255650000Y-205000000D01*
X255650000Y-205000000D02*
X255650000Y-204450000D01*
X255650000Y-205000000D02*
X255650000Y-205550000D01*
X255650000Y-205000000D02*
X256250000Y-204600000D01*
X256250000Y-204600000D02*
X256250000Y-205400000D01*
X256250000Y-205000000D02*
X256750000Y-205000000D01*
X256250000Y-205400000D02*
X255650000Y-205000000D01*
%TO.C,D47*%
X291250000Y-205000000D02*
X291650000Y-205000000D01*
X291650000Y-205000000D02*
X291650000Y-204450000D01*
X291650000Y-205000000D02*
X291650000Y-205550000D01*
X291650000Y-205000000D02*
X292250000Y-204600000D01*
X292250000Y-204600000D02*
X292250000Y-205400000D01*
X292250000Y-205000000D02*
X292750000Y-205000000D01*
X292250000Y-205400000D02*
X291650000Y-205000000D01*
%TO.C,D26*%
X171250000Y-120000000D02*
X171650000Y-120000000D01*
X171650000Y-120000000D02*
X171650000Y-119450000D01*
X171650000Y-120000000D02*
X171650000Y-120550000D01*
X171650000Y-120000000D02*
X172250000Y-119600000D01*
X172250000Y-119600000D02*
X172250000Y-120400000D01*
X172250000Y-120000000D02*
X172750000Y-120000000D01*
X172250000Y-120400000D02*
X171650000Y-120000000D01*
%TO.C,D38*%
X207250000Y-120000000D02*
X207650000Y-120000000D01*
X207650000Y-120000000D02*
X207650000Y-119450000D01*
X207650000Y-120000000D02*
X207650000Y-120550000D01*
X207650000Y-120000000D02*
X208250000Y-119600000D01*
X208250000Y-119600000D02*
X208250000Y-120400000D01*
X208250000Y-120000000D02*
X208750000Y-120000000D01*
X208250000Y-120400000D02*
X207650000Y-120000000D01*
%TO.C,D24*%
X171250000Y-154000000D02*
X171650000Y-154000000D01*
X171650000Y-154000000D02*
X171650000Y-153450000D01*
X171650000Y-154000000D02*
X171650000Y-154550000D01*
X171650000Y-154000000D02*
X172250000Y-153600000D01*
X172250000Y-153600000D02*
X172250000Y-154400000D01*
X172250000Y-154000000D02*
X172750000Y-154000000D01*
X172250000Y-154400000D02*
X171650000Y-154000000D01*
%TO.C,D34*%
X207250000Y-188000000D02*
X207650000Y-188000000D01*
X207650000Y-188000000D02*
X207650000Y-187450000D01*
X207650000Y-188000000D02*
X207650000Y-188550000D01*
X207650000Y-188000000D02*
X208250000Y-187600000D01*
X208250000Y-187600000D02*
X208250000Y-188400000D01*
X208250000Y-188000000D02*
X208750000Y-188000000D01*
X208250000Y-188400000D02*
X207650000Y-188000000D01*
%TO.C,D51*%
X309250000Y-188000000D02*
X309650000Y-188000000D01*
X309650000Y-188000000D02*
X309650000Y-187450000D01*
X309650000Y-188000000D02*
X309650000Y-188550000D01*
X309650000Y-188000000D02*
X310250000Y-187600000D01*
X310250000Y-187600000D02*
X310250000Y-188400000D01*
X310250000Y-188000000D02*
X310750000Y-188000000D01*
X310250000Y-188400000D02*
X309650000Y-188000000D01*
%TO.C,D4*%
X99250000Y-137000000D02*
X99650000Y-137000000D01*
X99650000Y-137000000D02*
X99650000Y-136450000D01*
X99650000Y-137000000D02*
X99650000Y-137550000D01*
X99650000Y-137000000D02*
X100250000Y-136600000D01*
X100250000Y-136600000D02*
X100250000Y-137400000D01*
X100250000Y-137000000D02*
X100750000Y-137000000D01*
X100250000Y-137400000D02*
X99650000Y-137000000D01*
%TO.C,D31*%
X189250000Y-137000000D02*
X189650000Y-137000000D01*
X189650000Y-137000000D02*
X189650000Y-136450000D01*
X189650000Y-137000000D02*
X189650000Y-137550000D01*
X189650000Y-137000000D02*
X190250000Y-136600000D01*
X190250000Y-136600000D02*
X190250000Y-137400000D01*
X190250000Y-137000000D02*
X190750000Y-137000000D01*
X190250000Y-137400000D02*
X189650000Y-137000000D01*
%TO.C,D15*%
X135250000Y-120000000D02*
X135650000Y-120000000D01*
X135650000Y-120000000D02*
X135650000Y-119450000D01*
X135650000Y-120000000D02*
X135650000Y-120550000D01*
X135650000Y-120000000D02*
X136250000Y-119600000D01*
X136250000Y-119600000D02*
X136250000Y-120400000D01*
X136250000Y-120000000D02*
X136750000Y-120000000D01*
X136250000Y-120400000D02*
X135650000Y-120000000D01*
%TO.C,D13*%
X135250000Y-154000000D02*
X135650000Y-154000000D01*
X135650000Y-154000000D02*
X135650000Y-153450000D01*
X135650000Y-154000000D02*
X135650000Y-154550000D01*
X135650000Y-154000000D02*
X136250000Y-153600000D01*
X136250000Y-153600000D02*
X136250000Y-154400000D01*
X136250000Y-154000000D02*
X136750000Y-154000000D01*
X136250000Y-154400000D02*
X135650000Y-154000000D01*
%TO.C,D50*%
X291250000Y-154000000D02*
X291650000Y-154000000D01*
X291650000Y-154000000D02*
X291650000Y-153450000D01*
X291650000Y-154000000D02*
X291650000Y-154550000D01*
X291650000Y-154000000D02*
X292250000Y-153600000D01*
X292250000Y-153600000D02*
X292250000Y-154400000D01*
X292250000Y-154000000D02*
X292750000Y-154000000D01*
X292250000Y-154400000D02*
X291650000Y-154000000D01*
%TO.C,D33*%
X207250000Y-205000000D02*
X207650000Y-205000000D01*
X207650000Y-205000000D02*
X207650000Y-204450000D01*
X207650000Y-205000000D02*
X207650000Y-205550000D01*
X207650000Y-205000000D02*
X208250000Y-204600000D01*
X208250000Y-204600000D02*
X208250000Y-205400000D01*
X208250000Y-205000000D02*
X208750000Y-205000000D01*
X208250000Y-205400000D02*
X207650000Y-205000000D01*
%TO.C,D40*%
X255250000Y-188000000D02*
X255650000Y-188000000D01*
X255650000Y-188000000D02*
X255650000Y-187450000D01*
X255650000Y-188000000D02*
X255650000Y-188550000D01*
X255650000Y-188000000D02*
X256250000Y-187600000D01*
X256250000Y-187600000D02*
X256250000Y-188400000D01*
X256250000Y-188000000D02*
X256750000Y-188000000D01*
X256250000Y-188400000D02*
X255650000Y-188000000D01*
%TO.C,D9*%
X117250000Y-137000000D02*
X117650000Y-137000000D01*
X117650000Y-137000000D02*
X117650000Y-136450000D01*
X117650000Y-137000000D02*
X117650000Y-137550000D01*
X117650000Y-137000000D02*
X118250000Y-136600000D01*
X118250000Y-136600000D02*
X118250000Y-137400000D01*
X118250000Y-137000000D02*
X118750000Y-137000000D01*
X118250000Y-137400000D02*
X117650000Y-137000000D01*
%TO.C,D43*%
X273250000Y-205000000D02*
X273650000Y-205000000D01*
X273650000Y-205000000D02*
X273650000Y-204450000D01*
X273650000Y-205000000D02*
X273650000Y-205550000D01*
X273650000Y-205000000D02*
X274250000Y-204600000D01*
X274250000Y-204600000D02*
X274250000Y-205400000D01*
X274250000Y-205000000D02*
X274750000Y-205000000D01*
X274250000Y-205400000D02*
X273650000Y-205000000D01*
%TO.C,D32*%
X189250000Y-120000000D02*
X189650000Y-120000000D01*
X189650000Y-120000000D02*
X189650000Y-119450000D01*
X189650000Y-120000000D02*
X189650000Y-120550000D01*
X189650000Y-120000000D02*
X190250000Y-119600000D01*
X190250000Y-119600000D02*
X190250000Y-120400000D01*
X190250000Y-120000000D02*
X190750000Y-120000000D01*
X190250000Y-120400000D02*
X189650000Y-120000000D01*
%TO.C,D44*%
X273250000Y-188000000D02*
X273650000Y-188000000D01*
X273650000Y-188000000D02*
X273650000Y-187450000D01*
X273650000Y-188000000D02*
X273650000Y-188550000D01*
X273650000Y-188000000D02*
X274250000Y-187600000D01*
X274250000Y-187600000D02*
X274250000Y-188400000D01*
X274250000Y-188000000D02*
X274750000Y-188000000D01*
X274250000Y-188400000D02*
X273650000Y-188000000D01*
%TO.C,D42*%
X255250000Y-154000000D02*
X255650000Y-154000000D01*
X255650000Y-154000000D02*
X255650000Y-153450000D01*
X255650000Y-154000000D02*
X255650000Y-154550000D01*
X255650000Y-154000000D02*
X256250000Y-153600000D01*
X256250000Y-153600000D02*
X256250000Y-154400000D01*
X256250000Y-154000000D02*
X256750000Y-154000000D01*
X256250000Y-154400000D02*
X255650000Y-154000000D01*
%TO.C,D7*%
X117250000Y-171000000D02*
X117650000Y-171000000D01*
X117650000Y-171000000D02*
X117650000Y-170450000D01*
X117650000Y-171000000D02*
X117650000Y-171550000D01*
X117650000Y-171000000D02*
X118250000Y-170600000D01*
X118250000Y-170600000D02*
X118250000Y-171400000D01*
X118250000Y-171000000D02*
X118750000Y-171000000D01*
X118250000Y-171400000D02*
X117650000Y-171000000D01*
%TO.C,D25*%
X171250000Y-137000000D02*
X171650000Y-137000000D01*
X171650000Y-137000000D02*
X171650000Y-136450000D01*
X171650000Y-137000000D02*
X171650000Y-137550000D01*
X171650000Y-137000000D02*
X172250000Y-136600000D01*
X172250000Y-136600000D02*
X172250000Y-137400000D01*
X172250000Y-137000000D02*
X172750000Y-137000000D01*
X172250000Y-137400000D02*
X171650000Y-137000000D01*
%TO.C,D3*%
X99250000Y-154000000D02*
X99650000Y-154000000D01*
X99650000Y-154000000D02*
X99650000Y-153450000D01*
X99650000Y-154000000D02*
X99650000Y-154550000D01*
X99650000Y-154000000D02*
X100250000Y-153600000D01*
X100250000Y-153600000D02*
X100250000Y-154400000D01*
X100250000Y-154000000D02*
X100750000Y-154000000D01*
X100250000Y-154400000D02*
X99650000Y-154000000D01*
D10*
%TO.C,MCU1*%
X221110000Y-104720000D02*
X221110000Y-137740000D01*
X221110000Y-137740000D02*
X238890000Y-137740000D01*
X236350000Y-107260000D02*
X236350000Y-109800000D01*
X236350000Y-107260000D02*
X238890000Y-107260000D01*
X236350000Y-109800000D02*
X238890000Y-109800000D01*
X238890000Y-104720000D02*
X221110000Y-104720000D01*
X238890000Y-137740000D02*
X238890000Y-104720000D01*
D11*
%TO.C,D23*%
X171250000Y-171000000D02*
X171650000Y-171000000D01*
X171650000Y-171000000D02*
X171650000Y-170450000D01*
X171650000Y-171000000D02*
X171650000Y-171550000D01*
X171650000Y-171000000D02*
X172250000Y-170600000D01*
X172250000Y-170600000D02*
X172250000Y-171400000D01*
X172250000Y-171000000D02*
X172750000Y-171000000D01*
X172250000Y-171400000D02*
X171650000Y-171000000D01*
%TO.C,D10*%
X117250000Y-120000000D02*
X117650000Y-120000000D01*
X117650000Y-120000000D02*
X117650000Y-119450000D01*
X117650000Y-120000000D02*
X117650000Y-120550000D01*
X117650000Y-120000000D02*
X118250000Y-119600000D01*
X118250000Y-119600000D02*
X118250000Y-120400000D01*
X118250000Y-120000000D02*
X118750000Y-120000000D01*
X118250000Y-120400000D02*
X117650000Y-120000000D01*
%TO.C,D2*%
X99250000Y-171000000D02*
X99650000Y-171000000D01*
X99650000Y-171000000D02*
X99650000Y-170450000D01*
X99650000Y-171000000D02*
X99650000Y-171550000D01*
X99650000Y-171000000D02*
X100250000Y-170600000D01*
X100250000Y-170600000D02*
X100250000Y-171400000D01*
X100250000Y-171000000D02*
X100750000Y-171000000D01*
X100250000Y-171400000D02*
X99650000Y-171000000D01*
%TO.C,D22*%
X171250000Y-188000000D02*
X171650000Y-188000000D01*
X171650000Y-188000000D02*
X171650000Y-187450000D01*
X171650000Y-188000000D02*
X171650000Y-188550000D01*
X171650000Y-188000000D02*
X172250000Y-187600000D01*
X172250000Y-187600000D02*
X172250000Y-188400000D01*
X172250000Y-188000000D02*
X172750000Y-188000000D01*
X172250000Y-188400000D02*
X171650000Y-188000000D01*
%TO.C,D6*%
X117250000Y-188000000D02*
X117650000Y-188000000D01*
X117650000Y-188000000D02*
X117650000Y-187450000D01*
X117650000Y-188000000D02*
X117650000Y-188550000D01*
X117650000Y-188000000D02*
X118250000Y-187600000D01*
X118250000Y-187600000D02*
X118250000Y-188400000D01*
X118250000Y-188000000D02*
X118750000Y-188000000D01*
X118250000Y-188400000D02*
X117650000Y-188000000D01*
%TO.C,D29*%
X189250000Y-171000000D02*
X189650000Y-171000000D01*
X189650000Y-171000000D02*
X189650000Y-170450000D01*
X189650000Y-171000000D02*
X189650000Y-171550000D01*
X189650000Y-171000000D02*
X190250000Y-170600000D01*
X190250000Y-170600000D02*
X190250000Y-171400000D01*
X190250000Y-171000000D02*
X190750000Y-171000000D01*
X190250000Y-171400000D02*
X189650000Y-171000000D01*
%TO.C,D41*%
X255250000Y-171000000D02*
X255650000Y-171000000D01*
X255650000Y-171000000D02*
X255650000Y-170450000D01*
X255650000Y-171000000D02*
X255650000Y-171550000D01*
X255650000Y-171000000D02*
X256250000Y-170600000D01*
X256250000Y-170600000D02*
X256250000Y-171400000D01*
X256250000Y-171000000D02*
X256750000Y-171000000D01*
X256250000Y-171400000D02*
X255650000Y-171000000D01*
%TO.C,D48*%
X291250000Y-188000000D02*
X291650000Y-188000000D01*
X291650000Y-188000000D02*
X291650000Y-187450000D01*
X291650000Y-188000000D02*
X291650000Y-188550000D01*
X291650000Y-188000000D02*
X292250000Y-187600000D01*
X292250000Y-187600000D02*
X292250000Y-188400000D01*
X292250000Y-188000000D02*
X292750000Y-188000000D01*
X292250000Y-188400000D02*
X291650000Y-188000000D01*
%TO.C,D1*%
X99250000Y-188000000D02*
X99650000Y-188000000D01*
X99650000Y-188000000D02*
X99650000Y-187450000D01*
X99650000Y-188000000D02*
X99650000Y-188550000D01*
X99650000Y-188000000D02*
X100250000Y-187600000D01*
X100250000Y-187600000D02*
X100250000Y-188400000D01*
X100250000Y-188000000D02*
X100750000Y-188000000D01*
X100250000Y-188400000D02*
X99650000Y-188000000D01*
%TO.C,D55*%
X327250000Y-171000000D02*
X327650000Y-171000000D01*
X327650000Y-171000000D02*
X327650000Y-170450000D01*
X327650000Y-171000000D02*
X327650000Y-171550000D01*
X327650000Y-171000000D02*
X328250000Y-170600000D01*
X328250000Y-170600000D02*
X328250000Y-171400000D01*
X328250000Y-171000000D02*
X328750000Y-171000000D01*
X328250000Y-171400000D02*
X327650000Y-171000000D01*
%TO.C,D46*%
X273250000Y-154000000D02*
X273650000Y-154000000D01*
X273650000Y-154000000D02*
X273650000Y-153450000D01*
X273650000Y-154000000D02*
X273650000Y-154550000D01*
X273650000Y-154000000D02*
X274250000Y-153600000D01*
X274250000Y-153600000D02*
X274250000Y-154400000D01*
X274250000Y-154000000D02*
X274750000Y-154000000D01*
X274250000Y-154400000D02*
X273650000Y-154000000D01*
%TO.C,D53*%
X309250000Y-154000000D02*
X309650000Y-154000000D01*
X309650000Y-154000000D02*
X309650000Y-153450000D01*
X309650000Y-154000000D02*
X309650000Y-154550000D01*
X309650000Y-154000000D02*
X310250000Y-153600000D01*
X310250000Y-153600000D02*
X310250000Y-154400000D01*
X310250000Y-154000000D02*
X310750000Y-154000000D01*
X310250000Y-154400000D02*
X309650000Y-154000000D01*
%TO.C,D37*%
X207250000Y-137000000D02*
X207650000Y-137000000D01*
X207650000Y-137000000D02*
X207650000Y-136450000D01*
X207650000Y-137000000D02*
X207650000Y-137550000D01*
X207650000Y-137000000D02*
X208250000Y-136600000D01*
X208250000Y-136600000D02*
X208250000Y-137400000D01*
X208250000Y-137000000D02*
X208750000Y-137000000D01*
X208250000Y-137400000D02*
X207650000Y-137000000D01*
%TO.C,D12*%
X135250000Y-171000000D02*
X135650000Y-171000000D01*
X135650000Y-171000000D02*
X135650000Y-170450000D01*
X135650000Y-171000000D02*
X135650000Y-171550000D01*
X135650000Y-171000000D02*
X136250000Y-170600000D01*
X136250000Y-170600000D02*
X136250000Y-171400000D01*
X136250000Y-171000000D02*
X136750000Y-171000000D01*
X136250000Y-171400000D02*
X135650000Y-171000000D01*
%TO.C,D35*%
X207250000Y-171000000D02*
X207650000Y-171000000D01*
X207650000Y-171000000D02*
X207650000Y-170450000D01*
X207650000Y-171000000D02*
X207650000Y-171550000D01*
X207650000Y-171000000D02*
X208250000Y-170600000D01*
X208250000Y-170600000D02*
X208250000Y-171400000D01*
X208250000Y-171000000D02*
X208750000Y-171000000D01*
X208250000Y-171400000D02*
X207650000Y-171000000D01*
%TO.C,D56*%
X327250000Y-154000000D02*
X327650000Y-154000000D01*
X327650000Y-154000000D02*
X327650000Y-153450000D01*
X327650000Y-154000000D02*
X327650000Y-154550000D01*
X327650000Y-154000000D02*
X328250000Y-153600000D01*
X328250000Y-153600000D02*
X328250000Y-154400000D01*
X328250000Y-154000000D02*
X328750000Y-154000000D01*
X328250000Y-154400000D02*
X327650000Y-154000000D01*
%TD*%
D12*
%TO.C,MCU1*%
X237620000Y-108530000D03*
D13*
X237620000Y-111070000D03*
X237620000Y-113610000D03*
X237620000Y-116150000D03*
X237620000Y-118690000D03*
X237620000Y-121230000D03*
X237620000Y-123770000D03*
X237620000Y-126310000D03*
X237620000Y-128850000D03*
X237620000Y-131390000D03*
X237620000Y-133930000D03*
X237620000Y-136470000D03*
X222380000Y-108530000D03*
X222380000Y-111070000D03*
X222380000Y-113610000D03*
X222380000Y-116150000D03*
X222380000Y-118690000D03*
X222380000Y-121230000D03*
X222380000Y-123770000D03*
X222380000Y-126310000D03*
X222380000Y-128850000D03*
X222380000Y-131390000D03*
X222380000Y-133930000D03*
X222380000Y-136470000D03*
%TD*%
M02*
