%TF.GenerationSoftware,KiCad,Pcbnew,8.0.2*%
%TF.CreationDate,2024-06-03T01:18:46-04:00*%
%TF.ProjectId,unisplitchoc,756e6973-706c-4697-9463-686f632e6b69,v1.0.0*%
%TF.SameCoordinates,Original*%
%TF.FileFunction,Soldermask,Top*%
%TF.FilePolarity,Negative*%
%FSLAX46Y46*%
G04 Gerber Fmt 4.6, Leading zero omitted, Abs format (unit mm)*
G04 Created by KiCad (PCBNEW 8.0.2) date 2024-06-03 01:18:46*
%MOMM*%
%LPD*%
G01*
G04 APERTURE LIST*
G04 Aperture macros list*
%AMRoundRect*
0 Rectangle with rounded corners*
0 $1 Rounding radius*
0 $2 $3 $4 $5 $6 $7 $8 $9 X,Y pos of 4 corners*
0 Add a 4 corners polygon primitive as box body*
4,1,4,$2,$3,$4,$5,$6,$7,$8,$9,$2,$3,0*
0 Add four circle primitives for the rounded corners*
1,1,$1+$1,$2,$3*
1,1,$1+$1,$4,$5*
1,1,$1+$1,$6,$7*
1,1,$1+$1,$8,$9*
0 Add four rect primitives between the rounded corners*
20,1,$1+$1,$2,$3,$4,$5,0*
20,1,$1+$1,$4,$5,$6,$7,0*
20,1,$1+$1,$6,$7,$8,$9,0*
20,1,$1+$1,$8,$9,$2,$3,0*%
G04 Aperture macros list end*
%ADD10C,1.801800*%
%ADD11C,3.100000*%
%ADD12C,3.529000*%
%ADD13RoundRect,0.050000X-0.889000X-0.889000X0.889000X-0.889000X0.889000X0.889000X-0.889000X0.889000X0*%
%ADD14RoundRect,0.050000X-0.450000X-0.600000X0.450000X-0.600000X0.450000X0.600000X-0.450000X0.600000X0*%
%ADD15C,2.005000*%
%ADD16C,0.800000*%
%ADD17C,4.500000*%
%ADD18RoundRect,0.050000X-0.876300X0.876300X-0.876300X-0.876300X0.876300X-0.876300X0.876300X0.876300X0*%
%ADD19C,1.852600*%
G04 APERTURE END LIST*
D10*
%TO.C,S45*%
X268500000Y-166000000D03*
D11*
X274000000Y-160050000D03*
D12*
X274000000Y-166000000D03*
D11*
X279000000Y-162250000D03*
D10*
X279500000Y-166000000D03*
%TD*%
D13*
%TO.C,D52*%
X306190000Y-171000000D03*
D14*
X308350000Y-171000000D03*
X311650000Y-171000000D03*
D15*
X313810000Y-171000000D03*
%TD*%
D13*
%TO.C,D8*%
X114190000Y-154000000D03*
D14*
X116350000Y-154000000D03*
X119650000Y-154000000D03*
D15*
X121810000Y-154000000D03*
%TD*%
D13*
%TO.C,D20*%
X150190000Y-120000000D03*
D14*
X152350000Y-120000000D03*
X155650000Y-120000000D03*
D15*
X157810000Y-120000000D03*
%TD*%
D13*
%TO.C,D36*%
X204190000Y-154000000D03*
D14*
X206350000Y-154000000D03*
X209650000Y-154000000D03*
D15*
X211810000Y-154000000D03*
%TD*%
D10*
%TO.C,S50*%
X286500000Y-149000000D03*
D11*
X292000000Y-143050000D03*
D12*
X292000000Y-149000000D03*
D11*
X297000000Y-145250000D03*
D10*
X297500000Y-149000000D03*
%TD*%
%TO.C,S20*%
X148500000Y-115000000D03*
D11*
X154000000Y-109050000D03*
D12*
X154000000Y-115000000D03*
D11*
X159000000Y-111250000D03*
D10*
X159500000Y-115000000D03*
%TD*%
D13*
%TO.C,D16*%
X150190000Y-188000000D03*
D14*
X152350000Y-188000000D03*
X155650000Y-188000000D03*
D15*
X157810000Y-188000000D03*
%TD*%
D10*
%TO.C,S3*%
X94500000Y-149000000D03*
D11*
X100000000Y-143050000D03*
D12*
X100000000Y-149000000D03*
D11*
X105000000Y-145250000D03*
D10*
X105500000Y-149000000D03*
%TD*%
%TO.C,S25*%
X166500000Y-132000000D03*
D11*
X172000000Y-126050000D03*
D12*
X172000000Y-132000000D03*
D11*
X177000000Y-128250000D03*
D10*
X177500000Y-132000000D03*
%TD*%
D13*
%TO.C,D27*%
X186190000Y-205000000D03*
D14*
X188350000Y-205000000D03*
X191650000Y-205000000D03*
D15*
X193810000Y-205000000D03*
%TD*%
D10*
%TO.C,S55*%
X322500000Y-166000000D03*
D11*
X328000000Y-160050000D03*
D12*
X328000000Y-166000000D03*
D11*
X333000000Y-162250000D03*
D10*
X333500000Y-166000000D03*
%TD*%
%TO.C,S42*%
X250500000Y-149000000D03*
D11*
X256000000Y-143050000D03*
D12*
X256000000Y-149000000D03*
D11*
X261000000Y-145250000D03*
D10*
X261500000Y-149000000D03*
%TD*%
%TO.C,S11*%
X130500000Y-183000000D03*
D11*
X136000000Y-177050000D03*
D12*
X136000000Y-183000000D03*
D11*
X141000000Y-179250000D03*
D10*
X141500000Y-183000000D03*
%TD*%
D13*
%TO.C,D49*%
X288190000Y-171000000D03*
D14*
X290350000Y-171000000D03*
X293650000Y-171000000D03*
D15*
X295810000Y-171000000D03*
%TD*%
D13*
%TO.C,D5*%
X96190000Y-120000000D03*
D14*
X98350000Y-120000000D03*
X101650000Y-120000000D03*
D15*
X103810000Y-120000000D03*
%TD*%
D13*
%TO.C,D21*%
X168190000Y-205000000D03*
D14*
X170350000Y-205000000D03*
X173650000Y-205000000D03*
D15*
X175810000Y-205000000D03*
%TD*%
D13*
%TO.C,D30*%
X186190000Y-154000000D03*
D14*
X188350000Y-154000000D03*
X191650000Y-154000000D03*
D15*
X193810000Y-154000000D03*
%TD*%
D13*
%TO.C,D45*%
X270190000Y-171000000D03*
D14*
X272350000Y-171000000D03*
X275650000Y-171000000D03*
D15*
X277810000Y-171000000D03*
%TD*%
D13*
%TO.C,D11*%
X132190000Y-188000000D03*
D14*
X134350000Y-188000000D03*
X137650000Y-188000000D03*
D15*
X139810000Y-188000000D03*
%TD*%
D13*
%TO.C,D18*%
X150190000Y-154000000D03*
D14*
X152350000Y-154000000D03*
X155650000Y-154000000D03*
D15*
X157810000Y-154000000D03*
%TD*%
D10*
%TO.C,S30*%
X184500000Y-149000000D03*
D11*
X190000000Y-143050000D03*
D12*
X190000000Y-149000000D03*
D11*
X195000000Y-145250000D03*
D10*
X195500000Y-149000000D03*
%TD*%
%TO.C,S39*%
X250500000Y-200000000D03*
D11*
X256000000Y-194050000D03*
D12*
X256000000Y-200000000D03*
D11*
X261000000Y-196250000D03*
D10*
X261500000Y-200000000D03*
%TD*%
%TO.C,S52*%
X304500000Y-166000000D03*
D11*
X310000000Y-160050000D03*
D12*
X310000000Y-166000000D03*
D11*
X315000000Y-162250000D03*
D10*
X315500000Y-166000000D03*
%TD*%
D13*
%TO.C,D14*%
X132190000Y-137000000D03*
D14*
X134350000Y-137000000D03*
X137650000Y-137000000D03*
D15*
X139810000Y-137000000D03*
%TD*%
D10*
%TO.C,S16*%
X148500000Y-183000000D03*
D11*
X154000000Y-177050000D03*
D12*
X154000000Y-183000000D03*
D11*
X159000000Y-179250000D03*
D10*
X159500000Y-183000000D03*
%TD*%
D13*
%TO.C,D17*%
X150190000Y-171000000D03*
D14*
X152350000Y-171000000D03*
X155650000Y-171000000D03*
D15*
X157810000Y-171000000D03*
%TD*%
D13*
%TO.C,D28*%
X186190000Y-188000000D03*
D14*
X188350000Y-188000000D03*
X191650000Y-188000000D03*
D15*
X193810000Y-188000000D03*
%TD*%
D13*
%TO.C,D19*%
X150190000Y-137000000D03*
D14*
X152350000Y-137000000D03*
X155650000Y-137000000D03*
D15*
X157810000Y-137000000D03*
%TD*%
D10*
%TO.C,S23*%
X166500000Y-166000000D03*
D11*
X172000000Y-160050000D03*
D12*
X172000000Y-166000000D03*
D11*
X177000000Y-162250000D03*
D10*
X177500000Y-166000000D03*
%TD*%
D13*
%TO.C,D54*%
X324190000Y-188000000D03*
D14*
X326350000Y-188000000D03*
X329650000Y-188000000D03*
D15*
X331810000Y-188000000D03*
%TD*%
D10*
%TO.C,S33*%
X202500000Y-200000000D03*
D11*
X208000000Y-194050000D03*
D12*
X208000000Y-200000000D03*
D11*
X213000000Y-196250000D03*
D10*
X213500000Y-200000000D03*
%TD*%
D13*
%TO.C,D39*%
X252190000Y-205000000D03*
D14*
X254350000Y-205000000D03*
X257650000Y-205000000D03*
D15*
X259810000Y-205000000D03*
%TD*%
D10*
%TO.C,S51*%
X304500000Y-183000000D03*
D11*
X310000000Y-177050000D03*
D12*
X310000000Y-183000000D03*
D11*
X315000000Y-179250000D03*
D10*
X315500000Y-183000000D03*
%TD*%
%TO.C,S18*%
X148500000Y-149000000D03*
D11*
X154000000Y-143050000D03*
D12*
X154000000Y-149000000D03*
D11*
X159000000Y-145250000D03*
D10*
X159500000Y-149000000D03*
%TD*%
%TO.C,S26*%
X166500000Y-115000000D03*
D11*
X172000000Y-109050000D03*
D12*
X172000000Y-115000000D03*
D11*
X177000000Y-111250000D03*
D10*
X177500000Y-115000000D03*
%TD*%
%TO.C,S7*%
X112500000Y-166000000D03*
D11*
X118000000Y-160050000D03*
D12*
X118000000Y-166000000D03*
D11*
X123000000Y-162250000D03*
D10*
X123500000Y-166000000D03*
%TD*%
D13*
%TO.C,D47*%
X288190000Y-205000000D03*
D14*
X290350000Y-205000000D03*
X293650000Y-205000000D03*
D15*
X295810000Y-205000000D03*
%TD*%
D10*
%TO.C,S10*%
X112500000Y-115000000D03*
D11*
X118000000Y-109050000D03*
D12*
X118000000Y-115000000D03*
D11*
X123000000Y-111250000D03*
D10*
X123500000Y-115000000D03*
%TD*%
%TO.C,S37*%
X202500000Y-132000000D03*
D11*
X208000000Y-126050000D03*
D12*
X208000000Y-132000000D03*
D11*
X213000000Y-128250000D03*
D10*
X213500000Y-132000000D03*
%TD*%
D13*
%TO.C,D26*%
X168190000Y-120000000D03*
D14*
X170350000Y-120000000D03*
X173650000Y-120000000D03*
D15*
X175810000Y-120000000D03*
%TD*%
D10*
%TO.C,S1*%
X94500000Y-183000000D03*
D11*
X100000000Y-177050000D03*
D12*
X100000000Y-183000000D03*
D11*
X105000000Y-179250000D03*
D10*
X105500000Y-183000000D03*
%TD*%
D16*
%TO.C,_2*%
X198350000Y-123000000D03*
X198833274Y-121833274D03*
X198833274Y-124166726D03*
X200000000Y-121350000D03*
D17*
X200000000Y-123000000D03*
D16*
X200000000Y-124650000D03*
X201166726Y-121833274D03*
X201166726Y-124166726D03*
X201650000Y-123000000D03*
%TD*%
D10*
%TO.C,S47*%
X286500000Y-200000000D03*
D11*
X292000000Y-194050000D03*
D12*
X292000000Y-200000000D03*
D11*
X297000000Y-196250000D03*
D10*
X297500000Y-200000000D03*
%TD*%
%TO.C,S4*%
X94500000Y-132000000D03*
D11*
X100000000Y-126050000D03*
D12*
X100000000Y-132000000D03*
D11*
X105000000Y-128250000D03*
D10*
X105500000Y-132000000D03*
%TD*%
D16*
%TO.C,_3*%
X262350000Y-157000000D03*
X262833274Y-155833274D03*
X262833274Y-158166726D03*
X264000000Y-155350000D03*
D17*
X264000000Y-157000000D03*
D16*
X264000000Y-158650000D03*
X265166726Y-155833274D03*
X265166726Y-158166726D03*
X265650000Y-157000000D03*
%TD*%
D13*
%TO.C,D38*%
X204190000Y-120000000D03*
D14*
X206350000Y-120000000D03*
X209650000Y-120000000D03*
D15*
X211810000Y-120000000D03*
%TD*%
D10*
%TO.C,S48*%
X286500000Y-183000000D03*
D11*
X292000000Y-177050000D03*
D12*
X292000000Y-183000000D03*
D11*
X297000000Y-179250000D03*
D10*
X297500000Y-183000000D03*
%TD*%
D13*
%TO.C,D24*%
X168190000Y-154000000D03*
D14*
X170350000Y-154000000D03*
X173650000Y-154000000D03*
D15*
X175810000Y-154000000D03*
%TD*%
D13*
%TO.C,D34*%
X204190000Y-188000000D03*
D14*
X206350000Y-188000000D03*
X209650000Y-188000000D03*
D15*
X211810000Y-188000000D03*
%TD*%
D13*
%TO.C,D51*%
X306190000Y-188000000D03*
D14*
X308350000Y-188000000D03*
X311650000Y-188000000D03*
D15*
X313810000Y-188000000D03*
%TD*%
D13*
%TO.C,D4*%
X96190000Y-137000000D03*
D14*
X98350000Y-137000000D03*
X101650000Y-137000000D03*
D15*
X103810000Y-137000000D03*
%TD*%
D10*
%TO.C,S29*%
X184500000Y-166000000D03*
D11*
X190000000Y-160050000D03*
D12*
X190000000Y-166000000D03*
D11*
X195000000Y-162250000D03*
D10*
X195500000Y-166000000D03*
%TD*%
D13*
%TO.C,D31*%
X186190000Y-137000000D03*
D14*
X188350000Y-137000000D03*
X191650000Y-137000000D03*
D15*
X193810000Y-137000000D03*
%TD*%
D13*
%TO.C,D15*%
X132190000Y-120000000D03*
D14*
X134350000Y-120000000D03*
X137650000Y-120000000D03*
D15*
X139810000Y-120000000D03*
%TD*%
D13*
%TO.C,D13*%
X132190000Y-154000000D03*
D14*
X134350000Y-154000000D03*
X137650000Y-154000000D03*
D15*
X139810000Y-154000000D03*
%TD*%
D13*
%TO.C,D50*%
X288190000Y-154000000D03*
D14*
X290350000Y-154000000D03*
X293650000Y-154000000D03*
D15*
X295810000Y-154000000D03*
%TD*%
D10*
%TO.C,S49*%
X286500000Y-166000000D03*
D11*
X292000000Y-160050000D03*
D12*
X292000000Y-166000000D03*
D11*
X297000000Y-162250000D03*
D10*
X297500000Y-166000000D03*
%TD*%
D13*
%TO.C,D33*%
X204190000Y-205000000D03*
D14*
X206350000Y-205000000D03*
X209650000Y-205000000D03*
D15*
X211810000Y-205000000D03*
%TD*%
D13*
%TO.C,D40*%
X252190000Y-188000000D03*
D14*
X254350000Y-188000000D03*
X257650000Y-188000000D03*
D15*
X259810000Y-188000000D03*
%TD*%
D10*
%TO.C,S5*%
X94500000Y-115000000D03*
D11*
X100000000Y-109050000D03*
D12*
X100000000Y-115000000D03*
D11*
X105000000Y-111250000D03*
D10*
X105500000Y-115000000D03*
%TD*%
D13*
%TO.C,D9*%
X114190000Y-137000000D03*
D14*
X116350000Y-137000000D03*
X119650000Y-137000000D03*
D15*
X121810000Y-137000000D03*
%TD*%
D16*
%TO.C,_4*%
X318350000Y-157000000D03*
X318833274Y-155833274D03*
X318833274Y-158166726D03*
X320000000Y-155350000D03*
D17*
X320000000Y-157000000D03*
D16*
X320000000Y-158650000D03*
X321166726Y-155833274D03*
X321166726Y-158166726D03*
X321650000Y-157000000D03*
%TD*%
D10*
%TO.C,S53*%
X304500000Y-149000000D03*
D11*
X310000000Y-143050000D03*
D12*
X310000000Y-149000000D03*
D11*
X315000000Y-145250000D03*
D10*
X315500000Y-149000000D03*
%TD*%
D13*
%TO.C,D43*%
X270190000Y-205000000D03*
D14*
X272350000Y-205000000D03*
X275650000Y-205000000D03*
D15*
X277810000Y-205000000D03*
%TD*%
D13*
%TO.C,D32*%
X186190000Y-120000000D03*
D14*
X188350000Y-120000000D03*
X191650000Y-120000000D03*
D15*
X193810000Y-120000000D03*
%TD*%
D13*
%TO.C,D44*%
X270190000Y-188000000D03*
D14*
X272350000Y-188000000D03*
X275650000Y-188000000D03*
D15*
X277810000Y-188000000D03*
%TD*%
D10*
%TO.C,S32*%
X184500000Y-115000000D03*
D11*
X190000000Y-109050000D03*
D12*
X190000000Y-115000000D03*
D11*
X195000000Y-111250000D03*
D10*
X195500000Y-115000000D03*
%TD*%
%TO.C,S56*%
X322500000Y-149000000D03*
D11*
X328000000Y-143050000D03*
D12*
X328000000Y-149000000D03*
D11*
X333000000Y-145250000D03*
D10*
X333500000Y-149000000D03*
%TD*%
%TO.C,S38*%
X202500000Y-115000000D03*
D11*
X208000000Y-109050000D03*
D12*
X208000000Y-115000000D03*
D11*
X213000000Y-111250000D03*
D10*
X213500000Y-115000000D03*
%TD*%
%TO.C,S46*%
X268500000Y-149000000D03*
D11*
X274000000Y-143050000D03*
D12*
X274000000Y-149000000D03*
D11*
X279000000Y-145250000D03*
D10*
X279500000Y-149000000D03*
%TD*%
D13*
%TO.C,D42*%
X252190000Y-154000000D03*
D14*
X254350000Y-154000000D03*
X257650000Y-154000000D03*
D15*
X259810000Y-154000000D03*
%TD*%
D13*
%TO.C,D7*%
X114190000Y-171000000D03*
D14*
X116350000Y-171000000D03*
X119650000Y-171000000D03*
D15*
X121810000Y-171000000D03*
%TD*%
D13*
%TO.C,D25*%
X168190000Y-137000000D03*
D14*
X170350000Y-137000000D03*
X173650000Y-137000000D03*
D15*
X175810000Y-137000000D03*
%TD*%
D13*
%TO.C,D3*%
X96190000Y-154000000D03*
D14*
X98350000Y-154000000D03*
X101650000Y-154000000D03*
D15*
X103810000Y-154000000D03*
%TD*%
D16*
%TO.C,_7*%
X326350000Y-199000000D03*
X326833274Y-197833274D03*
X326833274Y-200166726D03*
X328000000Y-197350000D03*
D17*
X328000000Y-199000000D03*
D16*
X328000000Y-200650000D03*
X329166726Y-197833274D03*
X329166726Y-200166726D03*
X329650000Y-199000000D03*
%TD*%
D10*
%TO.C,S22*%
X166500000Y-183000000D03*
D11*
X172000000Y-177050000D03*
D12*
X172000000Y-183000000D03*
D11*
X177000000Y-179250000D03*
D10*
X177500000Y-183000000D03*
%TD*%
D16*
%TO.C,_5*%
X98350000Y-199000000D03*
X98833274Y-197833274D03*
X98833274Y-200166726D03*
X100000000Y-197350000D03*
D17*
X100000000Y-199000000D03*
D16*
X100000000Y-200650000D03*
X101166726Y-197833274D03*
X101166726Y-200166726D03*
X101650000Y-199000000D03*
%TD*%
D10*
%TO.C,S43*%
X268500000Y-200000000D03*
D11*
X274000000Y-194050000D03*
D12*
X274000000Y-200000000D03*
D11*
X279000000Y-196250000D03*
D10*
X279500000Y-200000000D03*
%TD*%
%TO.C,S21*%
X166500000Y-200000000D03*
D11*
X172000000Y-194050000D03*
D12*
X172000000Y-200000000D03*
D11*
X177000000Y-196250000D03*
D10*
X177500000Y-200000000D03*
%TD*%
%TO.C,S15*%
X130500000Y-115000000D03*
D11*
X136000000Y-109050000D03*
D12*
X136000000Y-115000000D03*
D11*
X141000000Y-111250000D03*
D10*
X141500000Y-115000000D03*
%TD*%
D18*
%TO.C,MCU1*%
X237620000Y-108530000D03*
D19*
X237620000Y-111070000D03*
X237620000Y-113610000D03*
X237620000Y-116150000D03*
X237620000Y-118690000D03*
X237620000Y-121230000D03*
X237620000Y-123770000D03*
X237620000Y-126310000D03*
X237620000Y-128850000D03*
X237620000Y-131390000D03*
X237620000Y-133930000D03*
X237620000Y-136470000D03*
X222380000Y-108530000D03*
X222380000Y-111070000D03*
X222380000Y-113610000D03*
X222380000Y-116150000D03*
X222380000Y-118690000D03*
X222380000Y-121230000D03*
X222380000Y-123770000D03*
X222380000Y-126310000D03*
X222380000Y-128850000D03*
X222380000Y-131390000D03*
X222380000Y-133930000D03*
X222380000Y-136470000D03*
%TD*%
D13*
%TO.C,D23*%
X168190000Y-171000000D03*
D14*
X170350000Y-171000000D03*
X173650000Y-171000000D03*
D15*
X175810000Y-171000000D03*
%TD*%
D13*
%TO.C,D10*%
X114190000Y-120000000D03*
D14*
X116350000Y-120000000D03*
X119650000Y-120000000D03*
D15*
X121810000Y-120000000D03*
%TD*%
D13*
%TO.C,D2*%
X96190000Y-171000000D03*
D14*
X98350000Y-171000000D03*
X101650000Y-171000000D03*
D15*
X103810000Y-171000000D03*
%TD*%
D13*
%TO.C,D22*%
X168190000Y-188000000D03*
D14*
X170350000Y-188000000D03*
X173650000Y-188000000D03*
D15*
X175810000Y-188000000D03*
%TD*%
D10*
%TO.C,S31*%
X184500000Y-132000000D03*
D11*
X190000000Y-126050000D03*
D12*
X190000000Y-132000000D03*
D11*
X195000000Y-128250000D03*
D10*
X195500000Y-132000000D03*
%TD*%
D13*
%TO.C,D6*%
X114190000Y-188000000D03*
D14*
X116350000Y-188000000D03*
X119650000Y-188000000D03*
D15*
X121810000Y-188000000D03*
%TD*%
D10*
%TO.C,S40*%
X250500000Y-183000000D03*
D11*
X256000000Y-177050000D03*
D12*
X256000000Y-183000000D03*
D11*
X261000000Y-179250000D03*
D10*
X261500000Y-183000000D03*
%TD*%
%TO.C,S27*%
X184500000Y-200000000D03*
D11*
X190000000Y-194050000D03*
D12*
X190000000Y-200000000D03*
D11*
X195000000Y-196250000D03*
D10*
X195500000Y-200000000D03*
%TD*%
%TO.C,S14*%
X130500000Y-132000000D03*
D11*
X136000000Y-126050000D03*
D12*
X136000000Y-132000000D03*
D11*
X141000000Y-128250000D03*
D10*
X141500000Y-132000000D03*
%TD*%
%TO.C,S12*%
X130500000Y-166000000D03*
D11*
X136000000Y-160050000D03*
D12*
X136000000Y-166000000D03*
D11*
X141000000Y-162250000D03*
D10*
X141500000Y-166000000D03*
%TD*%
%TO.C,S44*%
X268500000Y-183000000D03*
D11*
X274000000Y-177050000D03*
D12*
X274000000Y-183000000D03*
D11*
X279000000Y-179250000D03*
D10*
X279500000Y-183000000D03*
%TD*%
%TO.C,S9*%
X112500000Y-132000000D03*
D11*
X118000000Y-126050000D03*
D12*
X118000000Y-132000000D03*
D11*
X123000000Y-128250000D03*
D10*
X123500000Y-132000000D03*
%TD*%
D13*
%TO.C,D29*%
X186190000Y-171000000D03*
D14*
X188350000Y-171000000D03*
X191650000Y-171000000D03*
D15*
X193810000Y-171000000D03*
%TD*%
D13*
%TO.C,D41*%
X252190000Y-171000000D03*
D14*
X254350000Y-171000000D03*
X257650000Y-171000000D03*
D15*
X259810000Y-171000000D03*
%TD*%
D10*
%TO.C,S24*%
X166500000Y-149000000D03*
D11*
X172000000Y-143050000D03*
D12*
X172000000Y-149000000D03*
D11*
X177000000Y-145250000D03*
D10*
X177500000Y-149000000D03*
%TD*%
%TO.C,S17*%
X148500000Y-166000000D03*
D11*
X154000000Y-160050000D03*
D12*
X154000000Y-166000000D03*
D11*
X159000000Y-162250000D03*
D10*
X159500000Y-166000000D03*
%TD*%
%TO.C,S36*%
X202500000Y-149000000D03*
D11*
X208000000Y-143050000D03*
D12*
X208000000Y-149000000D03*
D11*
X213000000Y-145250000D03*
D10*
X213500000Y-149000000D03*
%TD*%
D13*
%TO.C,D48*%
X288190000Y-188000000D03*
D14*
X290350000Y-188000000D03*
X293650000Y-188000000D03*
D15*
X295810000Y-188000000D03*
%TD*%
D10*
%TO.C,S13*%
X130500000Y-149000000D03*
D11*
X136000000Y-143050000D03*
D12*
X136000000Y-149000000D03*
D11*
X141000000Y-145250000D03*
D10*
X141500000Y-149000000D03*
%TD*%
D16*
%TO.C,_6*%
X218350000Y-200000000D03*
X218833274Y-198833274D03*
X218833274Y-201166726D03*
X220000000Y-198350000D03*
D17*
X220000000Y-200000000D03*
D16*
X220000000Y-201650000D03*
X221166726Y-198833274D03*
X221166726Y-201166726D03*
X221650000Y-200000000D03*
%TD*%
D10*
%TO.C,S34*%
X202500000Y-183000000D03*
D11*
X208000000Y-177050000D03*
D12*
X208000000Y-183000000D03*
D11*
X213000000Y-179250000D03*
D10*
X213500000Y-183000000D03*
%TD*%
%TO.C,S54*%
X322500000Y-183000000D03*
D11*
X328000000Y-177050000D03*
D12*
X328000000Y-183000000D03*
D11*
X333000000Y-179250000D03*
D10*
X333500000Y-183000000D03*
%TD*%
D13*
%TO.C,D1*%
X96190000Y-188000000D03*
D14*
X98350000Y-188000000D03*
X101650000Y-188000000D03*
D15*
X103810000Y-188000000D03*
%TD*%
D10*
%TO.C,S35*%
X202500000Y-166000000D03*
D11*
X208000000Y-160050000D03*
D12*
X208000000Y-166000000D03*
D11*
X213000000Y-162250000D03*
D10*
X213500000Y-166000000D03*
%TD*%
%TO.C,S6*%
X112500000Y-183000000D03*
D11*
X118000000Y-177050000D03*
D12*
X118000000Y-183000000D03*
D11*
X123000000Y-179250000D03*
D10*
X123500000Y-183000000D03*
%TD*%
%TO.C,S2*%
X94500000Y-166000000D03*
D11*
X100000000Y-160050000D03*
D12*
X100000000Y-166000000D03*
D11*
X105000000Y-162250000D03*
D10*
X105500000Y-166000000D03*
%TD*%
D16*
%TO.C,_1*%
X106350000Y-123000000D03*
X106833274Y-121833274D03*
X106833274Y-124166726D03*
X108000000Y-121350000D03*
D17*
X108000000Y-123000000D03*
D16*
X108000000Y-124650000D03*
X109166726Y-121833274D03*
X109166726Y-124166726D03*
X109650000Y-123000000D03*
%TD*%
D13*
%TO.C,D55*%
X324190000Y-171000000D03*
D14*
X326350000Y-171000000D03*
X329650000Y-171000000D03*
D15*
X331810000Y-171000000D03*
%TD*%
D13*
%TO.C,D46*%
X270190000Y-154000000D03*
D14*
X272350000Y-154000000D03*
X275650000Y-154000000D03*
D15*
X277810000Y-154000000D03*
%TD*%
D10*
%TO.C,S41*%
X250500000Y-166000000D03*
D11*
X256000000Y-160050000D03*
D12*
X256000000Y-166000000D03*
D11*
X261000000Y-162250000D03*
D10*
X261500000Y-166000000D03*
%TD*%
D13*
%TO.C,D53*%
X306190000Y-154000000D03*
D14*
X308350000Y-154000000D03*
X311650000Y-154000000D03*
D15*
X313810000Y-154000000D03*
%TD*%
D10*
%TO.C,S28*%
X184500000Y-183000000D03*
D11*
X190000000Y-177050000D03*
D12*
X190000000Y-183000000D03*
D11*
X195000000Y-179250000D03*
D10*
X195500000Y-183000000D03*
%TD*%
%TO.C,S19*%
X148500000Y-132000000D03*
D11*
X154000000Y-126050000D03*
D12*
X154000000Y-132000000D03*
D11*
X159000000Y-128250000D03*
D10*
X159500000Y-132000000D03*
%TD*%
D13*
%TO.C,D37*%
X204190000Y-137000000D03*
D14*
X206350000Y-137000000D03*
X209650000Y-137000000D03*
D15*
X211810000Y-137000000D03*
%TD*%
D10*
%TO.C,S8*%
X112500000Y-149000000D03*
D11*
X118000000Y-143050000D03*
D12*
X118000000Y-149000000D03*
D11*
X123000000Y-145250000D03*
D10*
X123500000Y-149000000D03*
%TD*%
D13*
%TO.C,D12*%
X132190000Y-171000000D03*
D14*
X134350000Y-171000000D03*
X137650000Y-171000000D03*
D15*
X139810000Y-171000000D03*
%TD*%
D13*
%TO.C,D35*%
X204190000Y-171000000D03*
D14*
X206350000Y-171000000D03*
X209650000Y-171000000D03*
D15*
X211810000Y-171000000D03*
%TD*%
D13*
%TO.C,D56*%
X324190000Y-154000000D03*
D14*
X326350000Y-154000000D03*
X329650000Y-154000000D03*
D15*
X331810000Y-154000000D03*
%TD*%
M02*
