M48
; DRILL file {KiCad 8.0.2} date 2024-06-03T01:18:50-0400
; FORMAT={-:-/ absolute / inch / decimal}
; #@! TF.CreationDate,2024-06-03T01:18:50-04:00
; #@! TF.GenerationSoftware,Kicad,Pcbnew,8.0.2
; #@! TF.FileFunction,NonPlated,1,2,NPTH
FMAT,2
INCH
; #@! TA.AperFunction,NonPlated,NPTH,ComponentDrill
T1C0.0670
; #@! TA.AperFunction,NonPlated,NPTH,ComponentDrill
T2C0.1181
; #@! TA.AperFunction,NonPlated,NPTH,ComponentDrill
T3C0.1350
%
G90
G05
T1
X3.7205Y-4.5276
X3.7205Y-5.1969
X3.7205Y-5.8661
X3.7205Y-6.5354
X3.7205Y-7.2047
X4.1535Y-4.5276
X4.1535Y-5.1969
X4.1535Y-5.8661
X4.1535Y-6.5354
X4.1535Y-7.2047
X4.4291Y-4.5276
X4.4291Y-5.1969
X4.4291Y-5.8661
X4.4291Y-6.5354
X4.4291Y-7.2047
X4.8622Y-4.5276
X4.8622Y-5.1969
X4.8622Y-5.8661
X4.8622Y-6.5354
X4.8622Y-7.2047
X5.1378Y-4.5276
X5.1378Y-5.1969
X5.1378Y-5.8661
X5.1378Y-6.5354
X5.1378Y-7.2047
X5.5709Y-4.5276
X5.5709Y-5.1969
X5.5709Y-5.8661
X5.5709Y-6.5354
X5.5709Y-7.2047
X5.8465Y-4.5276
X5.8465Y-5.1969
X5.8465Y-5.8661
X5.8465Y-6.5354
X5.8465Y-7.2047
X6.2795Y-4.5276
X6.2795Y-5.1969
X6.2795Y-5.8661
X6.2795Y-6.5354
X6.2795Y-7.2047
X6.5551Y-4.5276
X6.5551Y-5.1969
X6.5551Y-5.8661
X6.5551Y-6.5354
X6.5551Y-7.2047
X6.5551Y-7.874
X6.9882Y-4.5276
X6.9882Y-5.1969
X6.9882Y-5.8661
X6.9882Y-6.5354
X6.9882Y-7.2047
X6.9882Y-7.874
X7.2638Y-4.5276
X7.2638Y-5.1969
X7.2638Y-5.8661
X7.2638Y-6.5354
X7.2638Y-7.2047
X7.2638Y-7.874
X7.6969Y-4.5276
X7.6969Y-5.1969
X7.6969Y-5.8661
X7.6969Y-6.5354
X7.6969Y-7.2047
X7.6969Y-7.874
X7.9724Y-4.5276
X7.9724Y-5.1969
X7.9724Y-5.8661
X7.9724Y-6.5354
X7.9724Y-7.2047
X7.9724Y-7.874
X8.4055Y-4.5276
X8.4055Y-5.1969
X8.4055Y-5.8661
X8.4055Y-6.5354
X8.4055Y-7.2047
X8.4055Y-7.874
X9.8622Y-5.8661
X9.8622Y-6.5354
X9.8622Y-7.2047
X9.8622Y-7.874
X10.2953Y-5.8661
X10.2953Y-6.5354
X10.2953Y-7.2047
X10.2953Y-7.874
X10.5709Y-5.8661
X10.5709Y-6.5354
X10.5709Y-7.2047
X10.5709Y-7.874
X11.0039Y-5.8661
X11.0039Y-6.5354
X11.0039Y-7.2047
X11.0039Y-7.874
X11.2795Y-5.8661
X11.2795Y-6.5354
X11.2795Y-7.2047
X11.2795Y-7.874
X11.7126Y-5.8661
X11.7126Y-6.5354
X11.7126Y-7.2047
X11.7126Y-7.874
X11.9882Y-5.8661
X11.9882Y-6.5354
X11.9882Y-7.2047
X12.4213Y-5.8661
X12.4213Y-6.5354
X12.4213Y-7.2047
X12.6969Y-5.8661
X12.6969Y-6.5354
X12.6969Y-7.2047
X13.1299Y-5.8661
X13.1299Y-6.5354
X13.1299Y-7.2047
T2
X3.937Y-4.2933
X3.937Y-4.9626
X3.937Y-5.6319
X3.937Y-6.3012
X3.937Y-6.9705
X4.1339Y-4.3799
X4.1339Y-5.0492
X4.1339Y-5.7185
X4.1339Y-6.3878
X4.1339Y-7.0571
X4.6457Y-4.2933
X4.6457Y-4.9626
X4.6457Y-5.6319
X4.6457Y-6.3012
X4.6457Y-6.9705
X4.8425Y-4.3799
X4.8425Y-5.0492
X4.8425Y-5.7185
X4.8425Y-6.3878
X4.8425Y-7.0571
X5.3543Y-4.2933
X5.3543Y-4.9626
X5.3543Y-5.6319
X5.3543Y-6.3012
X5.3543Y-6.9705
X5.5512Y-4.3799
X5.5512Y-5.0492
X5.5512Y-5.7185
X5.5512Y-6.3878
X5.5512Y-7.0571
X6.063Y-4.2933
X6.063Y-4.9626
X6.063Y-5.6319
X6.063Y-6.3012
X6.063Y-6.9705
X6.2598Y-4.3799
X6.2598Y-5.0492
X6.2598Y-5.7185
X6.2598Y-6.3878
X6.2598Y-7.0571
X6.7717Y-4.2933
X6.7717Y-4.9626
X6.7717Y-5.6319
X6.7717Y-6.3012
X6.7717Y-6.9705
X6.7717Y-7.6398
X6.9685Y-4.3799
X6.9685Y-5.0492
X6.9685Y-5.7185
X6.9685Y-6.3878
X6.9685Y-7.0571
X6.9685Y-7.7264
X7.4803Y-4.2933
X7.4803Y-4.9626
X7.4803Y-5.6319
X7.4803Y-6.3012
X7.4803Y-6.9705
X7.4803Y-7.6398
X7.6772Y-4.3799
X7.6772Y-5.0492
X7.6772Y-5.7185
X7.6772Y-6.3878
X7.6772Y-7.0571
X7.6772Y-7.7264
X8.189Y-4.2933
X8.189Y-4.9626
X8.189Y-5.6319
X8.189Y-6.3012
X8.189Y-6.9705
X8.189Y-7.6398
X8.3858Y-4.3799
X8.3858Y-5.0492
X8.3858Y-5.7185
X8.3858Y-6.3878
X8.3858Y-7.0571
X8.3858Y-7.7264
X10.0787Y-5.6319
X10.0787Y-6.3012
X10.0787Y-6.9705
X10.0787Y-7.6398
X10.2756Y-5.7185
X10.2756Y-6.3878
X10.2756Y-7.0571
X10.2756Y-7.7264
X10.7874Y-5.6319
X10.7874Y-6.3012
X10.7874Y-6.9705
X10.7874Y-7.6398
X10.9843Y-5.7185
X10.9843Y-6.3878
X10.9843Y-7.0571
X10.9843Y-7.7264
X11.4961Y-5.6319
X11.4961Y-6.3012
X11.4961Y-6.9705
X11.4961Y-7.6398
X11.6929Y-5.7185
X11.6929Y-6.3878
X11.6929Y-7.0571
X11.6929Y-7.7264
X12.2047Y-5.6319
X12.2047Y-6.3012
X12.2047Y-6.9705
X12.4016Y-5.7185
X12.4016Y-6.3878
X12.4016Y-7.0571
X12.9134Y-5.6319
X12.9134Y-6.3012
X12.9134Y-6.9705
X13.1102Y-5.7185
X13.1102Y-6.3878
X13.1102Y-7.0571
T3
X3.937Y-4.5276
X3.937Y-5.1969
X3.937Y-5.8661
X3.937Y-6.5354
X3.937Y-7.2047
X4.6457Y-4.5276
X4.6457Y-5.1969
X4.6457Y-5.8661
X4.6457Y-6.5354
X4.6457Y-7.2047
X5.3543Y-4.5276
X5.3543Y-5.1969
X5.3543Y-5.8661
X5.3543Y-6.5354
X5.3543Y-7.2047
X6.063Y-4.5276
X6.063Y-5.1969
X6.063Y-5.8661
X6.063Y-6.5354
X6.063Y-7.2047
X6.7717Y-4.5276
X6.7717Y-5.1969
X6.7717Y-5.8661
X6.7717Y-6.5354
X6.7717Y-7.2047
X6.7717Y-7.874
X7.4803Y-4.5276
X7.4803Y-5.1969
X7.4803Y-5.8661
X7.4803Y-6.5354
X7.4803Y-7.2047
X7.4803Y-7.874
X8.189Y-4.5276
X8.189Y-5.1969
X8.189Y-5.8661
X8.189Y-6.5354
X8.189Y-7.2047
X8.189Y-7.874
X10.0787Y-5.8661
X10.0787Y-6.5354
X10.0787Y-7.2047
X10.0787Y-7.874
X10.7874Y-5.8661
X10.7874Y-6.5354
X10.7874Y-7.2047
X10.7874Y-7.874
X11.4961Y-5.8661
X11.4961Y-6.5354
X11.4961Y-7.2047
X11.4961Y-7.874
X12.2047Y-5.8661
X12.2047Y-6.5354
X12.2047Y-7.2047
X12.9134Y-5.8661
X12.9134Y-6.5354
X12.9134Y-7.2047
M30
